<?xml version='1.0' encoding='UTF-8'?>
<svg xmlns="http://www.w3.org/2000/svg" viewBox="0 0 64 64" width="512" height="512" id="svg73" style="isolation:isolate">
  <g transform="translate(32.0000 32.0000) scale(1.088000) translate(-32.0000 -32.0000)"><path d="m 18.347203,7.2464043 c -6.244452,0 -11.2714308,5.1741617 -11.2714308,11.6016437 v 26.767119 c 0,6.427394 5.0268918,11.601644 11.2714308,11.601644 h 26.005262 c 6.244452,0 11.271431,-5.174161 11.271431,-11.601644 V 18.848048 c 0,-6.427393 -5.026893,-11.6016437 -11.271431,-11.6016437 z" fill="#a27ae4" id="path33" />

  <rect x="9.678463" y="9.925169" width="43.343258" height="44.613056" rx="8.6689987" ry="8.9229689" fill="#333333" opacity="0.75" id="rect35-7" />

  <path style="fill:#a27ae4" d="m 31.882085,20.543002 c -2.210666,0 -4,1.8 -4,4 v 8 c 0,2.2 1.79,4 4,4 2.21,0 4,-1.8 4,-4 v -8 c 0,-2.2 -1.789334,-4 -4,-4 z m 0,2 c 1.104,0 2,0.8 2,2 0,0.999998 -0.896,2 -2,2 -1.104,0 -2,-1.000002 -2,-2 0,-1.2 0.896,-2 2,-2 z m 0,6 c 1.10457,0 2,0.89543 2,2 v 2 c 0,1.10457 -0.89543,2 -2,2 -1.10457,0 -2,-0.89543 -2,-2 v -2 c 0,-1.10457 0.89543,-2 2,-2 z" id="path20" />
  <path style="fill:#a27ae4" d="m 30.882085,14.543002 h 1 c 0.04125,-0.367529 0,-1 0,-1 h -1 z m 1,0 v 1 h 1 v -1 z m 0,1 h -1 v 1 h 1 z m 0,1 v 1 h 1 v -1 z m 0,1 h -1 v 1 h 1 z m 0,1 v 1 h 1 v -1 z m 0,1 h -1 v 1 h 1 z m 0,1 c -0.124065,1.591917 1.000923,0.805783 1,0 z" id="path16" />
  <path style="fill:#a27ae4" d="m 31.882085,9.5430022 c -21.254723,-6.3620015 -10.627362,-3.1810007 0,0 z m 0,0 h -1 c -0.07681,1.0693558 -0.0037,0.9999998 1,0.9999998 z m 0,0.9999998 v 1 h 1 v -1 z m 0,1 h -1 v 1 h 1 z m 0,1 v 1 h 1 v -1 z m 0,1 c -21.315133,-7.75327 -10.657566,-3.876635 0,0 z" id="path16-6" />

  <g aria-label="DEB" transform="matrix(1.2212657,0,0,0.81882264,-1.4197357,-2.6898113)" id="text93-6" style="font-weight:bold;font-size:11.5263px;line-height:1.25;font-family:sans-serif;fill:#a27ae4;stroke-width:0.288159">
    <path d="m 17.792755,57.548124 v 5.127178 h 0.776675 q 1.328226,0 2.026107,-0.658485 0.70351,-0.658485 0.70351,-1.913546 0,-1.249433 -0.697882,-1.90229 -0.697881,-0.652857 -2.031735,-0.652857 z m -2.166809,-1.63777 h 2.284999 q 1.913546,0 2.847806,0.275776 0.939889,0.270148 1.60963,0.923004 0.590948,0.568436 0.87798,1.311342 0.287032,0.742906 0.287032,1.682795 0,0.951145 -0.287032,1.699679 -0.287032,0.742906 -0.87798,1.311342 -0.675369,0.652857 -1.620886,0.928633 -0.945517,0.270147 -2.83655,0.270147 h -2.284999 z" id="path857" />
    <path d="m 25.193676,55.910354 h 5.847571 v 1.63777 h -3.680762 v 1.564606 h 3.461267 v 1.63777 h -3.461267 v 1.924802 h 3.80458 v 1.63777 h -5.971389 z" id="path859" />
    <path d="m 36.432943,59.163382 q 0.512155,0 0.776675,-0.225123 0.26452,-0.225123 0.26452,-0.664113 0,-0.433362 -0.26452,-0.658485 -0.26452,-0.230751 -0.776675,-0.230751 h -1.19878 v 1.778472 z m 0.07316,3.675134 q 0.652857,0 0.979286,-0.275776 0.332056,-0.275775 0.332056,-0.832955 0,-0.545923 -0.326428,-0.816071 -0.326429,-0.275776 -0.984914,-0.275776 h -1.271945 v 2.200578 z m 2.014852,-3.022277 q 0.697881,0.202611 1.08059,0.748534 0.38271,0.545924 0.38271,1.339483 0,1.215664 -0.821699,1.81224 -0.8217,0.596576 -2.498866,0.596576 h -3.596341 v -8.402718 h 3.253028 q 1.750332,0 2.532634,0.529039 0.787931,0.52904 0.787931,1.694051 0,0.613461 -0.287032,1.046823 -0.287032,0.427733 -0.832955,0.635972 z" id="path861" />
  </g>
</g></svg>