<?xml version='1.0' encoding='UTF-8'?>
<svg xmlns="http://www.w3.org/2000/svg" width="512" height="512" viewBox="0 0 64 64" id="svg73">
  <defs id="defs29">
    <linearGradient id="b" x1="399.57" x2="399.57" y1="545.8" y2="517.8" gradientTransform="matrix(2.1429,0,0,2.1429,-826.36,-1107.5)" gradientUnits="userSpaceOnUse">
      <stop stop-color="#3889e9" offset="0" id="stop2" />
      <stop stop-color="#5ea5fb" offset="1" id="stop4" />
    </linearGradient>
    <linearGradient id="linearGradient862" x1="7.9373" x2="7.9373" y1="15.081" y2="1.852" gradientTransform="matrix(3.3743 0 0 3.3743 3.4312 3.4278)" gradientUnits="userSpaceOnUse">
      <stop stop-color="#f1efeb" offset="0" id="stop7" />
      <stop stop-color="#fff" offset="1" id="stop9" />
    </linearGradient>
    <linearGradient id="linearGradient910" x1="7.9373" x2="7.9373" y1="15.081" y2="1.852" gradientTransform="scale(3.7796)" gradientUnits="userSpaceOnUse">
      <stop stop-color="#613583" offset="0" id="stop12" />
      <stop stop-color="#a663c0" offset="1" id="stop14" />
    </linearGradient>
    <clipPath clipPathUnits="userSpaceOnUse" id="clipPath273">
      <rect x="7.0022998" y="12.552417" width="49.998001" height="38.433922" rx="10" ry="7.6870914" fill="url(#linearGradient862)" stroke-width="2.95845" id="rect275" style="display:none;fill:#333333;fill-opacity:1" d="m 17.0023,12.552417 h 29.998001 c 5.54,0 10,3.428443 10,7.687091 v 23.059739 c 0,4.258649 -4.46,7.687092 -10,7.687092 H 17.0023 c -5.54,0 -10.0000002,-3.428443 -10.0000002,-7.687092 V 20.239508 c 0,-4.258648 4.4600002,-7.687091 10.0000002,-7.687091 z" />
      <path id="lpe_path-effect277" style="fill:#333333;fill-opacity:1" class="powerclip" d="m -1,5.244676 h 66.002 v 53.04925 H -1 Z m 18.0023,7.307741 c -5.54,0 -10.0000002,3.428443 -10.0000002,7.687091 v 23.059739 c 0,4.258649 4.4600002,7.687092 10.0000002,7.687092 h 29.998001 c 5.54,0 10,-3.428443 10,-7.687092 V 20.239508 c 0,-4.258648 -4.46,-7.687091 -10,-7.687091 z" />
    </clipPath>
  </defs>
  <g transform="translate(32.0000 32.0000) scale(0.967111) translate(-32.0000 -32.0000)"><path d="M 17.002,10.244676 C 9.7988,10.244676 4,14.702189 4,20.239432 V 43.29917 c 0,5.537166 5.7987,9.994756 13.002,9.994756 H 47 c 7.2032,0 13.002,-4.457513 13.002,-9.994756 V 20.239432 c 0,-5.537166 -5.7987,-9.994756 -13.002,-9.994756 z" fill="url(#linearGradient910)" stroke-width="3.31381" id="path33" style="fill:#a27ae4" clip-path="url(#clipPath273)" />
  <rect x="7.0022998" y="12.552417" width="49.998001" height="38.433922" rx="10" ry="7.6870914" fill="url(#linearGradient862)" stroke-width="2.95845" id="rect35-3" style="fill:#333333;fill-opacity:1;opacity:0.75" />
  <circle cx="32.02" cy="32.044" r="0" fill="url(#b)" stroke-width="1.5715" id="circle41" />
  <path style="fill:#a27ae4;stroke-width:0.770277" d="m 28.20364,16.783023 v 11.234224 a 3.8079023,3.8953618 0 0 0 -1.523161,-0.327211 3.8079023,3.8953618 0 0 0 -3.807902,3.895362 3.8079023,3.8953618 0 0 0 3.807902,3.895362 3.8079023,3.8953618 0 0 0 3.804933,-3.823843 l 0.003,-0.0062 V 21.457302 h 8.377385 v 6.559711 a 3.8079023,3.8953618 0 0 0 -1.523161,-0.32721 3.8079023,3.8953618 0 0 0 -3.807902,3.895362 3.8079023,3.8953618 0 0 0 3.807902,3.895361 3.8079023,3.8953618 0 0 0 3.798992,-3.700593 l 0.0091,-0.01792 V 16.78279 H 28.203945 Z" id="path10" />
  <g aria-label="MP3" transform="matrix(1.0209986,0,0,0.77321497,5.4140278,-0.46435666)" id="text31" style="font-weight:bold;font-size:14.2742px;line-height:1.25;font-family:sans-serif;-inkscape-font-specification:'sans-serif Bold';fill:#a27ae4;stroke-width:0.356857">
    <path d="m 10.365342,51.444051 h 3.415214 l 2.36974,5.568889 2.38368,-5.568889 H 21.94222 V 61.849998 H 19.405204 V 54.23895 l -2.39762,5.610709 H 15.306947 L 12.909328,54.23895 v 7.611048 h -2.543986 z" style="stroke-width:0.356857;fill:#a27ae4" id="path853" />
    <path d="m 24.569844,51.444051 h 4.453718 q 1.986399,0 3.045813,0.885167 1.066383,0.878198 1.066383,2.509137 0,1.637909 -1.066383,2.523077 -1.059414,0.878197 -3.045813,0.878197 h -1.770336 v 3.610369 h -2.683382 z m 2.683382,1.944581 v 2.906416 h 1.484573 q 0.78062,0 1.205779,-0.37637 0.42516,-0.38334 0.42516,-1.080323 0,-0.696982 -0.42516,-1.073353 -0.425159,-0.37637 -1.205779,-0.37637 z" style="stroke-width:0.356857;fill:#a27ae4" id="path855" />
    <path d="m 40.370435,56.23929 q 1.052444,0.271823 1.59609,0.947896 0.550616,0.669103 0.550616,1.707607 0,1.547301 -1.18487,2.355801 -1.18487,0.801529 -3.457033,0.801529 -0.80153,0 -1.610029,-0.132426 -0.80153,-0.125457 -1.58912,-0.383341 v -2.070037 q 0.752741,0.37637 1.491542,0.571525 0.745771,0.188185 1.463663,0.188185 1.066384,0 1.630939,-0.3694 0.571526,-0.369401 0.571526,-1.059414 0,-0.710922 -0.585465,-1.073353 -0.578496,-0.3694 -1.714577,-0.3694 h -1.073353 v -1.728517 h 1.129111 q 1.010625,0 1.505483,-0.313642 0.494857,-0.320612 0.494857,-0.968805 0,-0.599405 -0.480918,-0.926987 -0.480918,-0.327582 -1.359116,-0.327582 -0.648193,0 -1.310327,0.146366 -0.662133,0.146367 -1.317296,0.43213 v -1.965491 q 0.79456,-0.223034 1.57518,-0.334551 0.78062,-0.111518 1.533361,-0.111518 2.028219,0 3.031874,0.669103 1.010624,0.662134 1.010624,2.00034 0,0.913047 -0.480917,1.498512 -0.480918,0.578496 -1.421845,0.81547 z" style="stroke-width:0.356857;fill:#a27ae4" id="path857" />
  </g>
</g></svg>