<?xml version='1.0' encoding='UTF-8'?>
<svg xmlns="http://www.w3.org/2000/svg" xmlns:ns1="http://www.w3.org/1999/xlink" width="512" height="512" viewBox="0 0 64 64" id="svg73">
  <defs id="defs29">
    <linearGradient id="b" x1="399.57" x2="399.57" y1="545.8" y2="517.8" gradientTransform="matrix(2.1429,0,0,2.1429,-826.36,-1107.5)" gradientUnits="userSpaceOnUse">
      <stop stop-color="#3889e9" offset="0" id="stop2" />
      <stop stop-color="#5ea5fb" offset="1" id="stop4" />
    </linearGradient>
    <linearGradient id="linearGradient862" x1="7.9373" x2="7.9373" y1="15.081" y2="1.852" gradientTransform="matrix(3.3743 0 0 3.3743 3.4312 3.4278)" gradientUnits="userSpaceOnUse">
      <stop stop-color="#f1efeb" offset="0" id="stop7" />
      <stop stop-color="#fff" offset="1" id="stop9" />
    </linearGradient>
    <linearGradient id="linearGradient910" x1="7.9373" x2="7.9373" y1="15.081" y2="1.852" gradientTransform="scale(3.7796)" gradientUnits="userSpaceOnUse">
      <stop stop-color="#613583" offset="0" id="stop12" />
      <stop stop-color="#a663c0" offset="1" id="stop14" />
    </linearGradient>
    <clipPath clipPathUnits="userSpaceOnUse" id="clipPath511">
      <rect x="5.4958358" y="5.147223" width="53.250076" height="53.694939" rx="10.650441" ry="10.739417" fill="url(#linearGradient862)" stroke-width="3.60876" id="rect513" style="display:none;fill:#333333;fill-opacity:1" d="m 16.146277,5.147223 h 31.949194 c 5.900344,0 10.650441,4.78978 10.650441,10.739417 v 32.216105 c 0,5.949637 -4.750097,10.739417 -10.650441,10.739417 H 16.146277 c -5.900344,0 -10.6504412,-4.78978 -10.6504412,-10.739417 V 15.88664 c 0,-5.949637 4.7500972,-10.739417 10.6504412,-10.739417 z" />
      <path id="lpe_path-effect515" style="fill:#333333;fill-opacity:1" class="powerclip" d="M -2.7017465,-3.076857 H 66.942856 V 67.066025 H -2.7017465 Z m 18.8480235,8.22408 c -5.900344,0 -10.6504412,4.78978 -10.6504412,10.739417 v 32.216105 c 0,5.949637 4.7500972,10.739417 10.6504412,10.739417 h 31.949194 c 5.900344,0 10.650441,-4.78978 10.650441,-10.739417 V 15.88664 c 0,-5.949637 -4.750097,-10.739417 -10.650441,-10.739417 z" />
    </clipPath>
    <linearGradient ns1:href="#b" id="linearGradient405" gradientUnits="userSpaceOnUse" gradientTransform="matrix(1.71432,0,0,1.71432,-654.03875,-880.13625)" x1="399.57" y1="545.8" x2="399.57" y2="517.8" />
  </defs>
  <g transform="translate(32.0000 32.0000) scale(0.850000) translate(-32.0000 -32.0000)"><path d="m 16.145957,1.923143 c -7.6717257,0 -13.8477035,6.2274662 -13.8477035,13.96339 v 32.216103 c 0,7.735817 6.1758713,13.963389 13.8477035,13.963389 h 31.949194 c 7.671728,0 13.847705,-6.227465 13.847705,-13.963389 V 15.886533 c 0,-7.7358165 -6.175871,-13.96339 -13.847705,-13.96339 z" fill="url(#linearGradient910)" stroke-width="4.04222" id="path33" style="fill:#a27ae4" clip-path="url(#clipPath511)" transform="matrix(1.0679334,0,0,1.0549506,-2.2076788,-1.7753672)" />
  <circle cx="32.02" cy="32.044" r="0" fill="url(#b)" stroke-width="1.5715" id="circle41" />
  <rect x="3.6615078" y="3.6546981" width="56.867538" height="56.645508" rx="11.373961" ry="11.329555" fill="url(#linearGradient862)" stroke-width="3.83042" id="rect35-3" style="opacity:0.25;fill:#a27ae4;fill-opacity:1" />
  <ellipse cx="31.653566" cy="32.755009" fill-opacity="0" stroke-width="1.20201" id="circle39" style="fill:#a27ae4" rx="22.055651" ry="23.874485" />
  <circle cx="32.665249" cy="31.498917" r="24.000799" fill-opacity="0" stroke-width="1.2572" id="circle39-5" />
  <circle cx="32.665249" cy="31.498917" r="0" fill="url(#b)" stroke-width="1.2572" id="circle41-3" style="fill:url(#linearGradient405)" />
  <path style="color:#444444;fill:#a27ae4;stroke-width:2.98598" class="ColorScheme-Text" d="m 10.698037,11.701918 c -2.9859837,0 -2.9859837,2.985984 -2.9859837,2.985984 v 29.85984 c 0,2.985984 2.9859837,2.985984 2.9859837,2.985984 h 14.92992 c 0,0 -2.985984,0 -2.985984,2.985984 v 2.985984 H 40.557877 V 50.51971 c 0,-2.985984 -2.985984,-2.985984 -2.985984,-2.985984 h 14.92992 c 2.985984,0 2.985984,-2.985984 2.985984,-2.985984 v -29.85984 c 0,0 0,-2.985984 -2.985984,-2.985984 z m 2.985984,5.971968 H 49.515829 V 41.561758 H 13.684021 Z" id="path5" />
</g></svg>