<?xml version='1.0' encoding='UTF-8'?>
<svg xmlns="http://www.w3.org/2000/svg" width="512" height="512" viewBox="0 0 16 16" id="svg73">
  <g transform="translate(8.0000 8.0000) scale(0.971429) translate(-8.0000 -8.0000)"><path style="fill:#a27ae4;opacity:0.4" class="ColorScheme-Text" d="M 2 1 C 2 1 1 1 1 2 L 1 5 C 1 4 2 4 2 4 L 7 4 L 9 6 L 14 6 C 14 6 15 6 15 7 L 15 4 C 15 3 14 3 14 3 L 9 3 L 7 1 L 2 1 z" id="path5" />
  <path style="fill:#a27ae4;stroke-width:0.999999" class="ColorScheme-Text" d="M 2,5 C 2,5 1,5 1,6 v 7 c 0,0 0,1 1,1 h 12 c 0,0 1,0 1,-1 V 8 C 15,7 14,7 14,7 H 9 L 7,5 Z" id="path7" />
</g></svg>