<svg xmlns:xlink="http://www.w3.org/1999/xlink" xmlns="http://www.w3.org/2000/svg" width="512" height="512" viewBox="0 0 64 64" id="svg73">
  <defs id="defs29">
    <linearGradient id="b" x1="399.57" x2="399.57" y1="545.8" y2="517.8" gradientTransform="matrix(2.1429,0,0,2.1429,-826.36,-1107.5)" gradientUnits="userSpaceOnUse">
      <stop stop-color="#3889e9" offset="0" id="stop2"/>
      <stop stop-color="#5ea5fb" offset="1" id="stop4"/>
    </linearGradient>
    <linearGradient id="linearGradient862" x1="7.9373" x2="7.9373" y1="15.081" y2="1.852" gradientTransform="matrix(3.3743 0 0 3.3743 3.4312 3.4278)" gradientUnits="userSpaceOnUse">
      <stop stop-color="#f1efeb" offset="0" id="stop7"/>
      <stop stop-color="#fff" offset="1" id="stop9"/>
    </linearGradient>
    <linearGradient id="linearGradient910" x1="7.9373" x2="7.9373" y1="15.081" y2="1.852" gradientTransform="scale(3.7796)" gradientUnits="userSpaceOnUse">
      <stop stop-color="#613583" offset="0" id="stop12"/>
      <stop stop-color="#a663c0" offset="1" id="stop14"/>
    </linearGradient>
    <clipPath clipPathUnits="userSpaceOnUse" id="clipPath511">
      <rect x="5.4958358" y="5.147223" width="53.250076" height="53.694939" rx="10.650441" ry="10.739417" fill="url(#linearGradient862)" stroke-width="3.60876" id="rect513" style="display:none;fill:#333333;fill-opacity:1" d="m 16.146277,5.147223 h 31.949194 c 5.900344,0 10.650441,4.78978 10.650441,10.739417 v 32.216105 c 0,5.949637 -4.750097,10.739417 -10.650441,10.739417 H 16.146277 c -5.900344,0 -10.6504412,-4.78978 -10.6504412,-10.739417 V 15.88664 c 0,-5.949637 4.7500972,-10.739417 10.6504412,-10.739417 z"/>
      <path id="lpe_path-effect515" style="fill:#333333;fill-opacity:1" class="powerclip" d="M -2.7017465,-3.076857 H 66.942856 V 67.066025 H -2.7017465 Z m 18.8480235,8.22408 c -5.900344,0 -10.6504412,4.78978 -10.6504412,10.739417 v 32.216105 c 0,5.949637 4.7500972,10.739417 10.6504412,10.739417 h 31.949194 c 5.900344,0 10.650441,-4.78978 10.650441,-10.739417 V 15.88664 c 0,-5.949637 -4.750097,-10.739417 -10.650441,-10.739417 z"/>
    </clipPath>
    </defs>
  <path d="m 16.145957,1.923143 c -7.6717257,0 -13.8477035,6.2274662 -13.8477035,13.96339 v 32.216103 c 0,7.735817 6.1758713,13.963389 13.8477035,13.963389 h 31.949194 c 7.671728,0 13.847705,-6.227465 13.847705,-13.963389 V 15.886533 c 0,-7.7358165 -6.175871,-13.96339 -13.847705,-13.96339 z" fill="url(#linearGradient910)" stroke-width="4.04222" id="path33" style="fill:#a27ae4" clip-path="url(#clipPath511)" transform="matrix(1.0679334,0,0,0.84396048,-2.2156187,4.6493407)"/>
  <circle cx="32.02" cy="32.044" r="0" fill="url(#b)" stroke-width="1.5715" id="circle41"/>
  <rect x="3.653568" y="8.9933929" width="56.867538" height="45.316406" rx="11.373961" ry="9.0636435" fill="url(#linearGradient862)" stroke-width="3.42603" id="rect35-3" style="opacity:0.25;fill:#a27ae4;fill-opacity:1"/>
  <rect style="fill:#a27ae4" id="rect578" width="45.670418" height="4.3641062" x="9.1231365" y="16.750412" rx="3.8377666" ry="2.1937101"/>
  <path id="path114" style="fill:#a27ae4;stroke-width:0.0673976" d="m 30.366847,28.811263 v 3.996078 3.99608 l -1.824313,0.0175 -1.825958,0.01925 2.753742,3.90681 c 1.514548,2.149149 2.763013,3.898697 2.773482,3.887557 0.01046,-0.01114 1.251712,-1.768804 2.758677,-3.90681 l 2.740583,-3.887557 -1.825958,-0.01925 -1.825958,-0.0175 v -3.99608 -3.996078 h -1.862149 z m -5.6177,15.919553 v 1.98141 1.981412 h 7.479848 7.481493 v -1.981412 -1.98141 h -7.481493 z"/>
</svg>
