<?xml version='1.0' encoding='UTF-8'?>
<svg xmlns="http://www.w3.org/2000/svg" width="512" height="512" viewBox="0 0 64 64" id="svg73">
  <defs id="defs29">
    <linearGradient id="b" x1="399.57" x2="399.57" y1="545.8" y2="517.8" gradientTransform="matrix(2.1429,0,0,2.1429,-826.36,-1107.5)" gradientUnits="userSpaceOnUse">
      <stop stop-color="#3889e9" offset="0" id="stop2" />
      <stop stop-color="#5ea5fb" offset="1" id="stop4" />
    </linearGradient>
    <linearGradient id="linearGradient862" x1="7.9373" x2="7.9373" y1="15.081" y2="1.852" gradientTransform="matrix(3.3743 0 0 3.3743 3.4312 3.4278)" gradientUnits="userSpaceOnUse">
      <stop stop-color="#f1efeb" offset="0" id="stop7" />
      <stop stop-color="#fff" offset="1" id="stop9" />
    </linearGradient>
    <linearGradient id="linearGradient910" x1="7.9373" x2="7.9373" y1="15.081" y2="1.852" gradientTransform="scale(3.7796)" gradientUnits="userSpaceOnUse">
      <stop stop-color="#613583" offset="0" id="stop12" />
      <stop stop-color="#a663c0" offset="1" id="stop14" />
    </linearGradient>
    <clipPath clipPathUnits="userSpaceOnUse" id="clipPath511">
      <rect x="5.4958358" y="5.147223" width="53.250076" height="53.694939" rx="10.650441" ry="10.739417" fill="url(#linearGradient862)" stroke-width="3.60876" id="rect513" style="display:none;fill:#333333;fill-opacity:1" d="m 16.146277,5.147223 h 31.949194 c 5.900344,0 10.650441,4.78978 10.650441,10.739417 v 32.216105 c 0,5.949637 -4.750097,10.739417 -10.650441,10.739417 H 16.146277 c -5.900344,0 -10.6504412,-4.78978 -10.6504412,-10.739417 V 15.88664 c 0,-5.949637 4.7500972,-10.739417 10.6504412,-10.739417 z" />
      <path id="lpe_path-effect515" style="fill:#333333;fill-opacity:1" class="powerclip" d="M -2.7017465,-3.076857 H 66.942856 V 67.066025 H -2.7017465 Z m 18.8480235,8.22408 c -5.900344,0 -10.6504412,4.78978 -10.6504412,10.739417 v 32.216105 c 0,5.949637 4.7500972,10.739417 10.6504412,10.739417 h 31.949194 c 5.900344,0 10.650441,-4.78978 10.650441,-10.739417 V 15.88664 c 0,-5.949637 -4.750097,-10.739417 -10.650441,-10.739417 z" />
    </clipPath>
    </defs>
  <g transform="translate(32.0000 32.0000) scale(0.850000) translate(-32.0000 -32.0000)"><path d="m 16.145957,1.923143 c -7.6717257,0 -13.8477035,6.2274662 -13.8477035,13.96339 v 32.216103 c 0,7.735817 6.1758713,13.963389 13.8477035,13.963389 h 31.949194 c 7.671728,0 13.847705,-6.227465 13.847705,-13.963389 V 15.886533 c 0,-7.7358165 -6.175871,-13.96339 -13.847705,-13.96339 z" fill="url(#linearGradient910)" stroke-width="4.04222" id="path33" style="fill:#a27ae4" clip-path="url(#clipPath511)" transform="matrix(1.0679334,0,0,0.84396048,-2.2156187,4.6493407)" />
  <circle cx="32.02" cy="32.044" r="0" fill="url(#b)" stroke-width="1.5715" id="circle41" />
  <rect x="3.653568" y="8.9933929" width="56.867538" height="45.316406" rx="11.373961" ry="9.0636435" fill="url(#linearGradient862)" stroke-width="3.42603" id="rect35-3" style="opacity:0.25;fill:#a27ae4;fill-opacity:1" />
  <rect style="fill:#a27ae4" id="rect578" width="45.670418" height="4.3641062" x="9.1231365" y="16.750412" rx="3.8377666" ry="2.1937101" />
  <path id="path133" style="fill:#a27ae4;stroke-width:0.0668241" d="m 30.600329,28.862385 c -3.017543,0 -4.542443,0.02333 -4.777718,0.07466 -0.459966,0.100335 -0.926813,0.557002 -1.040955,1.018071 -0.05658,0.228521 -0.07673,1.880802 -0.07673,6.047341 v 5.731741 h 0.463759 0.463759 v -0.505642 -0.503945 h 0.463759 0.463759 v -4.954613 -4.952916 h 3.810163 3.810163 v 1.988633 1.986935 h 1.8884 1.8884 v 6.435906 6.437602 h 0.430395 0.430395 v -0.505643 -0.505642 h 0.463759 0.463759 V 40.234238 33.811906 L 37.3899,31.337993 35.032737,28.862384 Z m -4.901164,12.939683 v 0.471706 0.471707 h 0.430394 0.430396 v -0.471707 -0.471706 h -0.430396 z m -0.994246,0.943413 v 0.471706 0.471706 h 0.463759 0.463759 v -0.471706 -0.471706 h -0.463759 z m 0.965886,0.161195 c -0.0093,-0.01362 -0.01668,0.10201 -0.01668,0.310511 0,0.278001 0.01239,0.391821 0.02669,0.252821 0.0143,-0.139001 0.0143,-0.366641 0,-0.505642 -0.0036,-0.03475 -0.0069,-0.05315 -0.01001,-0.05769 z m 0.02836,0.850088 v 0.471707 0.471706 h 0.430395 0.430396 V 44.228471 43.756764 H 26.12956 Z m -0.994246,1.011285 v 0.471706 0.471706 h 0.463759 0.463759 v -0.471706 -0.471706 h -0.463759 z m 0.994246,1.009587 v 0.439467 0.437771 h 0.430395 0.430396 V 46.217103 45.777636 H 26.12956 Z m -0.994246,0.945109 v 0.471707 0.471705 h 0.463759 0.463759 v -0.471705 -0.471707 h -0.463759 z m 1.921764,0 v 0.471707 0.471705 h 0.430395 0.430395 v -0.471705 -0.471707 h -0.430395 z m 1.855036,0 v 0.471707 0.471705 h 0.463758 0.463759 v -0.471705 -0.471707 h -0.463759 z m 1.921764,0 v 0.471707 0.471705 h 0.430394 0.430395 v -0.471705 -0.471707 h -0.430395 z m 1.855034,0 v 0.471707 0.471705 h 0.46376 0.463759 v -0.471705 -0.471707 h -0.463759 z m 1.921764,0 v 0.471707 0.471705 h 0.430396 0.430394 v -0.471705 -0.471707 h -0.430394 z m 1.855036,0 v 0.471707 0.471705 h 0.463759 0.463759 v -0.471705 -0.471707 h -0.463759 z m -10.336152,1.009587 v 0.471707 0.471706 h 0.430395 0.430396 V 48.204039 47.732332 H 26.12956 Z m 1.855036,0 v 0.471707 0.471706 h 0.430395 0.430394 v -0.471706 -0.471707 h -0.430394 z m 1.921763,0 v 0.471707 0.471706 h 0.430395 0.430395 v -0.471706 -0.471707 h -0.430395 z m 1.855036,0 v 0.471707 0.471706 h 0.430395 0.430395 v -0.471706 -0.471707 h -0.430395 z m 1.855036,0 v 0.471707 0.471706 h 0.463759 0.463759 v -0.471706 -0.471707 h -0.463759 z m 1.921763,0 v 0.471707 0.471706 h 0.430395 0.430395 v -0.471706 -0.471707 h -0.430395 z m 1.855036,0 v 0.471707 0.471706 h 0.463759 0.463758 v -0.471706 -0.471707 h -0.463758 z m 1.921763,0 v 0.471707 0.471706 h 0.430395 0.430396 V 48.204039 47.732332 H 39.31499 Z" />
</g></svg>