<svg xmlns:xlink="http://www.w3.org/1999/xlink" xmlns="http://www.w3.org/2000/svg" width="512" height="512" viewBox="0 0 64 64" id="svg73">
  <defs id="defs29">
    <linearGradient id="b" x1="399.57" x2="399.57" y1="545.8" y2="517.8" gradientTransform="matrix(2.1429,0,0,2.1429,-826.36,-1107.5)" gradientUnits="userSpaceOnUse">
      <stop stop-color="#3889e9" offset="0" id="stop2"/>
      <stop stop-color="#5ea5fb" offset="1" id="stop4"/>
    </linearGradient>
    <linearGradient id="linearGradient862" x1="7.9373" x2="7.9373" y1="15.081" y2="1.852" gradientTransform="matrix(3.3743 0 0 3.3743 3.4312 3.4278)" gradientUnits="userSpaceOnUse">
      <stop stop-color="#f1efeb" offset="0" id="stop7"/>
      <stop stop-color="#fff" offset="1" id="stop9"/>
    </linearGradient>
    <linearGradient id="linearGradient910" x1="7.9373" x2="7.9373" y1="15.081" y2="1.852" gradientTransform="scale(3.7796)" gradientUnits="userSpaceOnUse">
      <stop stop-color="#613583" offset="0" id="stop12"/>
      <stop stop-color="#a663c0" offset="1" id="stop14"/>
    </linearGradient>
    <clipPath clipPathUnits="userSpaceOnUse" id="clipPath511">
      <rect x="5.4958358" y="5.147223" width="53.250076" height="53.694939" rx="10.650441" ry="10.739417" fill="url(#linearGradient862)" stroke-width="3.60876" id="rect513" style="display:none;fill:#333333;fill-opacity:1" d="m 16.146277,5.147223 h 31.949194 c 5.900344,0 10.650441,4.78978 10.650441,10.739417 v 32.216105 c 0,5.949637 -4.750097,10.739417 -10.650441,10.739417 H 16.146277 c -5.900344,0 -10.6504412,-4.78978 -10.6504412,-10.739417 V 15.88664 c 0,-5.949637 4.7500972,-10.739417 10.6504412,-10.739417 z"/>
      <path id="lpe_path-effect515" style="fill:#333333;fill-opacity:1" class="powerclip" d="M -2.7017465,-3.076857 H 66.942856 V 67.066025 H -2.7017465 Z m 18.8480235,8.22408 c -5.900344,0 -10.6504412,4.78978 -10.6504412,10.739417 v 32.216105 c 0,5.949637 4.7500972,10.739417 10.6504412,10.739417 h 31.949194 c 5.900344,0 10.650441,-4.78978 10.650441,-10.739417 V 15.88664 c 0,-5.949637 -4.750097,-10.739417 -10.650441,-10.739417 z"/>
    </clipPath>
    </defs>
  <path d="m 16.145957,1.923143 c -7.6717257,0 -13.8477035,6.2274662 -13.8477035,13.96339 v 32.216103 c 0,7.735817 6.1758713,13.963389 13.8477035,13.963389 h 31.949194 c 7.671728,0 13.847705,-6.227465 13.847705,-13.963389 V 15.886533 c 0,-7.7358165 -6.175871,-13.96339 -13.847705,-13.96339 z" fill="url(#linearGradient910)" stroke-width="4.04222" id="path33" style="fill:#a27ae4" clip-path="url(#clipPath511)" transform="matrix(1.0679334,0,0,0.84396048,-2.2156187,4.6493407)"/>
  <circle cx="32.02" cy="32.044" r="0" fill="url(#b)" stroke-width="1.5715" id="circle41"/>
  <rect x="3.653568" y="8.9933929" width="56.867538" height="45.316406" rx="11.373961" ry="9.0636435" fill="url(#linearGradient862)" stroke-width="3.42603" id="rect35-3" style="opacity:0.25;fill:#a27ae4;fill-opacity:1"/>
  <rect style="fill:#a27ae4" id="rect578" width="45.670418" height="4.3641062" x="9.1231365" y="16.750412" rx="3.8377666" ry="2.1937101"/>
  <path id="path133" style="fill:#a27ae4;stroke-width:0.0724357" d="m 31.775684,30.180715 c -0.541535,0 -1.082061,0.04978 -1.511719,0.14815 -2.404314,0.550505 -4.133004,2.191282 -4.457031,4.231647 -0.05322,0.335143 -0.115451,0.491938 -0.212891,0.539812 -0.501647,0.246496 -0.797871,0.716395 -0.798828,1.261831 -6.7e-4,0.381727 0.280357,1.071606 0.583984,1.430416 0.296382,0.350247 0.895051,0.723723 1.160157,0.723723 0.261625,0 0.395397,0.143118 0.492187,0.529594 0.443506,1.770875 1.95878,3.304903 3.697266,3.741219 2.398065,0.601851 4.955988,-1.012499 5.74414,-3.623721 l 0.164063,-0.54492 0.4375,-0.122607 c 0.805558,-0.22564 1.526883,-1.060693 1.648437,-1.908924 0.09649,-0.673359 -0.267299,-1.334121 -0.818359,-1.486611 -0.122767,-0.03397 -0.155342,-0.102006 -0.15625,-0.325249 -0.0028,-0.689695 -0.432519,-1.700978 -1.035156,-2.436816 -0.812196,-0.991712 -1.984083,-1.679742 -3.423828,-2.009394 -0.429658,-0.09838 -0.972137,-0.14815 -1.513672,-0.14815 z m 3.728515,13.255188 -0.416015,0.367821 c -0.501792,0.444545 -1.46466,0.959193 -2.136719,1.140926 -0.664595,0.179712 -1.683554,0.17943 -2.349609,0 -0.66976,-0.180428 -1.330157,-0.538245 -1.902344,-1.030239 l -0.478516,-0.410393 -1.228515,0.182207 c -3.670061,0.5456 -6.039312,1.149659 -6.667969,1.697768 l -0.185547,0.16007 v 1.731825 1.730122 l 0.191406,0.166882 0.189453,0.165179 h 11.25586 11.255859 l 0.189453,-0.165179 0.191407,-0.166882 -0.002,-1.677333 c -0.002,-1.20159 -0.03089,-1.719364 -0.09961,-1.827186 -0.39435,-0.618751 -2.670449,-1.264792 -6.626953,-1.881678 z"/>
</svg>
