<svg xmlns:xlink="http://www.w3.org/1999/xlink" xmlns="http://www.w3.org/2000/svg" width="512" height="512" viewBox="0 0 64 64" id="svg73">
  <defs id="defs29">
    <linearGradient id="b" x1="399.57" x2="399.57" y1="545.8" y2="517.8" gradientTransform="matrix(2.1429,0,0,2.1429,-826.36,-1107.5)" gradientUnits="userSpaceOnUse">
      <stop stop-color="#3889e9" offset="0" id="stop2"/>
      <stop stop-color="#5ea5fb" offset="1" id="stop4"/>
    </linearGradient>
    <linearGradient id="linearGradient862" x1="7.9373" x2="7.9373" y1="15.081" y2="1.852" gradientTransform="matrix(3.3743 0 0 3.3743 3.4312 3.4278)" gradientUnits="userSpaceOnUse">
      <stop stop-color="#f1efeb" offset="0" id="stop7"/>
      <stop stop-color="#fff" offset="1" id="stop9"/>
    </linearGradient>
    <linearGradient id="linearGradient910" x1="7.9373" x2="7.9373" y1="15.081" y2="1.852" gradientTransform="scale(3.7796)" gradientUnits="userSpaceOnUse">
      <stop stop-color="#613583" offset="0" id="stop12"/>
      <stop stop-color="#a663c0" offset="1" id="stop14"/>
    </linearGradient>
    <clipPath clipPathUnits="userSpaceOnUse" id="clipPath511">
      <rect x="5.4958358" y="5.147223" width="53.250076" height="53.694939" rx="10.650441" ry="10.739417" fill="url(#linearGradient862)" stroke-width="3.60876" id="rect513" style="display:none;fill:#333333;fill-opacity:1" d="m 16.146277,5.147223 h 31.949194 c 5.900344,0 10.650441,4.78978 10.650441,10.739417 v 32.216105 c 0,5.949637 -4.750097,10.739417 -10.650441,10.739417 H 16.146277 c -5.900344,0 -10.6504412,-4.78978 -10.6504412,-10.739417 V 15.88664 c 0,-5.949637 4.7500972,-10.739417 10.6504412,-10.739417 z"/>
      <path id="lpe_path-effect515" style="fill:#333333;fill-opacity:1" class="powerclip" d="M -2.7017465,-3.076857 H 66.942856 V 67.066025 H -2.7017465 Z m 18.8480235,8.22408 c -5.900344,0 -10.6504412,4.78978 -10.6504412,10.739417 v 32.216105 c 0,5.949637 4.7500972,10.739417 10.6504412,10.739417 h 31.949194 c 5.900344,0 10.650441,-4.78978 10.650441,-10.739417 V 15.88664 c 0,-5.949637 -4.750097,-10.739417 -10.650441,-10.739417 z"/>
    </clipPath>
    </defs>
  <path d="m 16.145957,1.923143 c -7.6717257,0 -13.8477035,6.2274662 -13.8477035,13.96339 v 32.216103 c 0,7.735817 6.1758713,13.963389 13.8477035,13.963389 h 31.949194 c 7.671728,0 13.847705,-6.227465 13.847705,-13.963389 V 15.886533 c 0,-7.7358165 -6.175871,-13.96339 -13.847705,-13.96339 z" fill="url(#linearGradient910)" stroke-width="4.04222" id="path33" style="fill:#a27ae4" clip-path="url(#clipPath511)" transform="matrix(1.0679334,0,0,0.84396048,-2.2156187,4.6493407)"/>
  <circle cx="32.02" cy="32.044" r="0" fill="url(#b)" stroke-width="1.5715" id="circle41"/>
  <rect x="3.653568" y="8.9933929" width="56.867538" height="45.316406" rx="11.373961" ry="9.0636435" fill="url(#linearGradient862)" stroke-width="3.42603" id="rect35-3" style="opacity:0.25;fill:#a27ae4;fill-opacity:1"/>
  <rect style="fill:#a27ae4" id="rect578" width="45.670418" height="4.3641062" x="9.1231365" y="16.750412" rx="3.8377666" ry="2.1937101"/>
  <path style="fill:#a27ae4;stroke-width:0.073785" d="m 21.320735,48.529086 c -0.550421,-0.211098 -0.905594,-0.601905 -1.045832,-1.150757 -0.0541,-0.211741 -0.07809,-2.794037 -0.07837,-8.435284 -4.49e-4,-9.172384 -0.0297,-8.661439 0.527436,-9.210462 0.172462,-0.169948 0.437352,-0.345741 0.588646,-0.390651 0.189569,-0.05627 3.482139,-0.08179 10.591935,-0.08209 l 10.316855,-4.26e-4 0.387005,0.209799 c 0.253467,0.137405 0.461029,0.323937 0.601532,0.540584 l 0.214529,0.330787 0.01769,8.518867 0.01769,8.518869 -0.213519,0.397049 c -0.147896,0.27502 -0.317824,0.462594 -0.552902,0.61032 l -0.339382,0.213272 -10.383173,0.01625 c -8.535366,0.01336 -10.430682,-0.002 -10.650132,-0.08614 z m 19.855832,-3.51716 V 43.751728 L 39.460969,41.369072 C 38.51739,40.05861 37.72081,38.977196 37.690791,38.965928 c -0.03002,-0.01127 -0.833934,1.063205 -1.786476,2.387716 l -1.731897,2.408201 -2.545856,-2.658607 c -1.400221,-1.462234 -2.971893,-3.100103 -3.492605,-3.639709 l -0.946747,-0.9811 -0.622869,0.641671 c -0.342577,0.35292 -1.401763,1.452777 -2.353745,2.444127 l -1.730876,1.802455 v 2.45072 2.45072 h 9.348423 9.348424 z" id="path133-3"/>
</svg>
