<?xml version='1.0' encoding='UTF-8'?>
<svg xmlns="http://www.w3.org/2000/svg" width="512" height="512" viewBox="0 0 64 64" id="svg73">
  <defs id="defs29">
    <linearGradient id="b" x1="399.57" x2="399.57" y1="545.8" y2="517.8" gradientTransform="matrix(2.1429,0,0,2.1429,-826.36,-1107.5)" gradientUnits="userSpaceOnUse">
      <stop stop-color="#3889e9" offset="0" id="stop2" />
      <stop stop-color="#5ea5fb" offset="1" id="stop4" />
    </linearGradient>
    <linearGradient id="linearGradient862" x1="7.9373" x2="7.9373" y1="15.081" y2="1.852" gradientTransform="matrix(3.3743 0 0 3.3743 3.4312 3.4278)" gradientUnits="userSpaceOnUse">
      <stop stop-color="#f1efeb" offset="0" id="stop7" />
      <stop stop-color="#fff" offset="1" id="stop9" />
    </linearGradient>
    <linearGradient id="linearGradient910" x1="7.9373" x2="7.9373" y1="15.081" y2="1.852" gradientTransform="scale(3.7796)" gradientUnits="userSpaceOnUse">
      <stop stop-color="#613583" offset="0" id="stop12" />
      <stop stop-color="#a663c0" offset="1" id="stop14" />
    </linearGradient>
    <clipPath clipPathUnits="userSpaceOnUse" id="clipPath511">
      <rect x="5.4958358" y="5.147223" width="53.250076" height="53.694939" rx="10.650441" ry="10.739417" fill="url(#linearGradient862)" stroke-width="3.60876" id="rect513" style="display:none;fill:#333333;fill-opacity:1" d="m 16.146277,5.147223 h 31.949194 c 5.900344,0 10.650441,4.78978 10.650441,10.739417 v 32.216105 c 0,5.949637 -4.750097,10.739417 -10.650441,10.739417 H 16.146277 c -5.900344,0 -10.6504412,-4.78978 -10.6504412,-10.739417 V 15.88664 c 0,-5.949637 4.7500972,-10.739417 10.6504412,-10.739417 z" />
      <path id="lpe_path-effect515" style="fill:#333333;fill-opacity:1" class="powerclip" d="M -2.7017465,-3.076857 H 66.942856 V 67.066025 H -2.7017465 Z m 18.8480235,8.22408 c -5.900344,0 -10.6504412,4.78978 -10.6504412,10.739417 v 32.216105 c 0,5.949637 4.7500972,10.739417 10.6504412,10.739417 h 31.949194 c 5.900344,0 10.650441,-4.78978 10.650441,-10.739417 V 15.88664 c 0,-5.949637 -4.750097,-10.739417 -10.650441,-10.739417 z" />
    </clipPath>
    <clipPath clipPathUnits="userSpaceOnUse" id="clipPath293">
      <path style="display:none;fill:#4d4d4d;stroke-width:0.788458" d="m 19.044381,26.380231 c 0,0 3.021789,-4.291444 8.926101,-4.735445 v -1.556888 c -6.539814,0.516621 -12.267638,5.964807 -12.267638,5.964807 0,0 3.272328,9.120553 12.267638,9.955639 v -1.654965 c -6.601304,-0.818055 -8.926266,-7.973756 -8.926266,-7.973756 z m 8.926101,4.681768 v 1.515592 c -4.989164,-0.874893 -6.438716,-5.976211 -6.438716,-5.976211 0,0 2.460206,-2.610173 6.438716,-3.033494 v 1.663023 c -0.0024,0 -0.004,-8.66e-4 -0.0064,-8.66e-4 -2.08803,-0.246482 -3.784032,1.672299 -3.784032,1.672299 0,0 0.979025,3.230101 3.791719,4.159613 m 0,-13.845963 v 2.871709 c 0.191974,-0.01444 0.319238,-0.02661 0.51226,-0.03309 7.435012,-0.246481 12.279445,5.997956 12.279445,5.997956 0,0 -5.563993,6.654832 -11.360698,6.654832 -0.531264,0 -0.963883,-0.04849 -1.431041,-0.12987 v 1.775849 c 0.39947,0.04981 0.748915,0.07923 1.181108,0.07923 5.394243,0 9.295073,-2.70977 13.072432,-5.916759 0.626279,0.493357 3.190265,1.693586 3.717342,2.218936 -3.591418,2.957619 -11.961693,5.34184 -16.706861,5.34184 -0.457411,0 -0.831958,-0.02722 -1.263759,-0.06818 v 2.495372 h 20.437795 v -21.28764 h -20.43781 z m 0,6.351939 v -1.923037 c 0.190012,-0.01095 0.316735,-0.02305 0.51226,-0.0292 5.34649,-0.165193 8.854179,4.519222 8.854179,4.519222 0,0 -3.788644,5.175643 -7.85072,5.175643 -0.58461,0 -1.044049,-0.09239 -1.515786,-0.248428 V 25.23114 c 2.08149,0.247394 2.435578,1.151754 3.686958,3.203643 l 2.783059,-2.308344 c 0,0 -2.03161,-2.620818 -5.456387,-2.620818 -0.372273,-1.24e-4 -0.66376,0.02565 -1.013563,0.06228" id="path295" />
      <path id="lpe_path-effect301" style="fill:#4d4d4d;stroke-width:0.788458" class="powerclip" d="M 10.790871,7.1339645 H 53.393494 V 47.695625 H 10.790871 Z m 8.25351,19.2462665 c 0,0 3.021789,-4.291444 8.926101,-4.735445 v -1.556888 c -6.539814,0.516621 -12.267638,5.964807 -12.267638,5.964807 0,0 3.272328,9.120553 12.267638,9.955639 v -1.654965 c -6.601304,-0.818055 -8.926266,-7.973756 -8.926266,-7.973756 z m 8.927388,4.681724 c -2.812694,-0.929512 -3.791719,-4.159613 -3.791719,-4.159613 0,0 1.696002,-1.918781 3.784032,-1.672299 0.0024,0 0.004,8.66e-4 0.0064,8.66e-4 v -1.663023 c -3.97851,0.423321 -6.438716,3.033494 -6.438716,3.033494 0,0 1.449552,5.101318 6.438716,5.976211 v -1.515592 m 0.0013,-13.846007 v 2.871709 c 0.191974,-0.01444 0.319238,-0.02661 0.51226,-0.03309 7.435012,-0.246481 12.279445,5.997956 12.279445,5.997956 0,0 -5.563993,6.654832 -11.360698,6.654832 -0.531264,0 -0.963883,-0.04849 -1.431041,-0.12987 v 1.775849 c 0.39947,0.04981 0.748915,0.07923 1.181108,0.07923 5.394243,0 9.295073,-2.70977 13.072432,-5.916759 0.626279,0.493357 3.190265,1.693586 3.717342,2.218936 -3.591418,2.957619 -11.961693,5.34184 -16.706861,5.34184 -0.457411,0 -0.831958,-0.02722 -1.263759,-0.06818 v 2.495372 h 20.437795 v -21.28764 h -20.43781 z m 0,6.351909 c 0.349803,-0.03663 0.64129,-0.0624 1.013563,-0.06228 3.424777,0 5.456387,2.620818 5.456387,2.620818 L 31.65866,28.434783 C 30.40728,26.382894 30.053192,25.478534 27.971702,25.23114 v 5.830991 c 0.471737,0.156038 0.931176,0.248428 1.515786,0.248428 4.062076,0 7.85072,-5.175643 7.85072,-5.175643 0,0 -3.507689,-4.684415 -8.854179,-4.519222 -0.195525,0.0061 -0.322248,0.01825 -0.51226,0.0292 v 1.923037" />
    </clipPath>
    </defs>
  <g transform="translate(32.0000 32.0000) scale(0.850000) translate(-32.0000 -32.0000)"><path d="m 16.145957,1.923143 c -7.6717257,0 -13.8477035,6.2274662 -13.8477035,13.96339 v 32.216103 c 0,7.735817 6.1758713,13.963389 13.8477035,13.963389 h 31.949194 c 7.671728,0 13.847705,-6.227465 13.847705,-13.963389 V 15.886533 c 0,-7.7358165 -6.175871,-13.96339 -13.847705,-13.96339 z" fill="url(#linearGradient910)" stroke-width="4.04222" id="path33" style="fill:#a27ae4" clip-path="url(#clipPath511)" transform="matrix(1.0679334,0,0,1.0549506,-2.2076788,-1.7753672)" />
  <circle cx="32.02" cy="32.044" r="0" fill="url(#b)" stroke-width="1.5715" id="circle41" />
  <rect x="3.6615078" y="3.6546981" width="56.867538" height="56.645508" rx="11.373961" ry="11.329555" fill="url(#linearGradient862)" stroke-width="3.83042" id="rect35-3" style="opacity:0.25;fill:#a27ae4;fill-opacity:1" />
  <path fill-opacity="0" stroke-width="0.82673" id="circle39" style="fill:#4d4d4d" clip-path="url(#clipPath293)" d="M 48.393494,27.414795 A 16.301311,15.28083 0 0 1 32.092182,42.695625 16.301311,15.28083 0 0 1 15.790871,27.414795 16.301311,15.28083 0 0 1 32.092182,12.133965 16.301311,15.28083 0 0 1 48.393494,27.414795 Z" />
  <path style="color:#444444;fill:#a27ae4;stroke-width:2.48832" class="ColorScheme-Text" d="m 17.342088,13.585929 c -1.378529,0 -2.48832,1.109791 -2.48832,2.48832 v 7.46496 h 34.83648 v -7.46496 c 0,-1.378529 -1.109791,-2.48832 -2.48832,-2.48832 z m 14.92992,2.48832 h 2.48832 v 4.97664 h -2.48832 z m 4.97664,0 h 2.48832 v 4.97664 h -2.48832 z m 4.97664,0 h 2.48832 v 4.97664 h -2.48832 z m -27.37152,9.95328 v 9.95328 h 34.83648 v -9.95328 z m 17.41824,2.48832 h 2.48832 v 4.97664 h -2.48832 z m 4.97664,0 h 2.48832 v 4.97664 h -2.48832 z m 4.97664,0 h 2.48832 v 4.97664 h -2.48832 z m -27.37152,9.95328 v 7.46496 c 0,1.378529 1.109791,2.48832 2.48832,2.48832 h 12.4416 v 4.97664 h 4.97664 v -4.97664 h 12.4416 c 1.378529,0 2.48832,-1.109791 2.48832,-2.48832 v -7.46496 z m 17.41824,2.48832 h 2.48832 v 4.97664 h -2.48832 z m 4.97664,0 h 2.48832 v 4.97664 h -2.48832 z m 4.97664,0 h 2.48832 v 4.97664 h -2.48832 z" id="path5" />
</g></svg>