<svg xmlns="http://www.w3.org/2000/svg" width="512" height="512" viewBox="0 0 64 64" id="svg73">
  <defs id="defs29">
    <linearGradient id="linearGradient862" x1="7.9373" x2="7.9373" y1="15.081" y2="1.852" gradientTransform="matrix(3.3743 0 0 3.3743 3.4312 3.4278)" gradientUnits="userSpaceOnUse">
      <stop stop-color="#f1efeb" offset="0" id="stop7"/>
      <stop stop-color="#fff" offset="1" id="stop9"/>
    </linearGradient>
    <clipPath clipPathUnits="userSpaceOnUse" id="clipPath1976">
      <path id="lpe_path-effect1980" d="M 2.075,2.246 H 60.624 V 62.217 H 2.075 Z M 18.347,9.925 C 13.544,9.925 9.678,13.905 9.678,18.848 V 45.615 C 9.678,50.558 13.544,54.538 18.347,54.538 H 44.352 C 49.155,54.538 53.021,50.558 53.021,45.615 V 18.848 C 53.021,13.905 49.155,9.925 44.352,9.925 Z"/>
    </clipPath>
  </defs>

  <path d="M 18.347,7.246 C 12.103,7.246 7.076,12.42 7.076,18.848 V 45.615 C 7.076,52.042 12.103,57.217 18.347,57.217 H 44.352 C 50.596,57.217 55.623,52.042 55.623,45.615 V 18.848 C 55.623,12.42 50.596,7.246 44.352,7.246 Z" fill="#a27ae4" id="path33"/>

  <rect x="9.678" y="9.925" width="43.343" height="44.613" rx="8.669" ry="8.923" fill="#222222" opacity="0.75" id="rect35-7"/>

  <path fill="#a27ae4" d="M 31.882,20.543 C 29.671,20.543 27.882,22.343 27.882,24.543 V 32.543 C 27.882,34.743 29.672,36.543 31.882,36.543 C 34.092,36.543 35.882,34.743 35.882,32.543 V 24.543 C 35.882,22.343 34.093,20.543 31.882,20.543 Z M 31.882,22.543 C 32.986,22.543 33.882,23.343 33.882,24.543 C 33.882,25.543 32.986,26.543 31.882,26.543 C 30.778,26.543 29.882,25.543 29.882,24.543 C 29.882,23.343 30.778,22.543 31.882,22.543 Z M 31.882,28.543 C 32.987,28.543 33.882,29.438 33.882,30.543 V 32.543 C 33.882,33.648 32.987,34.543 31.882,34.543 C 30.777,34.543 29.882,33.648 29.882,32.543 V 30.543 C 29.882,29.438 30.777,28.543 31.882,28.543 Z" id="zipper-base"/>
  <path fill="#a27ae4" d="M 30.882,14.543 H 31.882 V 13.543 H 30.882 Z M 31.882,14.543 V 15.543 H 32.882 V 14.543 Z M 31.882,15.543 H 30.882 V 16.543 H 31.882 Z M 31.882,16.543 V 17.543 H 32.882 V 16.543 Z M 31.882,17.543 H 30.882 V 18.543 H 31.882 Z M 31.882,18.543 V 19.543 H 32.882 V 18.543 Z M 31.882,19.543 H 30.882 V 20.543 H 31.882 Z M 31.882,20.543 C 31.758,22.135 32.883,21.349 32.882,20.543 Z" id="zipper-teeth-1"/>
  <path fill="#a27ae4" d="M 31.882,9.543 C 10.627,3.181 21.255,6.362 31.882,9.543 Z M 31.882,9.543 H 30.882 C 30.805,10.612 30.878,10.543 31.882,10.543 Z M 31.882,10.543 V 11.543 H 32.882 V 10.543 Z M 31.882,11.543 H 30.882 V 12.543 H 31.882 Z M 31.882,12.543 V 13.543 H 32.882 V 12.543 Z M 31.882,13.543 C 10.567,5.79 21.224,9.666 31.882,13.543 Z" id="zipper-teeth-2"/>
</svg>
