<?xml version='1.0' encoding='UTF-8'?>
<svg xmlns="http://www.w3.org/2000/svg" width="512" height="512" viewBox="0 0 64 64" id="svg73">
  <defs id="defs47">
    <linearGradient id="linearGradient6261">
      <stop offset="0" id="stop3" />
      <stop stop-opacity="0" offset="1" id="stop5" />
    </linearGradient>
    <linearGradient id="linearGradient6761-7" x1="21.039" x2="21.039" y1="2" y2="62" gradientTransform="matrix(.26458 0 0 .26458 0 -.26458)" gradientUnits="userSpaceOnUse">
      <stop stop-color="#ff5b59" offset="0" id="stop27" />
      <stop stop-color="#ff983d" offset="1" id="stop29" />
    </linearGradient>
    <clipPath clipPathUnits="userSpaceOnUse" id="clipPath375">
      <path d="m 3.665341,1.219379 c -0.2531701,0 -0.4569933,0.2091037 -0.4569933,0.4688332 V 14.815114 c 0,0.259739 0.2038232,0.468835 0.4569933,0.468835 h 9.596549 c 0.25318,0 0.456993,-0.209104 0.456993,-0.468835 V 5.6725323 c 0,-0.2344169 -0.139155,-0.6115936 -0.456993,-0.937649 L 10.291467,1.6875034 C 9.9857202,1.2905865 9.6059779,1.2186703 9.3774984,1.2186703 Z" fill="url(#linearGradient6761-7)" stroke-width="0.231438" id="path377" style="display:none;fill:#333333" />
      <path id="lpe_path-effect379" style="fill:#333333" class="powerclip" d="M -2.61876,-4.73622 H 19.55156 V 21.1389 H -2.61876 Z m 6.284101,5.955599 c -0.2531701,0 -0.4569933,0.2091037 -0.4569933,0.4688332 V 14.815114 c 0,0.259739 0.2038232,0.468835 0.4569933,0.468835 h 9.596549 c 0.25318,0 0.456993,-0.209104 0.456993,-0.468835 V 5.6725323 c 0,-0.2344169 -0.139155,-0.6115936 -0.456993,-0.937649 L 10.291467,1.6875034 C 9.9857202,1.2905865 9.6059779,1.2186703 9.3774984,1.2186703 Z" />
    </clipPath>
  </defs>
  <g transform="translate(32.0000 32.0000) scale(1.026415) translate(-32.0000 -32.0000)"><g transform="matrix(3.7796 0 0 3.7796 -.021092 1.0245)" id="g121">
    <path d="m 2.9104,0.26458 c -0.29315,0 -0.52916,0.23601 -0.52916,0.52916 v 14.816 c 0,0.29316 0.23601,0.52916 0.52916,0.52916 h 11.112 c 0.29316,0 0.52916,-0.23601 0.52916,-0.52916 v -10.319 c 0,-0.26458 -0.16113,-0.69029 -0.52916,-1.0583 L 10.5829,0.79294 C 10.22887,0.34495 9.78916,0.26378 9.5246,0.26378 Z" fill="url(#linearGradient6761-7)" stroke-width="0.26458" id="path93" style="fill:#a27ae4" clip-path="url(#clipPath375)" transform="matrix(1,0,0,0.88113981,0,1.0428615)" />
    <path d="m 3.665341,2.1173049 c -0.25317,0 -0.456993,0.1842496 -0.456993,0.4131075 V 14.097048 c 0,0.228866 0.203823,0.41311 0.456993,0.41311 h 9.596549 c 0.25318,0 0.456993,-0.18425 0.456993,-0.41311 V 6.0411555 c 0,-0.206554 -0.139155,-0.5388995 -0.456993,-0.8261997 L 10.291467,2.529788 C 9.98572,2.1800487 9.605978,2.1166804 9.377498,2.1166804 Z" fill="url(#linearGradient6761-7)" stroke-width="0.217248" id="path93-3-3" style="opacity:0.25;fill:#a27ae4" />
    <path fill="#a27ae4" d="m 5.4216899,7.9481069 c 0,0 2.1363892,-1.4973054 2.1363892,-1.4973054 C 6.8459494,5.9508179 5.4216899,4.950853 5.4216899,4.950853 5.2684457,4.8432613 5.2345649,4.6361111 5.3460155,4.4881708 5.4574657,4.3402328 5.6720432,4.3075252 5.8252876,4.4151169 l 2.5160308,1.7664937 c 0.1883949,0.1322709 0.1883949,0.4034653 0,0.5357361 L 5.8252876,8.4838406 C 5.6720432,8.5914345 5.4574657,8.5587247 5.3460155,8.4107865 5.2345649,8.2628463 5.2684457,8.0556984 5.4216899,7.9481069 Z M 11.341812,9.4301153 8.1395913,9.4308297 C 7.9501048,9.4308683 7.7964639,9.2826079 7.7964244,9.0996798 7.7963864,8.9167544 7.9499615,8.7684315 8.1394479,8.7683932 l 3.2022211,-7.144e-4 c 0.189486,-3.6e-5 0.343127,0.148222 0.343166,0.3311498 3.8e-5,0.1829258 -0.153536,0.3312486 -0.343023,0.3312867 z" id="path42" style="fill:#a27ae4;stroke-width:0.0421379" />
  </g>
</g></svg>