<svg xmlns="http://www.w3.org/2000/svg" width="512" height="512" viewBox="0 0 64 64" id="svg73">
  <path d="M 11,3 C 9,3 7,5 7,7 L 7,57 C 7,59 9,61 11,61 L 53,61 C 55,61 57,59 57,57 L 57,19 L 41,3 Z" fill="#a27ae4" id="document-base"/>
  <path d="M 13,5 C 11,5 9,7 9,9 L 9,55 C 9,57 11,59 13,59 L 51,59 C 53,59 55,57 55,55 L 55,20 L 40,5 Z" fill="#222222" opacity="0.75" id="document-inner"/>

  <path fill="#a27ae4" d="M 16,22 C 14.5,22 13.2,23.4 13.2,24.8 L 13.2,41.2 C 13.2,42.6 14.5,44 16,44 L 48,44 C 49.5,44 50.8,42.6 50.8,41.2 L 50.8,24.8 C 50.8,23.4 49.5,22 48,22 Z M 16,24.8 L 48,24.8 L 48,41.2 L 16,41.2 Z M 18.8,27.5 L 18.8,38.5 L 21.6,38.5 L 21.6,32.5 L 24.4,36.8 L 27.2,32.5 L 27.2,38.5 L 30,38.5 L 30,27.5 L 27.2,27.5 L 24.4,31.9 L 21.6,27.5 Z M 35.6,27.5 L 35.6,33 L 32.8,33 L 37,38.5 L 41.2,33 L 38.4,33 L 38.4,27.5 Z" id="markdown-centered-logo"/>
</svg>
