<svg xmlns:xlink="http://www.w3.org/1999/xlink" xmlns="http://www.w3.org/2000/svg" width="512" height="512" viewBox="0 0 64 64" id="svg73">
  <defs id="defs47">
    <linearGradient id="linearGradient6261">
      <stop offset="0" id="stop3"/>
      <stop stop-opacity="0" offset="1" id="stop5"/>
    </linearGradient>
    <linearGradient id="linearGradient6761-7" x1="21.039" x2="21.039" y1="2" y2="62" gradientTransform="matrix(.26458 0 0 .26458 0 -.26458)" gradientUnits="userSpaceOnUse">
      <stop stop-color="#ff5b59" offset="0" id="stop27"/>
      <stop stop-color="#ff983d" offset="1" id="stop29"/>
    </linearGradient>
    <clipPath clipPathUnits="userSpaceOnUse" id="clipPath375">
      <path d="m 3.665341,1.219379 c -0.2531701,0 -0.4569933,0.2091037 -0.4569933,0.4688332 V 14.815114 c 0,0.259739 0.2038232,0.468835 0.4569933,0.468835 h 9.596549 c 0.25318,0 0.456993,-0.209104 0.456993,-0.468835 V 5.6725323 c 0,-0.2344169 -0.139155,-0.6115936 -0.456993,-0.937649 L 10.291467,1.6875034 C 9.9857202,1.2905865 9.6059779,1.2186703 9.3774984,1.2186703 Z" fill="url(#linearGradient6761-7)" stroke-width="0.231438" id="path377" style="display:none;fill:#333333"/>
      <path id="lpe_path-effect379" style="fill:#333333" class="powerclip" d="M -2.61876,-4.73622 H 19.55156 V 21.1389 H -2.61876 Z m 6.284101,5.955599 c -0.2531701,0 -0.4569933,0.2091037 -0.4569933,0.4688332 V 14.815114 c 0,0.259739 0.2038232,0.468835 0.4569933,0.468835 h 9.596549 c 0.25318,0 0.456993,-0.209104 0.456993,-0.468835 V 5.6725323 c 0,-0.2344169 -0.139155,-0.6115936 -0.456993,-0.937649 L 10.291467,1.6875034 C 9.9857202,1.2905865 9.6059779,1.2186703 9.3774984,1.2186703 Z"/>
    </clipPath>
  </defs>
  <g transform="matrix(3.7796 0 0 3.7796 -.021092 1.0245)" id="g121">
    <path d="m 2.9104,0.26458 c -0.29315,0 -0.52916,0.23601 -0.52916,0.52916 v 14.816 c 0,0.29316 0.23601,0.52916 0.52916,0.52916 h 11.112 c 0.29316,0 0.52916,-0.23601 0.52916,-0.52916 v -10.319 c 0,-0.26458 -0.16113,-0.69029 -0.52916,-1.0583 L 10.5829,0.79294 C 10.22887,0.34495 9.78916,0.26378 9.5246,0.26378 Z" fill="url(#linearGradient6761-7)" stroke-width="0.26458" id="path93" style="fill:#a27ae4" clip-path="url(#clipPath375)" transform="matrix(1,0,0,0.88113981,0,1.0428615)"/>
    <path d="m 3.665341,2.1173049 c -0.25317,0 -0.456993,0.1842496 -0.456993,0.4131075 V 14.097048 c 0,0.228866 0.203823,0.41311 0.456993,0.41311 h 9.596549 c 0.25318,0 0.456993,-0.18425 0.456993,-0.41311 V 6.0411555 c 0,-0.206554 -0.139155,-0.5388995 -0.456993,-0.8261997 L 10.291467,2.529788 C 9.98572,2.1800487 9.605978,2.1166804 9.377498,2.1166804 Z" fill="url(#linearGradient6761-7)" stroke-width="0.217248" id="path93-3-3" style="opacity:0.25;fill:#a27ae4"/>
    <path id="path128" style="opacity:1;fill:#a27ae4;stroke-width:0.0210348" d="M 8.4704227,5.7484684 C 8.3036844,5.7482406 8.1373647,5.7645071 8.0161955,5.7970434 7.5917405,5.9110166 7.2558455,6.1642047 7.1051576,6.4843267 7.0191188,6.667105 7.0028401,6.7886181 7.0028401,7.2444725 V 7.6516748 H 6.5331103 c -0.537427,0 -0.6077395,0.013232 -0.8138883,0.1508924 C 5.4945615,7.9525897 5.3151504,8.2278019 5.2138363,8.577182 5.1486793,8.8018764 5.1323833,9.3007115 5.1823143,9.5471305 5.2976085,10.11613 5.6348109,10.536352 6.0401265,10.616294 c 0.049185,0.0097 0.2235697,0.01888 0.3875659,0.02015 l 0.2981673,0.0021 0.00775,-0.541558 C 6.7406297,9.5911895 6.7443647,9.5476835 6.7894207,9.4345108 6.8478367,9.2877786 6.9926887,9.132601 7.1392635,9.0603804 l 0.105418,-0.051675 1.1461613,-0.010853 c 1.1333808,-0.010435 1.147345,-0.010805 1.2334932,-0.05688 0.047926,-0.025632 0.1209144,-0.086053 0.1622604,-0.134356 0.140821,-0.1645172 0.142423,-0.179746 0.13539,-1.2107557 -0.0062,-0.9081722 -0.0066,-0.9240244 -0.05426,-1.0360927 C 9.7115494,6.1921635 9.3732923,5.9185552 8.9262008,5.7980718 8.8042315,5.765204 8.6371617,5.7486912 8.4704235,5.7484634 Z M 7.6834058,6.5427199 c 0.013909,7.673e-4 0.027599,0.00282 0.04134,0.00568 0.2158077,0.044924 0.3682156,0.2462187 0.3436416,0.4537105 C 8.0527724,7.1339618 7.98944,7.238543 7.8828729,7.3090655 7.7451142,7.4002307 7.5637341,7.3940214 7.4219279,7.2930453 7.3500697,7.2418777 7.2556804,7.0637414 7.255533,6.9788586 7.2551361,6.7473233 7.4747803,6.5310957 7.6834058,6.5427178 Z m 2.5165932,1.1053376 v 0.5043523 c 0,0.4466317 -0.0047,0.5204776 -0.04237,0.6423259 -0.06057,0.1961086 -0.1731956,0.3295153 -0.3508756,0.4170209 l -0.142107,0.070279 -1.1471952,0.010334 -1.1466779,0.010853 -0.078547,0.048575 c -0.043189,0.026851 -0.1120113,0.088063 -0.152963,0.1359069 -0.1311086,0.153171 -0.1364232,0.198927 -0.1364232,1.1311745 0,0.470229 0.00876,0.883898 0.020672,0.947728 0.057228,0.306636 0.3237573,0.629961 0.6521442,0.791668 0.098338,0.04842 0.254706,0.10744 0.3472589,0.130739 0.2388833,0.06013 0.7503773,0.04962 0.9673643,-0.01964 0.4587374,-0.14642 0.8062999,-0.471714 0.9069039,-0.849545 0.01986,-0.07459 0.02877,-0.243066 0.02894,-0.544659 l 5.29e-4,-0.436658 h 0.4475086 c 0.613175,0 0.747623,-0.03782 0.989068,-0.281114 0.220963,-0.222653 0.369846,-0.5745185 0.414437,-0.979766 0.08077,-0.7340282 -0.211489,-1.4117804 -0.71002,-1.64793 C 10.927368,7.663254 10.920814,7.662192 10.562778,7.655289 Z M 9.2987799,10.916529 c 0.096117,0.0069 0.1392766,0.0223 0.2015343,0.07183 0.099531,0.07918 0.1737212,0.222373 0.1731132,0.333307 -8.47e-4,0.157993 -0.1190874,0.335972 -0.2583778,0.388599 -0.2998561,0.113294 -0.619115,-0.167379 -0.5415584,-0.475931 0.053876,-0.214342 0.2130321,-0.333158 0.4252887,-0.317805 z"/>
  </g>
</svg>
