<svg xmlns="http://www.w3.org/2000/svg" viewBox="0 0 64 64" width="512" height="512" id="svg73" style="isolation:isolate">
    <defs id="defs29">
        <linearGradient id="debian_luminous_magenta" x1="0" y1="0" x2="0" y2="1" gradientUnits="objectBoundingBox">
            <stop offset="0%" style="stop-color:#FF4D8D;stop-opacity:1"/>
            <stop offset="100%" style="stop-color:#b3004c;stop-opacity:1"/>
        </linearGradient>
    </defs>

    <path d="m 18.347 7.246 c -6.244 0 -11.271 5.174 -11.271 11.601 v 26.767 c 0 6.427 5.026 11.601 11.271 11.601 h 26.005 c 6.244 0 11.271 -5.174 11.271 -11.601 V 18.848 c 0 -6.427 -5.026 -11.601 -11.271 -11.601 z" fill="url(#debian_luminous_magenta)" id="path33"/>

    <path style="fill:#ffffff" d="m 31.882,20.543 c -2.21,0 -4,1.8 -4,4 v 8 c 0,2.2 1.79,4 4,4 2.21,0 4,-1.8 4,-4 v -8 c 0,-2.2 -1.789,-4 -4,-4 z m 0,2 c 1.104,0 2,0.8 2,2 0,1 -0.896,2 -2,2 -1.104,0 -2,-1 -2,-2 0,-1.2 0.896,-2 2,-2 z m 0,6 c 1.104,0 2,0.895 2,2 v 2 c 0,1.104 -0.895,2 -2,2 -1.104,0 -2,-0.895 -2,-2 v -2 c 0,-1.104 0.895,-2 2,-2 z" id="path20"/>
    <path style="fill:#ffffff" d="m 30.882,14.543 h 1 c 0.041,-0.367 0,-1 0,-1 h -1 z m 1,0 v 1 h 1 v -1 z m 0,1 h -1 v 1 h 1 z m 0,1 v 1 h 1 v -1 z m 0,1 h -1 v 1 h 1 z m 0,1 v 1 h 1 v -1 z m 0,1 h -1 v 1 h 1 z m 0,1 c -0.124,1.591 1.001,0.805 1,0 z" id="path16"/>
    <path style="fill:#ffffff" d="m 31.882,9.543 c -21.254,-6.362 -10.627,-3.181 0,0 z m 0,0 h -1 c -0.076,1.069 -0.003,1 1,1 z m 0,1 v 1 h 1 v -1 z m 0,1 h -1 v 1 h 1 z m 0,1 v 1 h 1 v -1 z m 0,1 c -21.315,-7.753 -10.657,-3.876 0,0 z" id="path16-6"/>

    <g aria-label="DEB" transform="matrix(1.2212657,0,0,0.81882264,-1.4197357,-2.6898113)" id="text93-6" style="font-weight:bold;font-size:11.5263px;font-family:sans-serif;fill:#ffffff">
        <path d="m 17.792,57.548 v 5.127 h 0.776 q 1.328,0 2.026,-0.658 q 0.703,-0.658 0.703,-1.913 0,-1.249 -0.697,-1.902 q -0.697,-0.652 -2.031,-0.652 z m -2.166,-1.637 h 2.284 q 1.913,0 2.847,0.275 q 0.939,0.27 1.609,0.923 q 0.59,0.568 0.877,1.311 q 0.287,0.742 0.287,1.682 0,0.951 -0.287,1.699 q -0.287,0.742 -0.877,1.311 q -0.675,0.652 -1.62,0.928 q -0.945,0.27 -2.836,0.27 h -2.284 z" id="path857"/>
        <path d="m 25.193,55.910 h 5.847 v 1.637 h -3.68 q 0,1.564 0,1.564 h 3.461 v 1.637 h -3.461 v 1.924 h 3.804 v 1.637 h -5.971 z" id="path859"/>
        <path d="m 36.432,59.163 q 0.512,0 0.776,-0.225 q 0.264,-0.225 0.264,-0.664 q 0,-0.433 -0.264,-0.658 q -0.264,-0.23 -0.776,-0.23 h -1.198 v 1.778 z m 0.073,3.675 q 0.652,0 0.979,-0.275 q 0.332,-0.275 0.332,-0.832 q 0,-0.545 -0.326,-0.816 q -0.326,-0.275 -0.984,-0.275 h -1.271 v 2.200 z m 2.014,-3.022 q 0.697,0.202 1.08,0.748 q 0.382,0.545 0.382,1.339 q 0,1.215 -0.821,1.812 q -0.821,0.596 -2.498,0.596 h -3.596 v -8.402 h 3.253 q 1.75,0 2.532,0.529 q 0.787,0.529 0.787,1.694 0,0.613 -0.287,1.046 q -0.287,0.427 -0.832,0.635 z" id="path861"/>
    </g>
</svg>
