<svg style="isolation:isolate" viewBox="0 0 512 512" width="512" height="512" version="1.1" xmlns="http://www.w3.org/2000/svg"><defs><linearGradient id="dyn_grad" x1="0" y1="0.5" x2="1" y2="0.5"><stop offset="0%" style="stop-color:#a27ae4;stop-opacity:1"/><stop offset="100%" style="stop-color:#7155a0;stop-opacity:1"/></linearGradient></defs><path fill="url(#dyn_grad)" fill-rule="evenodd" d="M 389.333,448 H 368 V 426.667 H 389.333 Z M 421.333,445.141 C 437.269,441.451 448,434.56 448,426.667 H 421.333 Z M 336,448 H 314.667 V 426.667 H 336 Z M 64,117.333 C 64,129.11 54.443,138.667 42.667,138.667 C 30.89,138.667 21.333,129.11 21.333,117.333 V 96 C 21.333,54.795 54.795,21.333 96,21.333 H 416 C 457.205,21.333 490.667,54.795 490.667,96 V 341.333 C 490.667,353.11 481.11,362.667 469.333,362.667 C 457.557,362.667 448,353.11 448,341.333 V 117.333 C 448,87.893 424.107,64 394.667,64 H 117.333 C 87.893,64 64,87.893 64,117.333 Z M 181.557,124.32 C 177.184,128.245 170.453,127.861 166.539,123.456 C 162.613,119.061 163.03,112.31 167.456,108.395 C 198.048,81.141 239.659,69.472 280.053,76.885 C 314.784,83.253 345.707,103.243 365.76,132.299 C 385.803,161.355 393.515,197.355 387.147,232.085 C 380.768,266.816 360.779,297.739 331.733,317.792 C 302.677,337.845 266.667,345.557 231.936,339.19 C 197.952,332.95 167.637,313.717 147.52,285.621 C 127.424,257.43 118.965,222.581 124.15,188.395 C 124.981,182.56 130.39,178.528 136.213,179.381 C 142.037,180.245 146.101,185.675 145.269,191.509 C 140.981,220.224 147.947,249.589 164.875,273.195 C 181.803,296.79 207.253,312.96 235.787,318.187 C 264.96,323.541 295.211,317.056 319.563,300.16 C 344.001,283.381 360.811,257.408 366.155,228.235 C 371.51,199.072 365.024,168.821 348.128,144.459 C 331.35,119.99 305.376,103.189 276.203,97.835 C 242.315,91.616 207.35,101.371 181.557,124.32 Z M 247.787,133.333 C 241.901,133.152 237.291,128.235 237.493,122.347 C 237.696,116.46 242.645,111.819 248.533,112 C 269.973,112.747 290.56,120.64 306.987,134.4 C 323.413,148.16 334.827,167.04 339.2,187.947 C 340.437,193.717 336.779,199.403 331.04,200.64 C 325.301,201.877 319.637,198.197 318.4,192.427 C 314.88,176.107 306.027,161.387 293.333,150.72 C 280.533,140.053 264.533,133.867 247.787,133.333 Z M 282.667,448 H 117.333 C 87.893,448 64,424.107 64,394.667 V 213.333 C 64,201.557 54.443,192 42.667,192 C 30.89,192 21.333,201.557 21.333,213.333 V 416 C 21.333,457.205 54.795,490.667 96,490.667 H 416 C 457.205,490.667 490.667,457.205 490.667,416 V 405.333 C 490.667,393.557 481.11,384 469.333,384 H 149.333 C 137.557,384 128,393.557 128,405.333 C 128,417.11 137.557,426.667 149.333,426.667 H 282.667 Z M 240,208 C 240,203.733 241.707,199.68 244.693,196.693 C 247.68,193.707 251.733,192 256,192 C 260.267,192 264.32,193.707 267.307,196.693 C 270.293,199.68 272,203.733 272,208 C 272,212.267 270.293,216.32 267.307,219.307 C 264.32,222.293 260.267,224 256,224 C 251.733,224 247.68,222.293 244.693,219.307 C 241.707,216.32 240,212.267 240,208 Z M 208,208 C 208,195.307 213.013,183.04 222.08,174.08 C 231.04,165.013 243.307,160 256,160 C 268.693,160 280.96,165.013 289.92,174.08 C 298.987,183.04 304,195.307 304,208 C 304,220.693 298.987,232.96 289.92,241.92 C 280.96,250.987 268.693,256 256,256 C 243.307,256 231.04,250.987 222.08,241.92 C 213.013,232.96 208,220.693 208,208 Z"/></svg>