<?xml version='1.0' encoding='UTF-8'?>
<svg xmlns="http://www.w3.org/2000/svg" xmlns:ns1="http://sodipodi.sourceforge.net/DTD/sodipodi-0.dtd" xmlns:ns2="http://www.inkscape.org/namespaces/inkscape" viewBox="0 0 24 24" width="512" height="512" version="1.1" id="svg902" ns1:docname="emblem-symbolic-link.svg" ns2:version="1.2.2 (b0a8486541, 2022-12-01)">
  <defs id="defs906" />
  <style type="text/css" id="current-color-scheme">
        .ColorScheme-Text {
            color:#eff0f1;
        }
    </style>
  <g transform="translate(12.0000 12.0000) scale(1.133333) translate(-12.0000 -12.0000)"><ns1:namedview id="namedview904" pagecolor="#ffffff" bordercolor="#000000" borderopacity="0.25" ns2:showpageshadow="2" ns2:pageopacity="0.0" ns2:pagecheckerboard="0" ns2:deskcolor="#d1d1d1" showgrid="false" ns2:zoom="9.8333333" ns2:cx="-10.525424" ns2:cy="12.050847" ns2:window-width="1920" ns2:window-height="1002" ns2:window-x="0" ns2:window-y="0" ns2:window-maximized="1" ns2:current-layer="g900" />
  <g transform="translate(1,1)" id="g900">
    <rect transform="matrix(0,-1,-1,0,0,0)" x="-20" y="-20" width="18" height="18" rx="9.0021286" ry="9.0021286" fill="#434c5e" stroke-width="4.25236" id="rect4" />
    <g transform="matrix(1.1249996,0,0,1.1249996,1.9999822,2.2598252)" fill="#ffffff" id="g10">
      <path class="ColorScheme-Text" d="M 9.4143,6.3548 C 9.29312,6.23362 9.16276,6.12815 9.02483,6.03717 L 8.29011,6.77189 c 0.14934,0.07242 0.2917,0.16462 0.4171,0.29001 0.59371,0.59371 0.59371,1.5276 0,2.1213 l -2.1213,2.1213 c -0.59371,0.59371 -1.5276,0.59371 -2.1213,0 -0.5937,-0.59371 -0.59371,-1.5276 0,-2.1213 L 5.06951,8.5783 C 4.93302,8.1874 4.85846,7.78012 4.86373,7.3699 l -1.1062,1.1062 c -0.97324,0.97324 -0.97324,2.5623 0,3.5355 0.97324,0.97324 2.5623,0.97324 3.5355,0 l 2.1213,-2.1213 c 0.97324,-0.97324 0.97324,-2.5623 0,-3.5355 z" color="#5d656b" id="path6" />
      <path class="ColorScheme-Text" d="M 6.5857,9.1833 C 6.70688,9.30448 6.83724,9.40995 6.97517,9.50093 L 7.70989,8.76621 C 7.56055,8.6938 7.41823,8.60155 7.29283,8.47615 c -0.59371,-0.59371 -0.59371,-1.5276 0,-2.1213 l 2.1213,-2.1213 c 0.59371,-0.59371 1.5276,-0.59371 2.1213,0 0.59371,0.59371 0.59371,1.5276 0,2.1213 l -0.6049,0.6049 c 0.13649,0.3909 0.21105,0.79818 0.20578,1.2084 l 1.1062,-1.1062 c 0.97324,-0.97324 0.97324,-2.5623 0,-3.5355 -0.97324,-0.97324 -2.5623,-0.97324 -3.5355,0 l -2.1213,2.1213 c -0.97324,0.97324 -0.97324,2.5623 0,3.5355 z" color="#5d656b" id="path8" />
    </g>
  </g>
</g></svg>