<?xml version='1.0' encoding='UTF-8'?>
<svg xmlns="http://www.w3.org/2000/svg" width="512" height="512" viewBox="0 0 64 64" fill="none" id="svg23">
  <defs id="defs23">
    <linearGradient id="paint0_linear_328_683" x1="56" y1="34" x2="48.4736" y2="8.1952" gradientUnits="userSpaceOnUse">
      <stop stop-color="#2E2E41" id="stop8" />
      <stop offset="1" stop-color="#566C80" id="stop9" />
    </linearGradient>
    <linearGradient id="paint3_linear_328_683" x1="52" y1="54" x2="14.0499" y2="14.0526" gradientUnits="userSpaceOnUse" gradientTransform="matrix(1,0,0,0.71052632,0,12.631579)">
      <stop offset="0.295664" stop-color="#71706E" id="stop14" />
      <stop offset="1" stop-color="#B9AA99" id="stop15" />
    </linearGradient>
    <linearGradient id="paint6_linear_328_683" x1="56" y1="60" x2="31.6269" y2="18.2176" gradientUnits="userSpaceOnUse">
      <stop offset="0.126759" stop-color="#2E2E41" id="stop20" />
      <stop offset="0.877369" stop-color="#566C80" id="stop21" />
    </linearGradient>
    <linearGradient id="paint7_linear_328_683" x1="40.6957" y1="46" x2="40.6957" y2="42" gradientUnits="userSpaceOnUse">
      <stop offset="0.340681" stop-color="#2E2E41" id="stop22" />
      <stop offset="1" stop-color="#566C80" id="stop23" />
    </linearGradient>
    </defs>
  <g transform="translate(32.0000 32.0000) scale(0.971429) translate(-32.0000 -32.0000)"><g id="g1">
    <g id="g27" transform="matrix(1.1666667,0,0,1.1707317,-5.3333344,-11.235773)">
      <g id="g6-7-4" transform="translate(0,-2)">
        <rect style="opacity:0.2;fill:#4d4d4d;fill-opacity:1;stroke-width:0.835088" width="48" height="41" x="8" y="18.943056" rx="6" ry="7.4027348" id="rect1-8-7" />
        <g id="g1-9-7-4-6" transform="translate(0,-1)">
          <path d="m 8,26 c 0,-3.3137 2.6863,-6 6,-6 h 36 c 3.3137,0 6,2.6863 6,6 v 8 H 8 Z" fill="url(#paint0_linear_328_683)" id="path1-3-5-5-5" style="fill:#7155a0;fill-opacity:1" />
          <path d="M 12,27.105173 C 12,25.535549 12.7909,24 15,24 h 34 c 2.2091,0 3,1.535549 3,3.105173 V 48.157895 C 52,49.727518 50.2091,51 48,51 H 16 c -2.2091,0 -4,-1.272482 -4,-2.842105 z" fill="url(#paint3_linear_328_683)" id="path4-6-9-0-6" style="fill:#e5e5e5;fill-opacity:1;stroke-width:0.842927" />
          <path d="m 8,34 c 0,-1.1046 0.89543,-2 2,-2 h 44 c 1.1046,0 2,0.8954 2,2 v 19 c 0,4 -3,7 -7,7 H 15 C 10.978049,60 8,57 8,53 Z" fill="url(#paint6_linear_328_683)" id="path7-0-2-3-9" style="fill:#a27ae4;fill-opacity:1" />
          <path d="m 22,28.090097 c 0,-1.1046 0.8954,-2 2,-2 h 16 c 1.1046,0 2,0.8954 2,2 0,1.1046 -0.8954,2 -2,2 H 24 c -1.1046,0 -2,-0.8954 -2,-2 z" fill="url(#paint7_linear_328_683)" id="path8-6-2-6-3" style="fill:#7155a0" />
        </g>
      </g>
      </g>
    </g>
  <g id="g2" transform="matrix(0.95454545,0,0,0.95454545,-2.363633,2.2727274)" style="fill:#2e2e41;fill-opacity:1">
    <path d="m 37.299718,38.845878 c -0.439957,0 -0.835911,-0.2431 -1.022896,-0.641251 l -1.594835,-3.195237 -0.461946,0.862356 c -0.253144,0.47542 -0.758933,0.773912 -1.29788,0.773912 h -0.80293 c -0.450971,0 -0.824911,-0.375888 -0.824911,-0.829207 0,-0.453301 0.37394,-0.829219 0.824911,-0.829219 h 0.70394 l 0.868903,-1.614203 c 0.209025,-0.375917 0.626926,-0.630198 1.022898,-0.60808 0.428958,0 0.813908,0.254449 1.011883,0.630182 l 1.572863,3.16206 0.373959,-0.762885 c 0.253146,-0.508596 0.747926,-0.818136 1.319869,-0.818136 h 0.890912 c 0.450983,0 0.824925,0.375888 0.824925,0.829211 0,0.453297 -0.373942,0.829209 -0.824925,0.829209 h -0.780917 l -0.780938,1.558961 c -0.198067,0.409099 -0.582935,0.6523 -1.022926,0.6523 z" id="path1-3-6-3" style="fill:#2e2e41;fill-opacity:1;stroke-width:1.1" />
    <path d="m 25.826879,46.353197 c -0.450976,0 -0.82493,-0.37581 -0.82493,-0.829226 v -6.301959 c -0.055,-2.99622 1.055891,-5.826609 3.123685,-7.94939 C 30.19345,29.160897 32.965172,28 35.945872,28 c 6.093391,0 11.053915,4.986311 11.053915,11.111454 v 6.301969 c 0,0.453336 -0.373964,0.82923 -0.824936,0.82923 -0.45095,0 -0.824932,-0.375894 -0.824932,-0.82923 v -6.301969 c 0,-5.207471 -4.212565,-9.45303 -9.404067,-9.45303 -2.540731,0 -4.894501,0.983991 -6.643322,2.775077 -1.759839,1.802175 -2.69474,4.201339 -2.65075,6.766389 v 6.313028 c 0,0.464446 -0.362949,0.840256 -0.824901,0.840279 z" id="path2-6-7-6" style="fill:#2e2e41;fill-opacity:1;stroke-width:1.1" />
    <path d="m 29.33573,39.49664 h -0.143 c -2.309781,0 -4.190582,1.890612 -4.190582,4.212368 v 2.078578 C 25.002148,48.109433 26.882975,50 29.19273,50 h 0.143 c 2.309781,0 4.190587,-1.890574 4.190587,-4.212414 v -2.078578 c 0,-2.321779 -1.880816,-4.212368 -4.190587,-4.212368 z" id="path3-7-5-7" style="fill:#2e2e41;fill-opacity:1;stroke-width:1.1" />
    <path d="m 42.809428,39.49664 h -0.142981 c -2.309817,0 -4.190616,1.890612 -4.190616,4.212368 v 2.078578 C 38.475831,48.109433 40.356656,50 42.666447,50 h 0.142981 c 2.309757,0 4.190565,-1.890574 4.190565,-4.212414 v -2.078578 c 0,-2.321779 -1.880817,-4.212368 -4.190565,-4.212368 z" id="path4-7-5-3-5" style="fill:#2e2e41;fill-opacity:1;stroke-width:1.1" />
  </g>
</g></svg>