<svg xmlns:xlink="http://www.w3.org/1999/xlink" xmlns="http://www.w3.org/2000/svg" width="512" height="512" viewBox="0 0 64 64" fill="none" id="svg23">
  <defs id="defs23">
    <linearGradient id="linearGradient27" x1="40.6957" y1="46" x2="40.6957" y2="42" gradientUnits="userSpaceOnUse">
      <stop offset="0.34068099" stop-color="#2E2E41" id="stop26" style="stop-color:#cbb1f0;stop-opacity:1;"/>
      <stop offset="1" stop-color="#566C80" id="stop27" style="stop-color:#7155a0;stop-opacity:1;"/>
    </linearGradient>
    <linearGradient id="linearGradient7" x1="56" y1="60" x2="31.6269" y2="18.2176" gradientUnits="userSpaceOnUse">
      <stop offset="0.12675899" stop-color="#2E2E41" id="stop6" style="stop-color:#a27ae4;stop-opacity:1;"/>
      <stop offset="0.87736899" stop-color="#566C80" id="stop7" style="stop-color:#a27ae4;stop-opacity:1;"/>
    </linearGradient>
    <linearGradient id="paint0_linear_328_683" x1="56" y1="34" x2="48.4736" y2="8.1952" gradientUnits="userSpaceOnUse">
      <stop stop-color="#2E2E41" id="stop8"/>
      <stop offset="1" stop-color="#566C80" id="stop9"/>
    </linearGradient>
    <linearGradient id="paint3_linear_328_683" x1="52" y1="54" x2="14.0499" y2="14.0526" gradientUnits="userSpaceOnUse" gradientTransform="matrix(1,0,0,0.71052632,0,12.631579)">
      <stop offset="0.295664" stop-color="#71706E" id="stop14"/>
      <stop offset="1" stop-color="#B9AA99" id="stop15"/>
    </linearGradient>
    <linearGradient id="paint6_linear_328_683" x1="56" y1="60" x2="31.6269" y2="18.2176" gradientUnits="userSpaceOnUse">
      <stop offset="0.126759" stop-color="#2E2E41" id="stop20"/>
      <stop offset="0.877369" stop-color="#566C80" id="stop21"/>
    </linearGradient>
    <linearGradient id="paint7_linear_328_683" x1="40.6957" y1="46" x2="40.6957" y2="42" gradientUnits="userSpaceOnUse">
      <stop offset="0.340681" stop-color="#2E2E41" id="stop22"/>
      <stop offset="1" stop-color="#566C80" id="stop23"/>
    </linearGradient>
    <linearGradient xlink:href="#linearGradient7" id="linearGradient2-8-1-3" gradientUnits="userSpaceOnUse" x1="56" y1="60" x2="10" y2="22"/>
    </defs>
  <g id="g1">
    <g id="g27" transform="matrix(1.1666667,0,0,1.1707317,-5.3333344,-11.235773)">
      <g id="g6-7-4" transform="translate(0,-2)">
        <rect style="opacity:0.2;fill:#4d4d4d;fill-opacity:1;stroke-width:0.835088" width="48" height="41" x="8" y="18.943056" rx="6" ry="7.4027348" id="rect1-8-7"/>
        <g id="g1-9-7-4-6" transform="translate(0,-1)">
          <path d="m 8,26 c 0,-3.3137 2.6863,-6 6,-6 h 36 c 3.3137,0 6,2.6863 6,6 v 8 H 8 Z" fill="url(#paint0_linear_328_683)" id="path1-3-5-5-5" style="fill:#7155a0;fill-opacity:1"/>
          <path d="M 12,27.105173 C 12,25.535549 12.7909,24 15,24 h 34 c 2.2091,0 3,1.535549 3,3.105173 V 48.157895 C 52,49.727518 50.2091,51 48,51 H 16 c -2.2091,0 -4,-1.272482 -4,-2.842105 z" fill="url(#paint3_linear_328_683)" id="path4-6-9-0-6" style="fill:#e5e5e5;fill-opacity:1;stroke-width:0.842927"/>
          <path d="m 8,34 c 0,-1.1046 0.89543,-2 2,-2 h 44 c 1.1046,0 2,0.8954 2,2 v 19 c 0,4 -3,7 -7,7 H 15 C 10.978049,60 8,57 8,53 Z" fill="url(#paint6_linear_328_683)" id="path7-0-2-3-9" style="fill:url(#linearGradient2-8-1-3)"/>
          <path d="m 22,28.090097 c 0,-1.1046 0.8954,-2 2,-2 h 16 c 1.1046,0 2,0.8954 2,2 0,1.1046 -0.8954,2 -2,2 H 24 c -1.1046,0 -2,-0.8954 -2,-2 z" fill="url(#paint7_linear_328_683)" id="path8-6-2-6-3" style="fill:#7155a0"/>
        </g>
      </g>
      </g>
    </g>
  <g id="g36" style="fill:#2e2e41;fill-opacity:1" transform="matrix(1.05,0,0,1.05,-0.02500016,-2.5000002)">
    <path d="m 35.235797,42.635051 c -2.126417,1.249999 -4.713412,2.109217 -7.106413,2.442383 -0.140176,0.485971 -0.443056,0.899297 -0.856074,1.169838 0.640804,1.368987 1.563211,2.613975 2.677108,3.741229 3.143943,0.1503 6.309163,-1.174849 8.38802,-3.850197 0.0363,-0.0476 0.06884,-0.1002 0.103881,-0.149048 -0.305383,-1.144788 -0.811017,-2.234466 -1.433048,-3.31162 -0.112641,0.03257 -0.220276,0.05762 -0.326659,0.07766 -0.178975,0.0501 -0.364207,0.08517 -0.5582,0.08517 -0.319151,0 -0.617024,-0.07766 -0.888615,-0.205411 z" class="si-glyph-fill" id="path1-7" style="fill:#2e2e41;fill-opacity:1;fill-rule:evenodd;stroke:none;stroke-width:50.0001"/>
    <path d="M 31.816508,36.871029 C 31.013,36.28611 30.169442,35.762564 29.308362,35.297885 c -0.315395,0.756512 -1.061331,1.286321 -1.933675,1.286321 -0.156446,0 -0.306635,-0.02004 -0.453068,-0.0526 -0.509389,1.922593 -0.78098,3.960417 -0.639552,5.879252 0.956199,0.07264 1.729669,0.772795 1.902386,1.69589 2.121411,-0.349448 4.342947,-1.100951 6.216547,-2.176851 -0.232792,-0.339429 -0.371716,-0.747745 -0.371716,-1.188626 0,-0.517284 0.195245,-0.984468 0.504382,-1.350199 -0.818526,-0.921843 -1.73843,-1.807363 -2.717158,-2.520038 z" class="si-glyph-fill" id="path2-5" style="fill:#2e2e41;fill-opacity:1;fill-rule:evenodd;stroke:none;stroke-width:50.0001"/>
    <path d="m 25.494829,42.503538 c -0.171465,-2.046591 0.130163,-4.248492 0.677099,-6.302598 -0.538175,-0.380761 -0.892369,-1.004508 -0.892369,-1.714678 0,-0.246743 0.04881,-0.483466 0.130163,-0.703907 -0.821029,-0.152805 -1.644562,-0.247996 -2.470598,-0.309368 -0.11139,0.13026 -0.231541,0.255511 -0.336673,0.393286 -2.163964,2.785568 -2.620787,6.352699 -1.53943,9.452645 0.96496,0.412074 1.959958,0.68512 3.000012,0.834168 0.128912,-0.782815 0.690867,-1.412824 1.431796,-1.649548 z" class="si-glyph-fill" id="path3-3" style="fill:#2e2e41;fill-opacity:1;fill-rule:evenodd;stroke:none;stroke-width:50.0001"/>
    <path d="m 37.920414,42.127787 c -0.0363,0.04634 -0.0801,0.08392 -0.120151,0.125251 0.54193,0.921842 1.000005,1.85621 1.317903,2.840678 1.398004,-2.367232 1.715903,-5.134013 1.041307,-7.667828 -0.112642,0.166583 -0.220277,0.334419 -0.339176,0.495992 -0.545684,0.752755 -1.095123,1.524297 -1.694625,2.219436 0.05632,0.190381 0.09512,0.389529 0.09512,0.59995 v 0.005 c 0.105132,0.468436 0.01627,0.9757 -0.300377,1.381511 z" class="si-glyph-fill" id="path4-3-5" style="fill:#2e2e41;fill-opacity:1;fill-rule:evenodd;stroke:none;stroke-width:50.0001"/>
    <path d="m 29.454796,34.309659 c 1.000004,0.518537 1.982487,1.124749 2.916158,1.803606 1.051318,0.765279 2.036304,1.719687 2.908648,2.710418 0.259075,-0.115231 0.543181,-0.181613 0.846061,-0.181613 0.625785,0 1.182734,0.281813 1.566965,0.716432 0.505635,-0.616232 0.97998,-1.280059 1.453073,-1.928856 0.242805,-0.335671 0.465584,-0.68011 0.680854,-1.027053 -0.633294,-1.642032 -1.694626,-3.138774 -3.18149,-4.29734 -1.933676,-1.50551 -4.247828,-2.184367 -6.518176,-2.097944 -0.14393,0.182866 -0.286609,0.363226 -0.424282,0.549849 -0.50188,0.691382 -0.92491,1.352704 -1.301633,2.050349 0.04881,0.03632 0.0801,0.08266 0.125157,0.12525 0.521905,0.345691 0.872344,0.919338 0.928665,1.576902 z" class="si-glyph-fill" id="path5-6-6" style="fill:#2e2e41;fill-opacity:1;fill-rule:evenodd;stroke:none;stroke-width:50.0001"/>
    <path d="m 24.091819,44.978486 c -0.889866,-0.122746 -1.7547,-0.308116 -2.590749,-0.60997 0.649565,1.346442 1.599506,2.571391 2.859837,3.552101 1.334173,1.038326 2.849824,1.682112 4.406777,1.955158 -0.903633,-1.023295 -1.642059,-2.136771 -2.194002,-3.33166 -0.14393,0.03006 -0.292867,0.0501 -0.44681,0.0501 -0.991243,-0.0013 -1.816028,-0.691382 -2.035053,-1.615729 z" class="si-glyph-fill" id="path6-7-2" style="fill:#2e2e41;fill-opacity:1;fill-rule:evenodd;stroke:none;stroke-width:50.0001"/>
    <path d="m 26.138136,32.800392 c 0.389238,-0.428356 0.954948,-0.612474 1.500632,-0.521041 0.39049,-0.733967 0.831043,-1.431612 1.352947,-2.156812 -1.949946,0.298096 -3.807275,1.172344 -5.315417,2.582663 0.738426,0.08266 1.471846,0.175351 2.204015,0.315631 0.07885,-0.08016 0.166458,-0.151553 0.257823,-0.220441 z" class="si-glyph-fill" id="path7-5-9" style="fill:#2e2e41;fill-opacity:1;fill-rule:evenodd;stroke:none;stroke-width:50.0001"/>
  </g>
</svg>
