<?xml version='1.0' encoding='UTF-8'?>
<svg xmlns="http://www.w3.org/2000/svg" width="512" height="512" viewBox="0 0 64 64">
<g transform="translate(32.0000 32.0000) scale(0.937931) translate(-32.0000 -32.0000)"><path d="M 14 3 C 11.784 3 10 4.784 10 7 L 10 57 C 10 59.216 11.784 61 14 61 L 50 61 C 52.216 61 54 59.216 54 57 L 54 17 L 40 3 L 14 3 z" fill="#7155a0" />
<g transform="scale(1 -1)">
<path d="M 14 -3 C 11.784 -3 10 -4.784 10 -7 L 10 -8 C 10 -5.784 11.784 -4 14 -4 L 40 -4 L 40 -3 L 14 -3 z" fill="#ffffff" fill-opacity="0.2" />
<path d="M 10 -61 L 54 -61 L 54 -60 L 10 -60 L 10 -61 z" fill="#000000" fill-opacity="0.15" />
</g>
<path d="m54 17-14-14v14z" fill="#a27ae4" fill-rule="evenodd" />
<path d="m40 17 14 14v-14z" fill="#000000" fill-rule="evenodd" opacity="0.1" />
<path d="m30 22c-1.662 0-3 1.338-3 3v2h5v1h-7c-2.216 0-4 1.784-4 4v2c0 2.216 1.784 4 4 4v-2c0-1.841 1.238-3.369 2.926-3.838.147-.041.297-.072.449-.1.205-.032.411-.062.625-.062h7.225c.477-.531.775-1.227.775-2v-5c0-1.662-1.338-3-3-3zm-1 2c.554 0 1 .446 1 1s-.446 1-1 1-1-.446-1-1 .446-1 1-1m10 4v2c0 1.841-1.238 3.369-2.926 3.838-.147.041-.297.072-.449.1-.205.032-.411.062-.625.062h-7.225c-.477.531-.775 1.227-.775 2v5c0 1.662 1.338 3 3 3h4c1.662 0 3-1.338 3-3v-2h-5v-1h7c2.216 0 4-1.784 4-4v-2c0-2.216-1.784-4-4-4m-4 12c.554 0 1 .446 1 1s-.446 1-1 1-1-.446-1-1 .446-1 1-1" fill="#a27ae4" />
</g></svg>