<svg xmlns="http://www.w3.org/2000/svg" width="512" height="512" viewBox="0 0 64 64" fill="none" id="svg23">
  <defs id="defs23">
    <linearGradient id="paint0_linear_328_683" x1="56" y1="34" x2="48.4736" y2="8.1952" gradientUnits="userSpaceOnUse">
      <stop stop-color="#2E2E41" id="stop8"/>
      <stop offset="1" stop-color="#566C80" id="stop9"/>
    </linearGradient>
    <linearGradient id="paint3_linear_328_683" x1="52" y1="54" x2="14.0499" y2="14.0526" gradientUnits="userSpaceOnUse" gradientTransform="matrix(1,0,0,0.71052632,0,12.631579)">
      <stop offset="0.295664" stop-color="#71706E" id="stop14"/>
      <stop offset="1" stop-color="#B9AA99" id="stop15"/>
    </linearGradient>
    <linearGradient id="paint6_linear_328_683" x1="56" y1="60" x2="31.6269" y2="18.2176" gradientUnits="userSpaceOnUse">
      <stop offset="0.126759" stop-color="#2E2E41" id="stop20"/>
      <stop offset="0.877369" stop-color="#566C80" id="stop21"/>
    </linearGradient>
    <linearGradient id="paint7_linear_328_683" x1="40.6957" y1="46" x2="40.6957" y2="42" gradientUnits="userSpaceOnUse">
      <stop offset="0.340681" stop-color="#2E2E41" id="stop22"/>
      <stop offset="1" stop-color="#566C80" id="stop23"/>
    </linearGradient>
    </defs>
  <g id="g1">
    <g id="g27" transform="matrix(1.1666667,0,0,1.1707317,-5.3333344,-11.235773)">
      <g id="g6-7-4" transform="translate(0,-2)">
        <rect style="opacity:0.2;fill:#4d4d4d;fill-opacity:1;stroke-width:0.835088" width="48" height="41" x="8" y="18.943056" rx="6" ry="7.4027348" id="rect1-8-7"/>
        <g id="g1-9-7-4-6" transform="translate(0,-1)">
          <path d="m 8,26 c 0,-3.3137 2.6863,-6 6,-6 h 36 c 3.3137,0 6,2.6863 6,6 v 8 H 8 Z" fill="url(#paint0_linear_328_683)" id="path1-3-5-5-5" style="fill:#7155a0;fill-opacity:1"/>
          <path d="M 12,27.105173 C 12,25.535549 12.7909,24 15,24 h 34 c 2.2091,0 3,1.535549 3,3.105173 V 48.157895 C 52,49.727518 50.2091,51 48,51 H 16 c -2.2091,0 -4,-1.272482 -4,-2.842105 z" fill="url(#paint3_linear_328_683)" id="path4-6-9-0-6" style="fill:#e5e5e5;fill-opacity:1;stroke-width:0.842927"/>
          <path d="m 8,34 c 0,-1.1046 0.89543,-2 2,-2 h 44 c 1.1046,0 2,0.8954 2,2 v 19 c 0,4 -3,7 -7,7 H 15 C 10.978049,60 8,57 8,53 Z" fill="url(#paint6_linear_328_683)" id="path7-0-2-3-9" style="fill:#a27ae4;fill-opacity:1"/>
          <path d="m 22,28.090097 c 0,-1.1046 0.8954,-2 2,-2 h 16 c 1.1046,0 2,0.8954 2,2 0,1.1046 -0.8954,2 -2,2 H 24 c -1.1046,0 -2,-0.8954 -2,-2 z" fill="url(#paint7_linear_328_683)" id="path8-6-2-6-3" style="fill:#7155a0"/>
        </g>
      </g>
      </g>
    </g>
  <path d="m 31.985071,29 c 0,0 12.710262,11.912719 11.985034,11.912719 v 0 h -3.994958 v 7.586717 C 39.975147,49.316952 39.262966,50 38.384452,50 v 0 h -12.79878 c -0.862496,0 -1.590658,-0.671799 -1.590658,-1.500564 v 0 -7.586717 H 20 Z m 4.006001,9.505995 c -0.931445,-0.82984 -2.442992,-0.82984 -3.374436,0 v 0 l -0.632822,0.563512 -0.632844,-0.563512 c -0.932129,-0.82984 -2.442992,-0.82984 -3.375119,0 -1.048558,0.933946 -1.048558,2.447205 0,3.381152 v 0 l 4.007963,3.569234 4.007258,-3.569234 c 1.048545,-0.933947 1.048545,-2.447206 0,-3.381152 z" id="path1-3" style="fill:#2e2e41;fill-opacity:1;stroke-width:1.04673"/>
</svg>
