<?xml version='1.0' encoding='UTF-8'?>
<svg xmlns="http://www.w3.org/2000/svg" width="512" height="512" viewBox="0 0 128 128">
<g transform="translate(64.0000 64.0000) scale(0.937931) translate(-64.0000 -64.0000)"><g id="sheet" stroke="#1bb2fb" stroke-width="2" stroke-linejoin="round" transform="translate(19 7)">
<path id="paper" fill="#1bb2fb" d="M61.5 0L90 28.5L90 105C90 109.97 85.97 114 81 114L9 114C4.02876 114 0 109.97 0 105L0 9C0 4.02876 4.02876 0 9 0Z" />
<path id="corner" fill="#fff" d="M0 0L28 28L0 28Z" transform="translate(62 0)" />
</g><g id="text" fill="#fff" transform="translate(36 48)">
<rect width="26" height="2" x="30" />
<rect width="26" height="2" x="30" y="8" />
<rect width="26" height="2" x="30" y="16" />
<rect width="26" height="2" x="30" y="24" />
<rect width="56" height="2" y="32" />
<rect width="56" height="2" y="40" />
<rect width="56" height="2" y="48" />
<rect width="28" height="2" y="56" />
</g>
<path id="A" d="M8 19L18 19L21 26L26 26L16 0L10 0L0 26L5 26L8 19ZM9 15L13 5L17 15L17 15L9 15Z" fill="#116EBB" fill-rule="evenodd" transform="translate(36 48)" />
</g></svg>