<svg xmlns="http://www.w3.org/2000/svg" width="512" height="512" viewBox="0 0 48 48" style="isolation:isolate" id="svg_code_package">
    <defs>
        <linearGradient id="debian_purple_base" x1="0" y1="0.5" x2="1" y2="0.5" gradientUnits="objectBoundingBox">
            <stop offset="0%" style="stop-color:#a27ae4;stop-opacity:1"/>
            <stop offset="100%" style="stop-color:#7155a0;stop-opacity:1"/>
        </linearGradient>

        <linearGradient id="debian_purple_details" x1="0" y1="0.5" x2="1" y2="0.5" gradientUnits="objectBoundingBox">
            <stop offset="0%" style="stop-color:#a27ae4;stop-opacity:1"/>
            <stop offset="100%" style="stop-color:#7155a0;stop-opacity:1"/>
        </linearGradient>
    </defs>

    <path id="package_frame" fill-rule="evenodd" fill="url(#debian_purple_base)" d="M 34.639 0.077 C 34.479 0.025 34.308 0 34.132 0 L 34.132 0 L 8.103 0 C 5.133 0 2.723 2.411 2.723 5.38 L 2.723 27.429 L 2.723 27.429 C 2.723 28.69 3.631 29.714 4.749 29.714 L 4.749 29.714 C 5.867 29.714 6.775 28.69 6.775 27.429 L 6.775 27.429 L 6.775 27.429 L 6.775 27.429 L 6.775 7.8 C 6.775 6.018 8.222 4.571 10.004 4.571 L 34.132 4.571 L 34.132 4.571 C 34.308 4.571 34.479 4.546 34.639 4.495 C 34.799 4.546 34.969 4.571 35.145 4.571 L 35.145 4.571 L 37.996 4.571 C 39.778 4.571 41.225 6.018 41.225 7.8 L 41.225 11.429 L 41.225 11.429 C 41.225 12.69 42.133 13.714 43.251 13.714 L 43.251 13.714 C 44.369 13.714 45.277 12.69 45.277 11.429 L 45.277 11.429 L 45.277 5.38 C 45.277 2.411 42.867 0 39.897 0 L 35.145 0 L 35.145 0 C 34.969 0 34.799 0.025 34.639 0.077 Z M 12.855 43.429 L 12.855 43.429 C 13.973 43.429 14.881 44.453 14.881 45.714 L 14.881 45.714 C 14.881 46.976 13.973 48 12.855 48 L 12.855 48 L 8.103 48 C 5.133 48 2.723 45.589 2.723 42.62 L 2.723 36.571 L 2.723 36.571 C 2.723 35.31 3.631 34.286 4.749 34.286 L 4.749 34.286 C 5.867 34.286 6.775 35.31 6.775 36.571 L 6.775 36.571 L 6.775 40.2 C 6.775 41.982 8.222 43.429 10.004 43.429 L 12.855 43.429 L 12.855 43.429 L 12.855 43.429 Z M 41.225 21.714 L 41.225 21.714 C 41.225 20.453 42.133 19.429 43.251 19.429 L 43.251 19.429 C 44.369 19.429 45.277 20.453 45.277 21.714 L 45.277 21.714 L 45.277 42.62 C 45.277 45.589 42.867 48 39.897 48 L 21.974 48 L 21.974 48 C 20.855 48 19.947 46.976 19.947 45.714 L 19.947 45.714 C 19.947 44.453 20.855 43.429 21.974 43.429 L 21.974 43.429 L 37.996 43.429 C 39.778 43.429 41.225 41.982 41.225 40.2 L 41.225 21.714 L 41.225 21.714 Z"/>

    <path id="code_brackets" fill-rule="evenodd" fill="url(#debian_purple_details)" d="M 20.127 14.961 C 18.262 14.961 17.273 15.238 16.336 15.808 C 15.407 16.371 14.964 17.268 14.964 18.471 L 14.964 20.77 C 14.964 21.488 14.644 21.989 14.077 22.344 C 13.518 22.691 13.543 22.908 12.382 22.908 L 12.382 25.087 C 14.67 25.087 14.964 25.831 14.964 27.265 L 14.964 29.242 C 14.964 30.56 15.386 31.559 16.255 32.147 C 17.131 32.741 18.141 33.018 20.127 33.034 L 20.127 30.936 C 19.139 30.92 18.63 30.736 18.191 30.412 C 17.752 30.088 17.546 29.632 17.546 29 L 17.546 26.822 C 17.546 25.272 16.771 24.356 14.802 24.079 L 14.802 23.917 C 16.771 23.615 17.546 22.668 17.546 21.133 L 17.546 18.995 C 17.546 18.363 17.752 17.939 18.191 17.624 C 18.638 17.3 19.148 17.098 20.127 17.059 L 20.127 14.961 Z M 27.873 14.961 L 27.873 17.059 C 28.852 17.098 29.362 17.3 29.809 17.624 C 30.248 17.939 30.454 18.363 30.454 18.995 L 30.454 21.133 C 30.454 22.668 31.229 23.615 33.198 23.917 L 33.198 24.079 C 31.229 24.356 30.454 25.272 30.454 26.822 L 30.454 29 C 30.454 29.632 30.248 30.088 29.809 30.412 C 29.37 30.736 28.861 30.92 27.873 30.936 L 27.873 33.034 C 29.859 33.018 30.869 32.741 31.745 32.147 C 32.614 31.559 33.036 30.56 33.036 29.242 L 33.036 27.265 C 33.036 25.831 33.33 25.087 35.618 25.087 L 35.618 22.908 C 34.457 22.908 34.482 22.691 33.924 22.344 C 33.356 21.989 33.036 21.488 33.036 20.77 L 33.036 18.471 C 33.036 17.268 32.593 16.371 31.665 15.808 C 30.727 15.238 29.738 14.961 27.873 14.961 Z"/>
</svg>
