<?xml version='1.0' encoding='UTF-8'?>
<svg xmlns="http://www.w3.org/2000/svg" viewBox="0 0 512 512" width="512" height="512">
  <defs>
    <linearGradient id="audio_gradient" x1="0" y1="0" x2="1" y2="0">
      <stop offset="0%" stop-color="#F29D38" />
      <stop offset="100%" stop-color="#9A540C" />
    </linearGradient>
  </defs>
  
  <g transform="translate(256.0000 256.0000) scale(0.850000) translate(-256.0000 -256.0000)"><path fill="url(#audio_gradient)" d="M378.413,0H208.297h-13.183L185.8,9.314L57.02,138.102l-9.314,9.314v13.176v265.514         c0,47.36,38.527,85.895,85.895,85.895h244.812c47.353,0,85.881-38.535,85.881-85.895V85.896         C464.294,38.528,425.766,0,378.413,0z         M432.497,426.105c0,29.877-24.214,54.091-54.084,54.091H133.601         c-29.884,0-54.098-24.214-54.098-54.091V160.591h83.717c24.885,0,45.077-20.178,45.077-45.07         V31.804h170.116c29.87,0,54.084,24.214,54.084,54.092V426.105z" />
  
  <text x="256" y="352" font-family="Source Code Pro, DejaVu Sans, sans-serif" font-size="130" font-weight="900" letter-spacing="-2" text-anchor="middle" fill="url(#audio_gradient)">MP3</text>
</g></svg>