<?xml version="1.0" encoding="UTF-8" standalone="no"?>
<svg viewBox="0 0 16 16" width="512" height="512" xmlns="http://www.w3.org/2000/svg">
  <defs>
    <linearGradient id="sweet_hollow_gradient" x1="0%" y1="0%" x2="100%" y2="0%">
      <stop offset="0%" stop-color="#a27ae4"/>
      <stop offset="100%" stop-color="#7155a0"/>
    </linearGradient>

    <mask id="recorte_delgado">
      <path d="M2 1C.892 1 0 1.892 0 3v10c0 1.108.892 2 2 2h12c1.108 0 2-.892 2-2V7c0-1.108-.892-2-2-2H4c-1.108 0-2 .892-2 2v5h1V7.5C3 6.55 3.55 6 4.5 6h9c.95 0 1.5.55 1.5 1.5v5c0 .95-.55 1.5-1.5 1.5h-11c-.95 0-1.5-.55-1.5-1.5v-9C1 2.55 1.55 2 2.5 2h4.086l2 2H14V3H9L7 1Z" fill="#ffffff"/>
      
      <path d="M2 1C.892 1 0 1.892 0 3v10c0 1.108.892 2 2 2h12c1.108 0 2-.892 2-2V7c0-1.108-.892-2-2-2H4c-1.108 0-2 .892-2 2v5h1V7.5C3 6.55 3.55 6 4.5 6h9c.95 0 1.5.55 1.5 1.5v5c0 .95-.55 1.5-1.5 1.5h-11c-.95 0-1.5-.55-1.5-1.5v-9C1 2.55 1.55 2 2.5 2h4.086l2 2H14V3H9L7 1Z" 
            fill="none" 
            stroke="#000000" 
            stroke-width="0.25" 
            stroke-linecap="round" 
            stroke-linejoin="round"/>
    </mask>
  </defs>

  <path d="M2 1C.892 1 0 1.892 0 3v10c0 1.108.892 2 2 2h12c1.108 0 2-.892 2-2V7c0-1.108-.892-2-2-2H4c-1.108 0-2 .892-2 2v5h1V7.5C3 6.55 3.55 6 4.5 6h9c.95 0 1.5.55 1.5 1.5v5c0 .95-.55 1.5-1.5 1.5h-11c-.95 0-1.5-.55-1.5-1.5v-9C1 2.55 1.55 2 2.5 2h4.086l2 2H14V3H9L7 1Z" 
        fill="url(#sweet_hollow_gradient)" 
        mask="url(#recorte_delgado)"/>
</svg>
