<?xml version="1.0" encoding="UTF-8" standalone="no"?>
<svg xmlns="http://www.w3.org/2000/svg" xmlns:xlink="http://www.w3.org/1999/xlink" style="isolation:isolate" width="512" height="512" viewBox="0 0 48 48">
  <defs>
    <linearGradient id="_lgradient_9" x1="0" y1="0.5" x2="1" y2="0.5" gradientTransform="matrix(46.1,0,0,37.1,0.95,9.95)" gradientUnits="userSpaceOnUse">
      <stop offset="0%" stop-opacity="1" style="stop-color:#a27ae4"/>
      <stop offset="98.26086956521739%" stop-opacity="1" style="stop-color:#7155a0"/>
    </linearGradient>
    
    <!-- Nuevo degradado morado para el emblema -->
    <linearGradient id="emblemGradient" x1="0%" y1="20%" x2="80%" y2="100%" gradientUnits="objectBoundingBox">
      <stop offset="0%" stop-color="#a27ae4"/>
      <stop offset="100%" stop-color="#7155a0"/>
    </linearGradient>
  </defs>

  <!-- Folder (sin cambios) -->
  <path d="M 9 23.05 L 9 23.05 C 8.42 23.05 7.95 22.58 7.95 22 L 7.95 22 C 7.95 21.42 8.42 20.95 9 20.95 L 9 20.95 L 14.65 20.95 C 15.202 20.95 16.008 20.681 16.45 20.35 L 22.85 15.55 C 23.292 15.219 24.098 14.95 24.65 14.95 L 44.05 14.95 C 45.706 14.95 47.05 16.294 47.05 17.95 L 47.05 44.05 C 47.05 45.706 45.706 47.05 44.05 47.05 L 3.95 47.05 C 2.294 47.05 0.95 45.706 0.95 44.05 L 0.95 33 L 0.95 33 C 0.95 32.42 1.42 31.95 2 31.95 L 2 31.95 C 2.58 31.95 3.05 32.42 3.05 33 L 3.05 33 L 3.05 43.45 C 3.05 44.278 3.722 44.95 4.55 44.95 L 43.45 44.95 C 44.278 44.95 44.95 44.278 44.95 43.45 L 44.95 18.55 C 44.95 17.722 44.278 17.05 43.45 17.05 L 25.35 17.05 C 24.798 17.05 23.992 17.319 23.55 17.65 L 17.15 22.45 C 16.708 22.781 15.902 23.05 15.35 23.05 L 9 23.05 Z M 3.05 25 L 3.05 25 C 3.05 25.58 2.58 26.05 2 26.05 L 2 26.05 C 1.42 26.05 0.95 25.58 0.95 25 L 0.95 25 L 0.95 12.95 C 0.95 11.294 2.294 9.95 3.95 9.95 L 16.43 9.95 C 16.982 9.95 17.747 10.267 18.137 10.657 L 20.74 13.26 L 20.74 13.26 C 21.148 13.668 21.148 14.332 20.74 14.74 L 20.74 14.74 C 20.332 15.148 19.668 15.148 19.26 14.74 L 19.26 14.74 L 16.57 12.05 L 4.55 12.05 C 3.722 12.05 3.05 12.722 3.05 13.55 L 3.05 25 Z" fill-rule="evenodd" fill="url(#_lgradient_9)"/>

  <!-- Emblema del bookmark (ahora con degradado morado) -->
  <g transform="matrix(0.94972067,0,0,0.94972067,-374.63443,-463.22075)" fill="url(#emblemGradient)" fill-opacity="1">
    <g transform="matrix(0.63928509,0,0,0.63928509,423.03572,513.51943)">
      <path d="M 14,25.229 7.581,29.814 C 7.276,30.031 6.875,30.061 6.542,29.889 6.209,29.718 6,29.375 6,29 V 5 C 6,3.344 7.344,2 9,2 h 10 c 1.656,0 3,1.344 3,3 V 6 C 22,6.552 21.552,7 21,7 20.448,7 20,6.552 20,6 20,6 20,5 20,5 20,4.448 19.552,4 19,4 19,4 9,4 9,4 8.448,4 8,4.448 8,5 v 22.057 l 5.419,-3.871 c 0.347,-0.248 0.815,-0.248 1.162,0 L 20,27.057 V 24 c 0,-0.552 0.448,-1 1,-1 0.552,0 1,0.448 1,1 v 5 c 0,0.375 -0.209,0.718 -0.542,0.889 -0.333,0.172 -0.734,0.142 -1.039,-0.075 z" fill="url(#emblemGradient)"/>
    </g>
    <path d="m 434.56642,519.43537 c -1.21924,0 -2.21448,1.01735 -2.21448,2.27751 0,0.65577 0.26692,1.25388 0.69552,1.67015 l 3.40394,3.34026 3.40391,-3.34026 c 0.42867,-0.41619 0.69554,-1.01432 0.69554,-1.67015 0,-1.26016 -0.99525,-2.27751 -2.21448,-2.27751 -0.80302,0 -1.49884,0.43808 -1.88503,1.10078 -0.38612,-0.66267 -1.08189,-1.10078 -1.88501,-1.10078 z" fill="url(#emblemGradient)"/>
  </g>
</svg>