<?xml version='1.0' encoding='UTF-8'?>
<svg xmlns="http://www.w3.org/2000/svg" width="512" height="512" viewBox="0 0 128 128">
<defs>
  <linearGradient id="gradient" gradientUnits="userSpaceOnUse" x1="0" y1="0" x2="104" y2="0">
    <stop offset="0.00" stop-color="black" stop-opacity="0.15" />
    <stop offset="0.33" stop-color="black" stop-opacity="0.08" />
    <stop offset="0.66" stop-color="white" stop-opacity="0.1" />
    <stop offset="1.00" stop-color="white" stop-opacity="0.4" />
  </linearGradient>
</defs>
<g transform="translate(64.0000 64.0000) scale(1.026415) translate(-64.0000 -64.0000)"><g transform="translate(12 12)">
<path d="M94 12C99.5236 12 104 16.4764 104 22L104 96C104 101.524 99.5239 106 94 106L10 106C4.47647 106 6.10352e-05 101.524 6.10352e-05 96L0 10C0 4.4764 4.4764 9.53672e-07 10 9.53672e-07L30 0C33.7 0 37 2.1 38.7 5.4L40.2 8.4C41.3 10.6 43.5 12 46 12L94 12Z" fill="#353535" />
<path d="M94 12C99.5236 12 104 16.4764 104 22C104 22 104 38 104 38L4.57764e-05 38C4.57764e-05 38 0 10 0 10C0 4.4764 4.4764 9.53672e-07 10 9.53672e-07C10 9.53672e-07 30 0 30 0C33.7 0 37 2.1 38.7 5.4C38.7 5.4 40.2 8.4 40.2 8.4C41.3 10.6 43.5 12 46 12C46 12 94 12 94 12C94 12 94 12 94 12Z" fill="#a27ae4" />
<path d="M94 12C99.5236 12 104 16.4764 104 22C104 22 104 38 104 38L4.57764e-05 38C4.57764e-05 38 0 10 0 10C0 4.4764 4.4764 9.53672e-07 10 9.53672e-07C10 9.53672e-07 30 0 30 0C33.7 0 37 2.1 38.7 5.4C38.7 5.4 40.2 8.4 40.2 8.4C41.3 10.6 43.5 12 46 12C46 12 94 12 94 12C94 12 94 12 94 12Z" fill="url(#gradient)" />
<path d="M94 0C99.5239 0 104 4.47643 104 10L104 74C104 79.5241 99.5239 84 94 84L10 84C4.47647 84 6.0633e-05 79.5241 6.0633e-05 74L0 18C0 12.4765 4.47642 8 10 8L38 8C38 8 42 8 46 4C50 0 54 3.8147e-06 54 3.8147e-06L94 0Z" fill="#4A4643" transform="translate(0 20)" />
<path d="M24 0C10.7452 0 0 10.7452 0 24C0 37.2549 10.7452 48 24 48C37.2549 48 48 37.2549 48 24C48 10.7452 37.2549 0 24 0C24 0 24 0 24 0C24 0 24 0 24 0ZM9.15075 38.85C5 34.7487 3 29.8 3 24C3 18.2 5 13.2513 9.15075 9.15075C13.2513 5 18.2 3 24 3C29.8 3 34.7487 5 38.85 9.15075C42.95 13.2513 45 18.2 45 24C45 29.8 42.95 34.7487 38.85 38.85C34.7487 42.95 29.8 45 24 45C18.2 45 13.2513 42.95 9.15075 38.85C9.15075 38.85 9.15075 38.85 9.15075 38.85C9.15075 38.85 9.15075 38.85 9.15075 38.85ZM13.06 10.94L24 21.8773L31.1425 14.7335L31.94 13.94L34.06 16.06L24 26.12L10.94 13.06L12 12L13.06 10.94L13.06 10.94L13.06 10.94Z" fill="#dbcbfa" fill-rule="evenodd" transform="translate(30 42)" />
</g></g></svg>