<?xml version="1.0" encoding="utf-8"?>
<svg width="512" height="512" viewBox="0 0 128 128" fill="none" xmlns="http://www.w3.org/2000/svg">
<defs>
<linearGradient id="gradient" gradientUnits="userSpaceOnUse" x1="0" y1="0" x2="104" y2="0">
<stop offset="0.00" stop-color="black" stop-opacity="0.3"/>
<stop offset="0.33" stop-color="black" stop-opacity="0.1"/>
<stop offset="0.66" stop-color="white" stop-opacity="0.1"/>
<stop offset="1.00" stop-color="white" stop-opacity="0.4"/>
</linearGradient>
</defs>
<g id="folder" transform="translate(12 12)">
<path d="M94 12C99.5236 12 104 16.4764 104 22L104 96C104 101.524 99.5239 106 94 106L10 106C4.47647 106 6.10352e-05 101.524 6.10352e-05 96L0 10C0 4.4764 4.4764 9.53672e-07 10 9.53672e-07L30 0C33.7 0 37 2.1 38.7 5.4L40.2 8.4C41.3 10.6 43.5 12 46 12L94 12Z" fill="#a27ae4"/>
<path d="M94 12C99.5236 12 104 16.4764 104 22L104 96C104 101.524 99.5239 106 94 106L10 106C4.47647 106 6.10352e-05 101.524 6.10352e-05 96L0 10C0 4.4764 4.4764 9.53672e-07 10 9.53672e-07L30 0C33.7 0 37 2.1 38.7 5.4L40.2 8.4C41.3 10.6 43.5 12 46 12L94 12Z" fill="url(#gradient)"/>
<path id="front" d="M112.902 9.19693L103.534 65.4Q103.506 65.5712 103.47 65.7409Q103.434 65.9106 103.39 66.0786Q103.347 66.2466 103.296 66.4125Q103.245 66.5784 103.187 66.7419Q103.129 66.9055 103.064 67.0663Q103 67.2271 102.927 67.385Q102.855 67.5427 102.776 67.6972Q102.697 67.8517 102.611 68Q102.526 68.1534 102.433 68.3003Q102.341 68.4473 102.243 68.5901Q102.144 68.7328 102.039 68.8711Q101.934 69 101.824 69.143Q101.713 69.2766 101.596 69.4051Q101.48 69.5337 101.358 69.657Q101.236 69.7804 101.108 69.8982Q100.981 70.0161 100.85 70.1282Q100.716 70.2404 100.579 70.3466Q100.442 70.4528 100.3 70.5529Q100.16 70.653 100.013 70.7468Q99.8666 70.8406 99.7167 70.9279Q99.5667 71.0151 99.4131 71.0957Q99.2594 71.1764 99.1024 71.2501Q98.9454 71.3239 98.7853 71.3907Q98.6251 71.4576 98.4622 71.5173Q98.3 71.577 98.134 71.6295Q97.9686 71.6821 97.8011 71.7272Q97.6336 71.7724 97.4642 71.8102Q97.295 71.848 97.1241 71.8784Q96.9533 71.909 96.7813 71.9315Q96.6093 71.9543 96.4364 71.9695Q96.2636 71.9847 96.09 72Q95.9169 72 95.7434 72L7.89844 72Q7.68233 72 7.46655 71.9882Q7.25076 72 7.03595 71.9528Q6.82113 71.9292 6.60793 71.8939Q6.39473 71.8586 6.18377 71.8116Q5.97282 71.7647 5.76475 71.7063Q5.55668 71.648 5.35211 71.5783Q5.14754 71.5086 4.94709 71.4279Q4.74663 71.3471 4.55089 71.2555Q4.35516 71.1639 4.16472 71.0618Q3.97428 70.9596 3.78972 70.8472Q3.60515 70.7348 3.427 70.6124Q3.24887 70.49 3.07768 70.3582Q2.9065 70.2263 2.74278 70.0852Q2.57906 69.9442 2.4233 69.7944Q2.26754 69.6446 2.1202 69.4865Q1.97287 69.3284 1.8344 69.1625Q1.69593 69 1.56674 68.8233Q1.43755 68.65 1.31802 68.47Q1.1985 68.29 1.089 68.1037Q0.98 67.9173 0.88035 67.7253Q0.7812 67.5333 0.692699 67.3362Q0.604198 67.139 0.526609 66.9373Q0.45 66.7356 0.382578 66.53Q0.316135 66.3243 0.261036 66.1154Q0.205937 65.9064 0.162346 65.6947Q0.118756 65.4831 0.0868046 65.2693Q0.0548533 65.0556 0.0346369 64.8404Q0.0144204 64.6253 0 64.4093Q-0 64.1934 0 63.9773Q0 63.7612 0.019586 63.5457Q0.0348 63.3301 0.06177 63.1157Q0.0887443 62.9013 0.127403 62.6886L9.25525 12.4855Q9.28596 12.3166 9.324 12.15Q9.36201 11.9818 9.40727 11.8161Q9.45253 11.6505 9.505 11.487Q9.55736 11.3235 9.61684 11.1625Q9.67631 11 9.74272 10.8431Q9.80913 10.6848 9.88236 10.5295Q9.95559 10.3742 10.0355 10.222Q10.1154 10.0703 10.2018 9.92196Q10.2883 9.77361 10.3811 9.62917Q10.4739 9.48472 10.5729 9.34445Q10.6719 9.20417 10.7769 9.06833Q10.8818 8.93248 11 8.80133Q11.1034 8.67018 11.2198 8.54396Q11.3362 8.41775 11.458 8.29671Q11.58 8.17567 11.7067 8.06Q11.8336 7.94441 11.9654 7.8344Q12.0972 7.7244 12.2337 7.62021Q12.3701 7.51604 12.511 7.41789Q12.6519 7.31974 12.797 7.22781Q12.9419 7.13587 13.0907 7.05032Q13.2396 6.96478 13.392 6.88578Q13.5444 6.80678 13.7 6.73448Q13.856 6.66218 14.0146 6.59672Q14.1733 6.53125 14.3347 6.47275Q14.4961 6.41424 14.66 6.3628Q14.8237 6.31137 14.9896 6.2671Q15.1555 6.22283 15.3232 6.18581Q15.5 6.14879 15.66 6.11909Q15.829 6.08938 16 6.06706Q16.1695 6.04473 16.3405 6.02983Q16.5115 6.015 16.6831 6Q16.8546 6 17.0263 6L48.57 6Q49.4895 6 50.3846 5.78871Q51.2796 5.57742 52.1022 5.16614L60.7667 0.833866Q61.5893 0.422587 62.4843 0.211296Q63.3793 3.8147e-06 64.3 3.8147e-06L105.111 0Q105.325 0 105.539 0.0116192Q105.753 0.0232384 105.966 0.0464427Q106.179 0.07 106.39 0.104368Q106.602 0.139089 106.811 0.185225Q107.02 0.23136 107.227 0.288775Q107.433 0.346189 107.636 0.414713Q107.839 0.483238 108.038 0.562671Q108.237 0.642103 108.432 0.732211Q108.626 0.822318 108.815 0.922835Q109 1.02335 109.188 1.13398Q109.372 1.24461 109.55 1.365Q109.726 1.48545 109.897 1.6153Q110.067 1.74516 110.23 1.88406Q110.394 2.02297 110.55 2.17052Q110.704 2.31806 110.852 2.47382Q111 2.62958 111.137 2.79309Q111.276 2.95659 111.405 3.12737Q111.535 3.29815 111.655 3.4757Q111.775 3.65324 111.885 3.83703Q112 4.02082 112.095 4.21032Q112.195 4.4 112.285 4.59445Q112.374 4.7891 112.453 5Q112.532 5.18753 112.6 5.39073Q112.668 5.59393 112.725 5.8Q112.782 6 112.828 6.2165Q112.874 6.42587 112.908 6.63741Q112.942 6.84896 112.965 7.06204Q112.987 7.27513 113 7.48913Q113.01 7.70313 113 7.91743Q113 8.13172 113 8.34566Q112.984 8.55961 112.961 8.77258Q112.937 8.98556 112.902 9.19693Z" fill="#4A4643" transform="translate(0 34)"/>
</g></svg>
