<?xml version='1.0' encoding='UTF-8'?>
<svg xmlns="http://www.w3.org/2000/svg" width="512" height="512" viewBox="0 0 128 128">
<defs>
  <linearGradient id="gradient" gradientUnits="userSpaceOnUse" x1="0" y1="0" x2="104" y2="0">
    <stop offset="0.00" stop-color="black" stop-opacity="0.15" />
    <stop offset="0.33" stop-color="black" stop-opacity="0.08" />
    <stop offset="0.66" stop-color="white" stop-opacity="0.1" />
    <stop offset="1.00" stop-color="white" stop-opacity="0.4" />
  </linearGradient>
</defs>
<g transform="translate(64.0000 64.0000) scale(1.026415) translate(-64.0000 -64.0000)"><g transform="translate(12 12)">
<path d="M94 12C99.5236 12 104 16.4764 104 22L104 96C104 101.524 99.5239 106 94 106L10 106C4.47647 106 6.10352e-05 101.524 6.10352e-05 96L0 10C0 4.4764 4.4764 9.53672e-07 10 9.53672e-07L30 0C33.7 0 37 2.1 38.7 5.4L40.2 8.4C41.3 10.6 43.5 12 46 12L94 12Z" fill="#353535" />
<path d="M94 12C99.5236 12 104 16.4764 104 22C104 22 104 38 104 38L4.57764e-05 38C4.57764e-05 38 0 10 0 10C0 4.4764 4.4764 9.53672e-07 10 9.53672e-07C10 9.53672e-07 30 0 30 0C33.7 0 37 2.1 38.7 5.4C38.7 5.4 40.2 8.4 40.2 8.4C41.3 10.6 43.5 12 46 12C46 12 94 12 94 12C94 12 94 12 94 12Z" fill="#a27ae4" />
<path d="M94 12C99.5236 12 104 16.4764 104 22C104 22 104 38 104 38L4.57764e-05 38C4.57764e-05 38 0 10 0 10C0 4.4764 4.4764 9.53672e-07 10 9.53672e-07C10 9.53672e-07 30 0 30 0C33.7 0 37 2.1 38.7 5.4C38.7 5.4 40.2 8.4 40.2 8.4C41.3 10.6 43.5 12 46 12C46 12 94 12 94 12C94 12 94 12 94 12Z" fill="url(#gradient)" />
<path d="M94 0C99.5239 0 104 4.47643 104 10L104 74C104 79.5241 99.5239 84 94 84L10 84C4.47647 84 6.0633e-05 79.5241 6.0633e-05 74L0 18C0 12.4765 4.47642 8 10 8L38 8C38 8 42 8 46 4C50 0 54 3.8147e-06 54 3.8147e-06L94 0Z" fill="#4A4643" transform="translate(0 20)" />
</g><path d="M39 0C43.95 0 48 4.05 48 9C48 13.95 43.95 18 39 18C36.0891 18 33.4893 16.6 31.8414 14.4387C31.8414 14.4387 17.687 21.6507 17.687 21.6507C17.891 22.4003 18 23.188 18 24C18 24.7081 17.9171 25.3978 17.7606 26.0598C17.7606 26.0598 32.0265 33.3285 32.0265 33.3285C33.6762 31.3041 36.1866 30.009 39 30C43.95 30 48 34.05 48 39C48 43.95 43.95 48 39 48C34.05 48 30 43.95 30 39C30.0033 37.9251 30.1944 36.8946 30.5424 35.9394C30.5424 35.9394 16.5857 28.8282 16.5857 28.8282C14.983 31.3317 12.1768 33 9 33C4.05003 33 0 28.95 0 24C0.0157928 19.036 4.03602 15.0158 9 15C12.0723 15 14.798 16.5602 16.4237 18.9274C16.4237 18.9274 30.4434 11.7841 30.4434 11.7841C30.1557 10.9065 30 9.97053 30 9C30.0159 4.03599 34.0359 0.01581 39 0C39 0 39 0 39 0C39 0 39 0 39 0ZM45 39C45 37.3533 44.4117 35.9418 43.2348 34.7652C42.0582 33.5883 40.6467 33 39 33C37.3491 33.0054 35.9376 33.594 34.7658 34.7658C33.594 35.9376 33 37.3521 33 39.0096C33 40.6497 33.5883 42.0582 34.7652 43.2348C35.9418 44.4117 37.3533 45 39 45C40.6467 45 42.0582 44.4117 43.2348 43.2348C44.4117 42.0582 45 40.6467 45 39C45 39 45 39 45 39C45 39 45 39 45 39ZM13.2349 19.7651C14.4116 20.9418 15 22.3534 15 24C15 25.6466 14.4116 27.0582 13.2349 28.2349C12.0582 29.4116 10.6466 30 9 30C7.35342 30 5.94177 29.4116 4.76508 28.2349C3.58836 27.0582 3 25.6498 3 24C3.00525 22.3522 3.59385 20.9377 4.76574 19.7657C5.93766 18.5938 7.34907 18 9 18C10.6466 18 12.0582 18.5884 13.2349 19.7651C13.2349 19.7651 13.2349 19.7651 13.2349 19.7651C13.2349 19.7651 13.2349 19.7651 13.2349 19.7651ZM43.2348 4.76508C44.4117 5.94177 45 7.35342 45 9C45 10.6466 44.4117 12.0582 43.2348 13.2349C42.0582 14.4116 40.6467 15 39 15C37.3533 15 35.9418 14.4116 34.7652 13.2349C33.5883 12.0582 33 10.6498 33 9.00957C33.0054 7.35225 33.594 5.93766 34.7658 4.76574C35.9376 3.59385 37.3491 3.00528 39 3C40.6467 3 42.0582 3.58836 43.2348 4.76508C43.2348 4.76508 43.2348 4.76508 43.2348 4.76508C43.2348 4.76508 43.2348 4.76508 43.2348 4.76508Z" fill="#dbcbfa" fill-rule="evenodd" transform="translate(40 50)" />
</g></svg>