<?xml version="1.0" encoding="utf-8"?>
<svg width="512" height="512" viewBox="0 0 128 128" xmlns="http://www.w3.org/2000/svg">
<defs>
<linearGradient id="gradient" gradientUnits="userSpaceOnUse" x1="0" y1="0" x2="104" y2="0">
<stop offset="0.00" stop-color="black" stop-opacity="0.3"/>
<stop offset="0.33" stop-color="black" stop-opacity="0.1"/>
<stop offset="0.66" stop-color="white" stop-opacity="0.1"/>
<stop offset="1.00" stop-color="white" stop-opacity="0.4"/>
</linearGradient>
</defs>
<g transform="translate(12 12)">
<path d="M94 12C99.5236 12 104 16.4764 104 22L104 96C104 101.524 99.5239 106 94 106L10 106C4.47647 106 6.10352e-05 101.524 6.10352e-05 96L0 10C0 4.4764 4.4764 9.53672e-07 10 9.53672e-07L30 0C33.7 0 37 2.1 38.7 5.4L40.2 8.4C41.3 10.6 43.5 12 46 12L94 12Z" fill="#353535"/>
<path d="M94 12C99.5236 12 104 16.4764 104 22C104 22 104 38 104 38L4.57764e-05 38C4.57764e-05 38 0 10 0 10C0 4.4764 4.4764 9.53672e-07 10 9.53672e-07C10 9.53672e-07 30 0 30 0C33.7 0 37 2.1 38.7 5.4C38.7 5.4 40.2 8.4 40.2 8.4C41.3 10.6 43.5 12 46 12C46 12 94 12 94 12C94 12 94 12 94 12Z" fill="#a27ae4"/>
<path d="M94 12C99.5236 12 104 16.4764 104 22C104 22 104 38 104 38L4.57764e-05 38C4.57764e-05 38 0 10 0 10C0 4.4764 4.4764 9.53672e-07 10 9.53672e-07C10 9.53672e-07 30 0 30 0C33.7 0 37 2.1 38.7 5.4C38.7 5.4 40.2 8.4 40.2 8.4C41.3 10.6 43.5 12 46 12C46 12 94 12 94 12C94 12 94 12 94 12Z" fill="url(#gradient)"/>
<path d="M94 0C99.5239 0 104 4.47643 104 10L104 74C104 79.5241 99.5239 84 94 84L10 84C4.47647 84 6.0633e-05 79.5241 6.0633e-05 74L0 18C0 12.4765 4.47642 8 10 8L38 8C38 8 42 8 46 4C50 0 54 3.8147e-06 54 3.8147e-06L94 0Z" fill="#4A4643" transform="translate(0 20)"/>
</g><g fill="#dbcbfa">
<path d="M42 6C42 3 39 0 36 0C36 0 6 0 6 0C3 0 0 3 0 6C0 6 0 36 0 36C0 39 3 42 6 42C6 42 36 42 36 42C39 42 42 39 42 36C42 36 42 6 42 6ZM36 3C37.5 3 39 4.5 39 6C39 6 39 36 39 36C39 37.5 37.5 39 36 39C36 39 6 39 6 39C4.5 39 3 37.5 3 36C3 36 3 6 3 6C3 4.5 4.5 3 6 3C6 3 36 3 36 3Z" fill-rule="evenodd" transform="translate(43 53)"/>
<path d="M0 9L9 0L19.5 10.5L24 6L30 12L30 18L0 18Z" transform="translate(49 71)"/>
<circle r="4.5" cx="71.5" cy="66.5"/>
</g></svg>
