<?xml version="1.0" encoding="utf-8"?>
<svg width="512" height="512" viewBox="0 0 128 128" xmlns="http://www.w3.org/2000/svg">
    <defs>
        <linearGradient id="gradient" gradientUnits="userSpaceOnUse" x1="0" y1="0" x2="104" y2="0">
            <stop offset="0.00" stop-color="black" stop-opacity="0.3"/>
            <stop offset="0.33" stop-color="black" stop-opacity="0.1"/>
            <stop offset="0.66" stop-color="white" stop-opacity="0.1"/>
            <stop offset="1.00" stop-color="white" stop-opacity="0.4"/>
        </linearGradient>
    </defs>
    <g transform="translate(12 11)">
        <path d="M94 12C99.5236 12 104 16.4764 104 22L104 96C104 101.524 99.5239 106 94 106L10 106C4.47647 106 6.10352e-05 101.524 6.10352e-05 96L0 10C0 4.4764 4.4764 9.53672e-07 10 9.53672e-07L30 0C33.7 0 37 2.1 38.7 5.4L40.2 8.4C41.3 10.6 43.5 12 46 12L94 12Z" fill="#353535"/>
        <path d="M94 12C99.5236 12 104 16.4764 104 22C104 22 104 38 104 38L4.57764e-05 38C4.57764e-05 38 0 10 0 10C0 4.4764 4.4764 9.53672e-07 10 9.53672e-07C10 9.53672e-07 30 0 30 0C33.7 0 37 2.1 38.7 5.4C38.7 5.4 40.2 8.4 40.2 8.4C41.3 10.6 43.5 12 46 12C46 12 94 12 94 12C94 12 94 12 94 12Z" fill="#a27ae4"/>
        <path d="M94 12C99.5236 12 104 16.4764 104 22C104 22 104 38 104 38L4.57764e-05 38C4.57764e-05 38 0 10 0 10C0 4.4764 4.4764 9.53672e-07 10 9.53672e-07C10 9.53672e-07 30 0 30 0C33.7 0 37 2.1 38.7 5.4C38.7 5.4 40.2 8.4 40.2 8.4C41.3 10.6 43.5 12 46 12C46 12 94 12 94 12C94 12 94 12 94 12Z" fill="url(#gradient)"/>
        <path d="M94 0C99.5239 0 104 4.47643 104 10L104 74C104 79.5241 99.5239 84 94 84L10 84C4.47647 84 6.0633e-05 79.5241 6.0633e-05 74L0 18C0 12.4765 4.47642 8 10 8L38 8C38 8 42 8 46 4C50 0 54 3.8147e-06 54 3.8147e-06L94 0Z" fill="#4A4643" transform="translate(0 20)"/>

        <g transform="translate(52 62) scale(2.5) translate(-33.88 -34.36)">
            <path d="M 41.424947 31.214005 H 26.340031 C 25.811984 31.214005 25.382489 30.777372 25.382489 30.240658 V 27.251095 C 25.382489 26.714256 25.811984 26.27765 26.340031 26.27765 H 41.424947 C 41.952994 26.27765 42.382498 26.714256 42.382498 27.250979 V 30.240658 C 42.382498 30.777372 41.952994 31.214005 41.424947 31.214005 Z M 26.340031 26.993271 C 26.206668 26.993271 26.098101 27.108985 26.098101 27.251095 V 30.240658 C 26.098101 30.382795 26.206668 30.49842 26.340031 30.49842 H 41.424947 C 41.558265 30.49842 41.666868 30.382795 41.666868 30.240658 V 27.250979 C 41.666868 27.108833 41.558265 26.993271 41.424947 26.993271 Z M 41.424947 42.46024 H 26.340031 C 25.811984 42.46024 25.382489 42.023499 25.382489 41.486642 V 38.497232 C 25.382489 37.960536 25.811984 37.523903 26.340031 37.523903 H 41.424947 C 41.952994 37.523903 42.382498 37.960536 42.382498 38.497232 V 41.486642 C 42.382498 42.023508 41.952994 42.46024 41.424947 42.46024 Z M 26.340031 38.23947 C 26.206668 38.23947 26.098101 38.355095 26.098101 38.497232 V 41.486642 C 26.098101 41.628904 26.206668 41.744628 26.340031 41.744628 H 41.424947 C 41.558265 41.744628 41.666868 41.628904 41.666868 41.486642 V 38.497232 C 41.666868 38.355095 41.558265 38.23947 41.424947 38.23947 Z M 41.424947 36.837069 H 26.340031 C 25.811984 36.837069 25.382489 36.400417 25.382489 35.86374 V 32.874141 C 25.382489 32.337472 25.811984 31.90083 26.340031 31.90083 H 41.424947 C 41.952994 31.90083 42.382498 32.337472 42.382498 32.874141 V 35.86374 C 42.382498 36.400417 41.952994 36.837069 41.424947 36.837069 Z M 26.340031 32.616442 C 26.206668 32.616442 26.098101 32.73204 26.098101 32.874141 V 35.86374 C 26.098101 36.005868 26.206668 36.121457 26.340031 36.121457 H 41.424947 C 41.558265 36.121457 41.666868 36.005868 41.666868 35.86374 V 32.874141 C 41.666868 32.73204 41.558265 32.616442 41.424947 32.616442 Z" fill="#dbcbfa" fill-rule="evenodd"/>
            <ellipse cx="39.960217" cy="28.74604" rx="0.746246" ry="0.745168" fill="#dbcbfa"/>
            <ellipse cx="39.960217" cy="39.991905" rx="0.746246" ry="0.745169" fill="#dbcbfa"/>
            <ellipse cx="39.960217" cy="34.368946" rx="0.746246" ry="0.745168" fill="#dbcbfa"/>
        </g>
        </g></svg>
