<?xml version='1.0' encoding='UTF-8'?>
<svg xmlns="http://www.w3.org/2000/svg" width="512" height="512" viewBox="0 0 128 128">
<g transform="translate(64.0000 64.0000) scale(0.971429) translate(-64.0000 -64.0000)"><path id="paper" d="M108 36L108 112C108 116.4 104.4 120 100 120L28 120C23.6 120 20 116.4 20 112L20 16C20 11.6 23.6 8 28 8L80 8Z" fill="#306998" />
<path id="corner" d="M0 0L28 28L0 28Z" fill="#FFD43B" transform="translate(80 8)" />
<g fill="#FFD43B" fill-rule="evenodd" transform="translate(32 46)">
<path d="M25 0C19.4763 0 15 4.47638 15 10L15 14L32 14L32 16L10 16C4.47632 16 0 20.4764 0 26L0 36C0 41.5236 4.47632 46 10 46L14 46L14 42.0048L14 42C14 35.3717 19.3717 30 26 30L36 30C41.5237 30 46 25.5236 46 20L46 10C46 4.47638 41.5237 0 36 0L25 0L25 0ZM21 7C21 5.34315 22.3431 4 24 4C25.6569 4 27 5.34315 27 7C27 8.65685 25.6569 10 24 10C22.3431 10 21 8.65685 21 7L21 7Z" transform="translate(1 1)" />
<path d="M31 36C31 41.5236 26.5237 46 21 46L10 46C4.47632 46 0 41.5236 0 36L0 26C0 20.4764 4.47632 16 10 16L20 16C26.6283 16 32 10.6283 32 4L32 0L36 0C41.5237 0 46 4.47638 46 10L46 20C46 25.5236 41.5237 30 36 30L14 30L14 32L31 32L31 36L31 36ZM22 42C23.6569 42 25 40.6569 25 39C25 37.3431 23.6569 36 22 36C20.3431 36 19 37.3431 19 39C19 40.6569 20.3431 42 22 42L22 42Z" transform="translate(17 17)" />
</g></g></svg>