<?xml version='1.0' encoding='UTF-8'?>
<svg xmlns="http://www.w3.org/2000/svg" width="512" height="512" viewBox="0 0 128 128" fill="none">
<defs>
<linearGradient id="gradient" gradientUnits="userSpaceOnUse" x1="0" y1="94" x2="104" y2="0">
</linearGradient>
</defs>
<g transform="translate(64.0000 64.0000) scale(1.046154) translate(-64.0000 -64.0000)"><path d="M 106 18 C 111.524 18 116 22.476 116 28 L 116 102 C 116 107.524 111.524 112 106 112 L 22 112 C 16.476 112 12 107.524 12 102 L 12 28 C 12 22.476 16.476 18 22 18 L 106 18 Z" fill="#a27ae4" />
<path d="M 106 18 C 111.524 18 116 22.476 116 28 L 116 102 C 116 107.524 111.524 112 106 112 L 22 112 C 16.476 112 12 107.524 12 102 L 12 28 C 12 22.476 16.476 18 22 18 L 106 18 Z" fill="url(#gradient)" />
<path d="M 32 18 L 32 112 L 22 112 C 16.477 112 12 107.524 12 102 L 12 28 C 12 22.476 16.476 18 22 18 L 32 18 Z" fill="black" fill-opacity="0.3" />
<path d="M 12 102 L 12 100 C 12 105.525 16.477 110 22 110 L 106 110 C 111.523 110 116 105.524 116 100 L 116 102 C 116 107.523 111.523 112 106 112 L 22 112 C 16.476 112 12 107.523 12 102 Z" fill="black" fill-opacity="0.3" />
</g></svg>