<?xml version='1.0' encoding='UTF-8'?>
<svg xmlns="http://www.w3.org/2000/svg" xmlns:ns1="http://www.w3.org/1999/xlink" viewBox="0 0 64 64" width="512" height="512" id="svg29" style="isolation:isolate">
  <defs id="defs13">
    <linearGradient ns1:href="#a" id="b" gradientUnits="userSpaceOnUse" x1="0" y1="60.774" x2="0" y2="2.345" />
    <linearGradient id="a" y1="392.36" y2="336.36" x2="0" gradientUnits="userSpaceOnUse" gradientTransform="translate(254 -254)">
      <stop stop-color="#FF9E79" stop-opacity="0" id="stop3" />
      <stop offset="1" stop-color="#FF9E79" stop-opacity="0.18" id="stop5" />
    </linearGradient>
    <linearGradient id="c" y1="17.475" y2="31" x1="41.616" x2="54" gradientUnits="userSpaceOnUse">
      <stop stop-color="#060606" id="stop8" />
      <stop offset="1" stop-opacity="0" id="stop10" />
    </linearGradient>
  </defs>

  <g transform="translate(32.0000 32.0000) scale(0.937931) translate(-32.0000 -32.0000)"><path d="M 40,3 H 15 c -2.77,0 -5,2.23 -5,5 v 48 c 0,2.77 2.23,5 5,5 h 34 c 2.77,0 5,-2.23 5,-5 V 17 Z" id="path15" style="fill:#D9532B" />

  <path d="M 40,3 H 15 c -2.77,0 -5,2.23 -5,5 v 48 c 0,2.77 2.23,5 5,5 h 34 c 2.77,0 5,-2.23 5,-5 V 17 Z" id="path19" style="fill:url(#b)" />

  <path d="m 21,22 v 2 H 19 V 44 H 45 V 24 h -2 v -2 z m 1,1 h 20 v 1 H 22 Z m -2,2 H 44 V 43 H 20 Z m 10,5 v 8 l 5,-4 z" id="path17" style="color:#000000;opacity:0.85;fill:#ffffff" />

  <path d="M 40,3 H 15 C 12.23,3 10,5.23 10,8 V 9.014 A 5.005,5.005 0 0 1 11.46,5.474 4.989,4.989 0 0 1 15,4.015 H 40 V 4 Z" id="path21" style="opacity:0.35;fill:#ffffff" />

  <path d="M 54,54.86 A 5.004,5.004 0 0 1 52.54,58.398 4.989,4.989 0 0 1 49,59.86 H 15 A 5.005,5.005 0 0 1 11.46,58.4 4.989,4.989 0 0 1 10,54.86 V 56 c 0,2.77 2.23,5 5,5 h 34 c 2.77,0 5,-2.23 5,-5 z" id="path23" style="opacity:0.2;fill-opacity:0.992" />

  <path d="M 40,3 V 14.535 A 2.456,2.456 0 0 0 42.465,17 H 54 Z" id="path25" style="opacity:0.35;fill:#ffffff;fill-rule:evenodd" />

  <path d="M 40.73,16.283 54,31 V 17 H 42.465 c -0.68,0 -1.29,-0.276 -1.735,-0.717 z" id="path27" style="opacity:0.15;fill:url(#c);fill-rule:evenodd" />
</g></svg>