<svg xmlns:xlink="http://www.w3.org/1999/xlink" xmlns="http://www.w3.org/2000/svg" viewBox="0 0 64 64" width="512" height="512" id="svg29" style="isolation:isolate">
  <defs id="defs13">
    <linearGradient xlink:href="#a" id="b" gradientUnits="userSpaceOnUse" x1="0" y1="60.774" x2="0" y2="2.345"/>
    <linearGradient id="a" y1="392.36" y2="336.36" x2="0" gradientUnits="userSpaceOnUse" gradientTransform="translate(254 -254)">
      <stop stop-color="#4ADE80" stop-opacity="0" id="stop3"/>
      <stop offset="1" stop-color="#4ADE80" stop-opacity="0.18" id="stop5"/>
    </linearGradient>
    <linearGradient id="c" y1="17.475" y2="31" x1="41.616" x2="54" gradientUnits="userSpaceOnUse">
      <stop stop-color="#052E16" id="stop8"/>
      <stop offset="1" stop-opacity="0" id="stop10"/>
    </linearGradient>
  </defs>

  <path d="M 40,3 H 15 c -2.77,0 -5,2.23 -5,5 v 48 c 0,2.77 2.23,5 5,5 h 34 c 2.77,0 5,-2.23 5,-5 V 17 Z" id="path15" style="fill:#16A34A"/>

  <path d="M 40,3 H 15 c -2.77,0 -5,2.23 -5,5 v 48 c 0,2.77 2.23,5 5,5 h 34 c 2.77,0 5,-2.23 5,-5 V 17 Z" id="path19" style="fill:url(#b)"/>

  <path d="M 21,22 V 44 H 43 V 22 Z m 1,1 h 20 v 4 H 22 Z m 0,5 h 5 v 3 h -5 z m 6,0 h 8 v 3 h -8 z m 9,0 h 5 v 3 h -5 z m -15,4 h 5 v 3 h -5 z m 6,0 h 8 v 3 h -8 z m 9,0 h 5 v 3 h -5 z m -15,4 h 5 v 3 h -5 z m 6,0 h 8 v 3 h -8 z m 9,0 h 5 v 3 h -5 z m -15,4 h 5 v 3 h -5 z m 6,0 h 8 v 3 h -8 z m 9,0 h 5 v 3 h -5 z" id="path17" style="color:#000000;opacity:0.85;fill:#ffffff"/>

  <path d="M 40,3 H 15 C 12.23,3 10,5.23 10,8 V 9.014 A 5.005,5.005 0 0 1 11.46,5.474 4.989,4.989 0 0 1 15,4.015 H 40 V 4 Z" id="path21" style="opacity:0.3;fill:#ffffff"/>

  <path d="M 54,54.86 A 5.004,5.004 0 0 1 52.54,58.398 4.989,4.989 0 0 1 49,59.86 H 15 A 5.005,5.005 0 0 1 11.46,58.4 4.989,4.989 0 0 1 10,54.86 V 56 c 0,2.77 2.23,5 5,5 h 34 c 2.77,0 5,-2.23 5,-5 z" id="path23" style="opacity:0.18;fill-opacity:0.992"/>

  <path d="M 40,3 V 14.535 A 2.456,2.456 0 0 0 42.465,17 H 54 Z" id="path25" style="opacity:0.35;fill:#ffffff;fill-rule:evenodd"/>

  <path d="M 40.73,16.283 54,31 V 17 H 42.465 c -0.68,0 -1.29,-0.276 -1.735,-0.717 z" id="path27" style="opacity:0.15;fill:url(#c);fill-rule:evenodd"/>
</svg>
