<?xml version="1.0" encoding="UTF-8" standalone="no"?>
<!-- Generator: Modified for Sweet Palette -->

<svg
   width="512"
   height="512"
   style="isolation:isolate"
   version="1.1"
   viewBox="0 0 48 48"
   id="svg3"
   sodipodi:docname="network-workgroup.svg"
   inkscape:version="1.3.2 (091e20ef0f, 2023-11-25)"
   xmlns:inkscape="http://www.inkscape.org/namespaces/inkscape"
   xmlns:sodipodi="http://sodipodi.sourceforge.net/DTD/sodipodi-0.dtd"
   xmlns:xlink="http://www.w3.org/1999/xlink"
   xmlns="http://www.w3.org/2000/svg"
   xmlns:svg="http://www.w3.org/2000/svg">
  <defs
     id="defs3">
    <!-- Sweet Palette base definition -->
    <linearGradient
       id="linearGradient10"
       inkscape:collect="always">
      <stop
         style="stop-color:#a27ae4;stop-opacity:1;"
         offset="0"
         id="stop11" />
      <stop
         style="stop-color:#7155a0;stop-opacity:1;"
         offset="1"
         id="stop12" />
    </linearGradient>
    <linearGradient
       inkscape:collect="always"
       xlink:href="#linearGradient10"
       id="linearGradient4"
       x1="2.099"
       y1="13.397551"
       x2="46.229"
       y2="46.208"
       gradientUnits="userSpaceOnUse" />
  </defs>
  <sodipodi:namedview
     id="namedview3"
     pagecolor="#ffffff"
     bordercolor="#666666"
     borderopacity="1.0"
     inkscape:showpageshadow="2"
     inkscape:pageopacity="0.0"
     inkscape:pagecheckerboard="0"
     inkscape:deskcolor="#d1d1d1"
     inkscape:document-units="pt"
     inkscape:current-layer="svg3"
     showguides="false">
    <sodipodi:guide
       position="29.843972,48"
       orientation="0,-1"
       id="guide1"
       inkscape:locked="false" />
  </sodipodi:namedview>

  <!-- Folder Main Body (Applies the Sweet linear gradient) -->
  <path
     id="path4"
     d="m 13.889648,11.469727 -7.3901363,0.01025 c -1.3399986,0 -2.5599618,0.528884 -3.4599609,1.379883 C 2.3135515,13.500863 1.5,14.819435 1.5,16.419434 v 25.100097 c 0,2.729998 2.2395145,4.940918 4.9995117,4.940918 H 41.500488 c 2.759998,0 4.999512,-2.21092 4.999512,-4.940918 V 21.319336 c 0,-2.729997 -2.239514,-4.939453 -4.999512,-4.939453 l -15.228515,0.0088 C 22.849568,16.260671 20.22115,14.524367 17.519531,12.619629 16.620532,11.98763 14.999647,11.469727 13.889648,11.469727 Z"
     style="fill:url(#linearGradient4);fill-opacity:1" />

  <!-- Back flap and shadow accent (Cleaned to solid Sweet dark accent) -->
  <path
     d="m 6.5,11.48 c -1.34,0 -2.56,0.529 -3.46,1.38 -0.6998917,2.126911 0.202267,3.266682 2.23,3.54 h 21.3 C 23,16.3658 20.3,14.58 17.52,12.62 16.621,11.988 15,11.47 13.89,11.47 Z M 2.37,13.65 C 2.36167,13.6621 2.3533,13.674 2.3451,13.6862 2.35325,13.674 2.3618,13.6621 2.37,13.65 Z m -0.202,0.324 c -0.0434,0.0748 -0.085,0.15 -0.124,0.227 0.0396,-0.0785 0.0822,-0.153 0.124,-0.227 z M 1.975,14.345 C 1.9207,14.46 1.871,14.577 1.826,14.697 1.8718,14.576 1.9225,14.459 1.975,14.345 Z M 1.783,14.814 C 1.7384,14.941 1.6999,15.072 1.666,15.203 1.7008,15.07 1.7391,14.94 1.783,14.814 Z m -0.148,0.504 c -0.03,0.129 -0.0522,0.261 -0.0718,0.394 0.02,-0.133 0.0418,-0.266 0.0718,-0.394 z m -0.0981,0.563 c -0.02,0.179 -0.0322,0.361 -0.0322,0.546 -3.73e-4,-0.186 0.012,-0.368 0.0322,-0.546 z"
     fill="#7155a0"
     id="path2"
     sodipodi:nodetypes="ccccccccccccccccccccccccc"
     style="fill:#7155a0;fill-opacity:1" />

  <!-- Workgroup Stacked Server Emblem (White elements) -->
  "network-workgroup": '''<path d="M 41.424947 31.214005 H 26.340031 C 25.811984 31.214005 25.382489 30.777372 25.382489 30.240658 V 27.251095 C 25.382489 26.714256 25.811984 26.27765 26.340031 26.27765 H 41.424947 C 41.952994 26.27765 42.382498 26.714256 42.382498 27.250979 V 30.240658 C 42.382498 30.777372 41.952994 31.214005 41.424947 31.214005 Z M 26.340031 26.993271 C 26.206668 26.993271 26.098101 27.108985 26.098101 27.251095 V 30.240658 C 26.098101 30.382795 26.206668 30.49842 26.340031 30.49842 H 41.424947 C 41.558265 30.49842 41.666868 30.382795 41.666868 30.240658 V 27.250979 C 41.666868 27.108833 41.558265 26.993271 41.424947 26.993271 Z M 41.424947 42.46024 H 26.340031 C 25.811984 42.46024 25.382489 42.023499 25.382489 41.486642 V 38.497232 C 25.382489 37.960536 25.811984 37.523903 26.340031 37.523903 H 41.424947 C 41.952994 37.523903 42.382498 37.960536 42.382498 38.497232 V 41.486642 C 42.382498 42.023508 41.952994 42.46024 41.424947 42.46024 Z M 26.340031 38.23947 C 26.206668 38.23947 26.098101 38.355095 26.098101 38.497232 V 41.486642 C 26.098101 41.628904 26.206668 41.744628 26.340031 41.744628 H 41.424947 C 41.558265 41.744628 41.666868 41.628904 41.666868 41.486642 V 38.497232 C 41.666868 38.355095 41.558265 38.23947 41.424947 38.23947 Z M 41.424947 36.837069 H 26.340031 C 25.811984 36.837069 25.382489 36.400417 25.382489 35.86374 V 32.874141 C 25.382489 32.337472 25.811984 31.90083 26.340031 31.90083 H 41.424947 C 41.952994 31.90083 42.382498 32.337472 42.382498 32.874141 V 35.86374 C 42.382498 36.400417 41.952994 36.837069 41.424947 36.837069 Z M 26.340031 32.616442 C 26.206668 32.616442 26.098101 32.73204 26.098101 32.874141 V 35.86374 C 26.098101 36.005868 26.206668 36.121457 26.340031 36.121457 H 41.424947 C 41.558265 36.121457 41.666868 36.005868 41.666868 35.86374 V 32.874141 C 41.666868 32.73204 41.558265 32.616442 41.424947 32.616442 Z" fill="#ffffff" fill-rule="evenodd"/>
<ellipse cx="39.960217" cy="28.74604" rx="0.746246" ry="0.745168" fill="#ffffff"/>
<ellipse cx="39.960217" cy="39.991905" rx="0.746246" ry="0.745169" fill="#ffffff"/>
<ellipse cx="39.960217" cy="34.368946" rx="0.746246" ry="0.745168" fill="#ffffff"/>''',
</svg>
