<svg style="isolation:isolate" viewBox="0 0 512 512" width="512" height="512" version="1.1" xmlns="http://www.w3.org/2000/svg"><defs><linearGradient id="dyn_grad" x1="0" y1="0.5" x2="1" y2="0.5"><stop offset="0%" style="stop-color:#a27ae4;stop-opacity:1"/><stop offset="100%" style="stop-color:#7155a0;stop-opacity:1"/></linearGradient></defs><path fill="url(#dyn_grad)" fill-rule="evenodd" d="M 365.232,435.829 H 452.437 C 464.512,435.829 474.24,426.101 474.24,414.027 V 87.072 H 37.76 V 414.027 C 37.76,426.101 47.488,435.829 59.563,435.829 H 146.768 V 414.027 C 146.768,401.952 156.491,392.224 168.565,392.224 H 343.435 C 355.51,392.224 365.232,401.952 365.232,414.027 Z M 5.333,87.072 V 414.027 C 5.333,428.523 11.115,442.368 21.248,452.608 C 31.488,462.741 45.333,468.523 59.829,468.523 H 452.171 C 466.667,468.523 480.512,462.741 490.752,452.608 C 500.885,442.368 506.667,428.523 506.667,414.027 V 87.072 V 65.28 C 506.667,53.195 495.488,43.483 481.6,43.483 H 30.4 C 16.512,43.483 5.333,53.195 5.333,65.28 Z"/></svg>