<?xml version="1.0" encoding="UTF-8" standalone="no"?>
<svg viewBox="0 0 48 48" width="512" height="512" xmlns="http://www.w3.org/2000/svg">
  <defs>
    <linearGradient id="grad" x1="1.5" y1="11.47" x2="46.5" y2="46.46" gradientUnits="userSpaceOnUse">
      <stop stop-color="#a27ae4" offset="0"/>
      <stop stop-color="#7155a0" offset="1"/>
    </linearGradient>
  </defs>

  <!-- Folder body -->
  <path d="M 13.89 11.47 L 6.5 11.48 C 5.16 11.48 3.94 12.01 3.04 12.86 C 2.31 13.5 1.5 14.82 1.5 16.42 L 1.5 41.52 C 1.5 44.25 3.74 46.46 6.5 46.46 L 41.5 46.46 C 44.26 46.46 46.5 44.25 46.5 41.52 L 46.5 21.32 C 46.5 18.59 44.26 16.38 41.5 16.38 L 26.27 16.39 C 22.85 16.26 20.22 14.52 17.52 12.62 C 16.62 11.99 15 11.47 13.89 11.47 Z" fill="url(#grad)"/>

  <!-- Back flap -->
  <path d="M 6.5 11.48 C 5.16 11.48 3.94 12.01 3.04 12.86 C 2.34 14.99 3.24 16.13 5.27 16.4 L 26.57 16.4 C 23 16.37 20.3 14.58 17.52 12.62 C 16.62 11.99 15 11.47 13.89 11.47 Z" fill="#7155a0"/>

  <!-- Bookmark and Heart (original with transform) -->
  <g transform="matrix(0.94972067,0,0,0.94972067,-374.63443,-463.22075)" fill="#ffffff" fill-opacity="1">
    <g transform="matrix(0.63928509,0,0,0.63928509,423.03572,513.51943)">
      <path d="M 14,25.229 7.581,29.814 C 7.276,30.031 6.875,30.061 6.542,29.889 6.209,29.718 6,29.375 6,29 V 5 C 6,3.344 7.344,2 9,2 h 10 c 1.656,0 3,1.344 3,3 V 6 C 22,6.552 21.552,7 21,7 20.448,7 20,6.552 20,6 20,6 20,5 20,5 20,4.448 19.552,4 19,4 19,4 9,4 9,4 8.448,4 8,4.448 8,5 v 22.057 l 5.419,-3.871 c 0.347,-0.248 0.815,-0.248 1.162,0 L 20,27.057 V 24 c 0,-0.552 0.448,-1 1,-1 0.552,0 1,0.448 1,1 v 5 c 0,0.375 -0.209,0.718 -0.542,0.889 -0.333,0.172 -0.734,0.142 -1.039,-0.075 z" fill="#ffffff"/>
    </g>
    <path d="m 434.56642,519.43537 c -1.21924,0 -2.21448,1.01735 -2.21448,2.27751 0,0.65577 0.26692,1.25388 0.69552,1.67015 l 3.40394,3.34026 3.40391,-3.34026 c 0.42867,-0.41619 0.69554,-1.01432 0.69554,-1.67015 0,-1.26016 -0.99525,-2.27751 -2.21448,-2.27751 -0.80302,0 -1.49884,0.43808 -1.88503,1.10078 -0.38612,-0.66267 -1.08189,-1.10078 -1.88501,-1.10078 z" fill="#ffffff"/>
  </g>
</svg>