<?xml version='1.0' encoding='UTF-8'?>
<svg xmlns="http://www.w3.org/2000/svg" xmlns:ns1="http://www.w3.org/1999/xlink" width="512" height="512" viewBox="0 0 128 128"><defs><linearGradient id="c" x1="50%" x2="50%" y1="0%" y2="98.535%"><stop offset="0%" stop-color="#ff4d8d" /><stop offset="100%" stop-color="#760032" /></linearGradient><linearGradient id="e" x1="50%" x2="10.489%" y1="50%" y2="91.194%"><stop offset="0%" stop-color="#fff" stop-opacity=".1" /><stop offset="100%" stop-color="#fff" stop-opacity=".3" /></linearGradient><path id="a" d="M58,0 L84,26 L84,95 C84,99.9705627 79.9705627,104 75,104 L9,104 C4.02943725,104 6.08718376e-16,99.9705627 0,95 L0,9 C-6.08718376e-16,4.02943725 4.02943725,9.13077564e-16 9,0 L58,0 Z" /><path id="d" d="M58,0 L84,26 L67,26 C62.0294373,26 58,21.9705627 58,17 L58,0 Z" /></defs><g transform="translate(64.0000 64.0000) scale(0.884553) translate(-64.0000 -64.0000)"><g fill="none" fill-rule="evenodd"><g transform="translate(14.44 5)scale(1.18)"><use ns1:href="#a" fill="url(#c)" /><use ns1:href="#d" fill="url(#e)" /></g><g transform="translate(0,7)"><path fill="#fff" d="M48.376997,94.6171086 C48.3587612,94.6339141 48.3587612,97.3009958 48.3210738,97.997176 C48.2837916,98.5599842 48.2270579,99.7696285 46.8751739,99.7696285 C45.4856026,99.7696285 45.1476316,98.3611777 45.0349746,97.7486679 C44.9036765,97.0692933 44.9036765,96.5054124 44.9036765,96.2576194 C44.9036765,95.462036 44.960005,93.2411962 47.0818468,93.2411962 C47.7205066,93.2411962 48.0771187,93.4074642 48.3587612,93.5394059 L48.376997,94.6171086 L48.376997,94.6171086 Z M42.9317739,96.5726347 C42.9317739,94.6500046 43.4764178,92.065163 46.8374865,92.0648055 C47.6074444,92.0648055 48.0584776,92.1810143 48.4146844,92.2800599 C48.4146844,90.0935464 48.4146844,89.8450384 47.907728,89.3644702 C49.1846423,89.2654246 49.7673788,89.0830661 50.4429156,88.8009469 C50.1989605,90.0935464 50.1989605,94.3514373 50.1989605,96.8697717 C50.1989605,99.4553284 50.4242745,100.648167 50.7245581,101.178079 C50.5555726,101.161274 50.4056334,101.145183 50.255289,101.145183 C50.1045393,101.128378 49.9359591,101.128378 49.7292862,101.128378 C49.1473601,101.128378 48.7907481,101.161274 48.4337308,101.178079 L48.3960433,99.7038364 C48.0771187,100.681063 47.3258019,101.244587 46.1615445,101.244587 C45.748604,101.244587 42.9317739,101.244587 42.9317739,96.5726347 Z M58.1850446,95.8929025 L58.1485729,96.8697717 L53.152762,96.8697717 C53.152762,97.6814455 53.1904495,100.034942 56.1199365,100.034942 C57.2465065,100.034942 57.753463,99.7535381 58.1485729,99.5375685 C58.0351054,100.051033 57.9414948,100.432198 57.9601359,101.028617 C57.6221649,101.112287 57.0017409,101.277125 55.7256371,101.277125 C52.8524785,101.277125 51.1439825,99.9516294 51.1439825,96.5883676 C51.1439825,95.7938569 51.1439825,92.0483575 54.9743203,92.0483575 C57.753463,92.0483575 58.1850446,93.954182 58.1850446,95.8929025 Z M53.1154799,95.7266345 L56.3262042,95.7266345 C56.3634864,94.5498862 56.2516399,93.125345 54.7866937,93.125345 C53.4538561,93.125345 53.1345262,94.3514373 53.1154799,95.7266345 Z M58.9051578,98.4112369 L58.9055631,98.4112369 L58.9055631,94.3357044 C58.9055631,90.7732786 58.9055631,89.6787704 58.1732926,89.4141719 C58.9801274,89.3476647 59.7318495,89.2654246 60.9520301,88.7680509 C60.8020909,90.2759049 60.7838551,93.2251058 60.7838551,94.0700332 C61.0650923,93.3906586 61.5906899,92.065163 63.393607,92.065163 C64.2944577,92.065163 65.1397904,92.4631335 65.6649827,93.2411962 C66.2092214,94.0700332 66.2845962,95.3787232 66.2845962,95.9751426 C66.2845962,96.9527269 66.0969696,98.2453265 65.5523258,99.2064627 C64.4071147,101.277125 62.2852729,101.277125 61.5530025,101.277125 C60.4069809,101.277125 59.4498017,101.128378 58.6798439,100.863064 C58.9051578,100.333152 58.9051578,99.6376868 58.9051578,98.4112369 Z M64.2940525,96.6051732 C64.2940525,95.3132887 64.01241,93.5737322 62.5851512,93.5737322 C62.416571,93.5737322 61.5339561,93.5898227 61.1400619,94.7658558 C61.0079533,95.1312879 60.8393731,95.8757394 60.8393731,97.3009958 C60.8393731,98.4938345 60.8393731,99.5211204 60.8770605,100.11754 C61.1210156,100.166884 61.4962687,100.217301 61.7969575,100.217301 C63.9751278,100.217301 64.2940525,98.1459232 64.2940525,96.6051732 Z M69.8944829,101.178079 C69.5184193,101.128378 69.2550126,101.095124 68.7103688,101.095124 C68.1106121,101.095124 67.6964558,101.128735 67.2652794,101.178079 C67.452906,100.863064 67.5278756,100.713602 67.5842041,99.6373292 C67.6595789,98.1623712 67.67822,94.2187805 67.5469219,93.3903011 C67.452906,92.7602705 67.2843257,92.6612249 67.0213243,92.495672 C68.5608348,92.3630152 68.9928217,92.2639695 69.7060459,91.9657598 C69.5565119,92.6941209 69.5366551,93.0595529 69.5366551,94.1690789 C69.4997782,99.8861949 69.4807319,100.498705 69.8944829,101.178079 Z M70.7430575,98.5270881 C70.7430575,96.3062483 72.3202555,95.4956472 74.7059092,95.4952896 C75.2132709,95.4952896 75.5139597,95.5281856 75.870977,95.5442761 C75.870977,94.2523917 75.870977,93.340957 74.3116097,93.340957 C73.3357894,93.340957 72.3782049,93.6391667 71.645124,94.2026901 C71.4765437,93.4893467 71.2889172,93.1754042 71.0631979,92.8106873 C71.6078418,92.5621792 72.6967243,92.0648055 74.5551595,92.0648055 C77.3719896,92.0648055 77.7480532,93.3073459 77.7480532,94.5670494 L77.7290069,97.9471168 C77.7290069,98.8252978 77.7290069,99.4549708 77.7662891,100.084286 C77.8234281,100.730407 77.9356798,100.896675 78.1423527,101.178079 C77.8234281,101.161274 77.5227393,101.128378 77.2038146,101.128378 C76.6401244,101.128378 76.3021534,101.161274 75.9641824,101.178079 C75.9078539,100.59775 75.8888076,100.150793 75.9078539,99.4217172 C75.5508366,100.11754 74.9693158,101.244587 73.2413682,101.244587 C73.0906186,101.244587 72.6213495,101.244587 72.1520805,101.062228 C71.1000749,100.614556 70.7430575,99.5711796 70.7430575,98.5270881 Z M75.9074487,96.4886068 L74.9113663,96.4886068 C74.1985474,96.4886068 72.6209443,96.6055307 72.6209443,98.1627288 C72.6209443,98.9744027 72.8640889,99.8025245 73.9918745,99.8025245 C74.4801899,99.8025245 75.1370856,99.5872701 75.531385,98.8413883 C75.8511202,98.2617745 75.8701665,97.5326983 75.9074487,96.4886068 Z M86.7233306,99.537926 C86.7423769,100.101449 86.7423769,100.697869 87.0049731,101.178437 C86.5912221,101.145541 86.347267,101.095482 85.5781196,101.095482 C85.1270864,101.095482 84.8831313,101.129093 84.526114,101.178437 C84.6006783,100.963182 84.6391762,100.880227 84.6764584,100.598108 C84.7327869,100.217658 84.7704743,98.9415066 84.7704743,98.4938345 L84.7704743,96.7045764 C84.7704743,95.9257986 84.7704743,94.7987519 84.7133353,94.4014965 C84.6760531,94.1200924 84.5828477,93.3581202 83.4927495,93.3581202 C82.422508,93.3581202 82.065896,94.0535852 81.9341926,94.6171086 C81.7846587,95.1967224 81.7846587,95.8267529 81.7846587,98.2785801 C81.8028946,100.399659 81.8028946,100.59775 81.9905211,101.178079 C81.6715965,101.145183 81.277297,101.112287 80.714012,101.112287 C80.2629788,101.112287 79.9626952,101.128378 79.5878473,101.178079 C79.7191454,100.912766 79.7945202,100.780109 79.8318024,99.8525837 C79.869895,98.9411491 79.9448646,94.4672886 79.7746634,93.4074642 C79.681458,92.7606281 79.4930209,92.6118808 79.2871585,92.4463279 C80.8084332,92.3798207 81.2959381,92.1642087 81.7660176,91.9496694 L81.7660176,93.7053163 C81.9909264,93.191137 82.4601954,92.0479999 84.3384874,92.0479999 C86.6860484,92.0479999 86.7042843,93.5558539 86.7233306,94.5495287 L86.7233306,99.537926 Z M70.0529321,89.6208448 L68.4976172,90.9924663 L66.9431128,89.6208448 L68.4976172,88.2492232 L70.0529321,89.6208448 Z" /></g><path fill="#fff" d="m81.2 56.6-.4 1c.6-2 .3-4.2.4-6H81a15 15 0 0 0-7.8-11.4c-3.1-1.4-7.9-1.7-10.1-.6.3-.3 1.5-.4 1.1-.6-3.4.4-2.6 1.2-5.3 1.9-.7.7 2.1-.6.6.4-1.4.3-2-.3-4.2 1.9.2.3 1.4-1 .4.3-2-.3-6.2 4.5-7.2 6l.5.2c-.8 2-1.8 3.2-2 4.3-.1 2.9-1.1 8.1.3 9.7l-.2 1.4.6 1.1h-.3c1.5 4.7 1.6.1 3.5 5l-1-.8c0 .4.6 1.7 1.4 2.7l-.3.3q.6 1 1 1.2c-1.5-.8 1.6 2.9 1.8 3.4l.3-.5q0 1 1.3 2.6h.8c.3.6 1.4 1.7 2.1 1.7l-.4.6c1.7.6.8.8 3 1.5l-.5-.7c1.1 1 1.5 1.7 3 2.5 2.1.7 2.4.4 4.6 1q-3 .1-5.5-.5A27 27 0 0 1 44 59.7c-.1-2.5.3-5.5-.1-6.1q.6-2.8 2.5-6.9c0-.1.2.6 1-.6l1.2-2.8h.2c.3-1.6 3.7-4 4.6-5.1l.1.4c2.2-2 6-3.4 8.2-4.3-.5.6 1.3-.1 2.7-.2l-1.3.7c1.6-.4 1.5.2 3.2 0-.6 0-1.3.3-1.2.3 1.8.3 2.1-.5 3.8 0v-.5c2.3.9 2.8.7 5.3 2.1 1 0 1-.6 2.4 0 .2.4 0 .5 1.6 1.5.2 0-.4-.6-.8-1 3.4 1.9 7 5.7 8.1 9.8-1-2 0 1-.4.8q.6 1.8 1 3.9c-.3-1.1-1-3.8-2.1-5.5-.1 1.1-1.5-.7-.8 1.7.6.8.2-.9.9.6l.4 2.4c-.2 0-.5-1-.7-.7q.5 1.7.8 1.9c0 .1-.3-.2-.3.6.1 1.8.5 1 .7 1.1-.2 1-1 2-.6 3.6q-.1-.8-.5-1.4c-.1 1.3.3 1.6-.3 3.2.4-1.4.4-2.8 0-2.1.2 2-1.7 3.6-1.5 5l-.5-.8c-1.5 2.1 0 1.2-1 2.8.3-.6-.2-.3.3-1-.4 0-1.4 1.3-2.4 2.1a13 13 0 0 1-13 1.9c-.2.1.8.9 1.5 1.2q2.7.9 5.1.6c-3.2 1.4-9.5-1.4-11.6-5 .5 0 2 2.5 3.3 3a9 9 0 0 1-1.8-2q1.5 1.6 3.4 2.5c0-.3.3-.4-.3-.8-3.8-2.9-6-5.4-5.2-11.1.5-.4.7-2.8 2-3.7.8-1.8 3.3-3.4 5.9-3.5a7 7 0 0 1 6 3c-2-2-5.4-2.6-8.3-1.1a8 8 0 0 0-4.4 7.7c.1-.2.2 0 .3-.5C61.3 63.7 68 68.2 73 66v.2c2-.6 1.8-1 3-2 0 .3-.8.8-.3.8.6-.1 2.6-2 3.5-2.8.5-1-.2-.6.4-1.8l.8-.3c.4-1.3.9-2 .8-3.4" /></g></g></svg>