<?xml version="1.0" encoding="UTF-8"?>
<svg width="512" height="512" viewBox="0 0 64 64" xmlns="http://www.w3.org/2000/svg">
  <defs>
    <linearGradient id="cuerpoGradient" x1="0%" y1="0%" x2="0%" y2="100%">
      <stop offset="0%" stop-color="#a27ae4" />
      <stop offset="100%" stop-color="#7240c3"/>
    </linearGradient>
    <linearGradient id="solapaGradient" x1="0%" y1="0%" x2="0%" y2="100%">
      <stop offset="0%" stop-color="#7240c3" />
      <stop offset="100%" stop-color="#7155a0" />
    </linearGradient>
  </defs>

  <path d="M 12 18 H 24 L 32 23 H 52 C 54 23 56 25 56 27 V 34 H 8 V 22 C 8 20 10 18 12 18 Z" fill="url(#solapaGradient)" />
  <path d="M 14 26 C 13 26 12 27 12 28 V 54 H 52 V 28 C 52 27 51 26 50 26 Z" fill="#dcdae8" />
  <path d="M 12 30 H 52 C 54 30 56 32 56 34 V 56 C 56 58 54 58 52 58 H 12 C 10 58 8 58 8 56 V 34 C 8 32 10 30 12 30 Z" fill="url(#cuerpoGradient)" />

  <g transform="translate(22 35) scale(0.42)" fill="#2c1e44" fill-rule="evenodd">
    <path d="M39 0C43.95 0 48 4.05 48 9C48 13.95 43.95 18 39 18C36.0891 18 33.4893 16.6 31.8414 14.4387L17.687 21.6507C17.891 22.4003 18 23.188 18 24C18 24.7081 17.9171 25.3978 17.7606 26.0598L32.0265 33.3285C33.6762 31.3041 36.1866 30.009 39 30C43.95 30 48 34.05 48 39C48 43.95 43.95 48 39 48C34.05 48 30 43.95 30 39C30.0033 37.9251 30.1944 36.8946 30.5424 35.9394L16.5857 28.8282C14.983 31.3317 12.1768 33 9 33C4.05003 33 0 28.95 0 24C0.0157928 19.036 4.03602 15.0158 9 15C12.0723 15 14.798 16.5602 16.4237 18.9274L30.4434 11.7841C30.1557 10.9065 30 9.97053 30 9C30.0159 4.03599 34.0359 0.01581 39 0ZM45 39C45 37.3533 44.4117 35.9418 43.2348 34.7652C42.0582 33.5883 40.6467 33 39 33C37.3491 33.0054 35.9376 33.594 34.7658 34.7658C33.594 35.9376 33 37.3521 33 39.0096C33 40.6497 33.5883 42.0582 34.7652 43.2348C35.9418 44.4117 37.3533 45 39 45C40.6467 45 42.0582 44.4117 43.2348 43.2348C44.4117 42.0582 45 40.6467 45 39ZM13.2349 19.7651C14.4116 20.9418 15 22.3534 15 24C15 25.6466 14.4116 27.0582 13.2349 28.2349C12.0582 29.4116 10.6466 30 9 30C7.35342 30 5.94177 29.4116 4.76508 28.2349C3.58836 27.0582 3 25.6498 3 24C3.00525 22.3522 3.59385 20.9377 4.76574 19.7657C5.93766 18.5938 7.34907 18 9 18C10.6466 18 12.0582 18.5884 13.2349 19.7651ZM43.2348 4.76508C44.4117 5.94177 45 7.35342 45 9C45 10.6466 44.4117 12.0582 43.2348 13.2349C42.0582 14.4116 40.6467 15 39 15C37.3533 15 35.9418 14.4116 34.7652 13.2349C33.5883 12.0582 33 10.6498 33 9.00957C33.0054 7.35225 33.594 5.93766 34.7658 4.76574C35.9376 3.59385 37.3491 3.00528 39 3C40.6467 3 42.0582 3.58836 43.2348 4.76508Z"/>
  </g>
</svg>
