<?xml version="1.0" encoding="UTF-8"?>
<svg width="512" height="512" viewBox="0 0 64 64" xmlns="http://www.w3.org/2000/svg">
  <defs>
    <linearGradient id="cuerpoGradient" x1="0%" y1="0%" x2="0%" y2="100%">
      <stop offset="0%" stop-color="#a27ae4" />
      <stop offset="100%" stop-color="#7240c3"/>
    </linearGradient>
    <linearGradient id="solapaGradient" x1="0%" y1="0%" x2="0%" y2="100%">
      <stop offset="0%" stop-color="#7240c3" />
      <stop offset="100%" stop-color="#7155a0" />
    </linearGradient>
  </defs>

  <!-- Solapa bajada -->
  <path d="M 12 18 H 24 L 32 23 H 52 C 54 23 56 25 56 27 V 34 H 8 V 22 C 8 20 10 18 12 18 Z" fill="url(#solapaGradient)" />
  
  <path d="M 14 26 C 13 26 12 27 12 28 V 54 H 52 V 28 C 52 27 51 26 50 26 Z" fill="#dcdae8" />
  
  <path d="M 12 30 H 52 C 54 30 56 32 56 34 V 56 C 56 58 54 58 52 58 H 12 C 10 58 8 58 8 56 V 34 C 8 32 10 30 12 30 Z" fill="url(#cuerpoGradient)" />

  <!-- ================================================ -->
  <!-- EMBLEMA DE CELULOIDE - MÁS A LA DERECHA          -->
  <!-- Escala: 0.45  |  Posición: (24, 34)              -->
  <!-- ================================================ -->
  <g transform="translate(24, 34) scale(0.45)">
    <path d="M0 2.73949e-06L0 45L3 45L3 42L6 42L6 45L36 45L36 42L39 42L39 45L42 45L42 0L39 0L39 3L36 3L36 0L6 2.73949e-06L6 3L3 3L3 2.73949e-06L0 2.73949e-06L0 2.73949e-06ZM9 24L33 24L33 42L9 42L9 24L9 24ZM9 3L33 3L33 21L9 21L9 3L9 3ZM36 36L39 36L39 39L36 39L36 36L36 36ZM36 30L39 30L39 33L36 33L36 30L36 30ZM36 24L39 24L39 27L36 27L36 24L36 24ZM36 18L39 18L39 21L36 21L36 18L36 18ZM36 12L39 12L39 15L36 15L36 12L36 12ZM36 6L39 6L39 9L36 9L36 6L36 6ZM3 36L6 36L6 39L3 39L3 36L3 36ZM3 30L6 30L6 33L3 33L3 30L3 30ZM3 24L6 24L6 27L3 27L3 24L3 24ZM3 18L6 18L6 21L3 21L3 18L3 18ZM3 12L6 12L6 15L3 15L3 12L3 12ZM3 6L6 6L6 9L3 9L3 6L3 6Z" fill="#2c1e44"/>
  </g>
</svg>