<?xml version='1.0' encoding='UTF-8'?>
<svg xmlns="http://www.w3.org/2000/svg" width="512" height="512" viewBox="0 0 64 64">
  <defs>
    <linearGradient id="cuerpoGradient" x1="0%" y1="0%" x2="0%" y2="100%">
      <stop offset="0%" stop-color="#a27ae4" />
      <stop offset="100%" stop-color="#7240c3" />
    </linearGradient>
    <linearGradient id="solapaGradient" x1="0%" y1="0%" x2="0%" y2="100%">
      <stop offset="0%" stop-color="#7240c3" />
      <stop offset="100%" stop-color="#7155a0" />
    </linearGradient>
  </defs>

  
  <g transform="translate(32.0000 32.0000) scale(1.133333) translate(-32.0000 -32.0000)"><path d="M 12 18 H 24 L 32 23 H 52 C 54 23 56 25 56 27 V 34 H 8 V 22 C 8 20 10 18 12 18 Z" fill="url(#solapaGradient)" />
  
  <path d="M 14 26 C 13 26 12 27 12 28 V 54 H 52 V 28 C 52 27 51 26 50 26 Z" fill="#dcdae8" />
  
  <path d="M 12 30 H 52 C 54 30 56 32 56 34 V 56 C 56 58 54 58 52 58 H 12 C 10 58 8 58 8 56 V 34 C 8 32 10 30 12 30 Z" fill="url(#cuerpoGradient)" />

  
  
  
  
  
  <g transform="translate(2, 12) scale(0.9)">
    
    <path d="M 41.424947 31.214005 H 26.340031 C 25.811984 31.214005 25.382489 30.777372 25.382489 30.240658 V 27.251095 C 25.382489 26.714256 25.811984 26.27765 26.340031 26.27765 H 41.424947 C 41.952994 26.27765 42.382498 26.714256 42.382498 27.250979 V 30.240658 C 42.382498 30.777372 41.952994 31.214005 41.424947 31.214005 Z" fill="none" stroke="#2c1e44" stroke-width="1" />
    
    
    <path d="M 41.424947 38.46024 H 26.340031 C 25.811984 38.46024 25.382489 38.023499 25.382489 37.486642 V 34.497232 C 25.382489 33.960536 25.811984 33.523903 26.340031 33.523903 H 41.424947 C 41.952994 33.523903 42.382498 33.960536 42.382498 34.497232 V 37.486642 C 42.382498 38.023508 41.952994 38.46024 41.424947 38.46024 Z" fill="none" stroke="#2c1e44" stroke-width="1" />
    
    
    <path d="M 41.424947 45.46024 H 26.340031 C 25.811984 45.46024 25.382489 45.023499 25.382489 44.486642 V 41.497232 C 25.382489 40.960536 25.811984 40.523903 26.340031 40.523903 H 41.424947 C 41.952994 40.523903 42.382498 40.960536 42.382498 41.497232 V 44.486642 C 42.382498 45.023508 41.952994 45.46024 41.424947 45.46024 Z" fill="none" stroke="#2c1e44" stroke-width="1" />
    
    
    <ellipse cx="39.960217" cy="28.74604" rx="0.746246" ry="0.745168" fill="#2c1e44" />
    <ellipse cx="39.960217" cy="35.991905" rx="0.746246" ry="0.745169" fill="#2c1e44" />
    <ellipse cx="39.960217" cy="43.368946" rx="0.746246" ry="0.745168" fill="#2c1e44" />
  </g>
</g></svg>