<?xml version='1.0' encoding='UTF-8'?>
<svg xmlns="http://www.w3.org/2000/svg" viewBox="0 0 64 64" width="512" height="512">
  <defs>
    
    <linearGradient id="bodyGrad" x1="0" y1="0" x2="0" y2="1" gradientUnits="objectBoundingBox">
      <stop offset="0%" stop-color="#FF8C5A" />
      <stop offset="100%" stop-color="#E06030" />
    </linearGradient>
    
    
    <linearGradient id="foldGrad" x1="0" y1="0" x2="1" y2="1" gradientUnits="objectBoundingBox">
      <stop offset="0%" stop-color="#CC4A1A" />
      <stop offset="100%" stop-color="#993310" />
    </linearGradient>
    
    <linearGradient id="b" x1="0" y1="60.774" x2="0" y2="2.345" gradientUnits="userSpaceOnUse">
      <stop stop-color="#fff" stop-opacity="0" />
      <stop offset="1" stop-color="#fff" stop-opacity=".25" />
    </linearGradient>
    <linearGradient id="c" x1="41.616" y1="17.475" x2="54" y2="31" gradientUnits="userSpaceOnUse">
      <stop stop-color="#060606" />
      <stop offset="1" stop-opacity="0" />
    </linearGradient>
  </defs>

  
  <g transform="translate(32.0000 32.0000) scale(0.937931) translate(-32.0000 -32.0000)"><path d="M 40,3 H 15 c -2.77,0 -5,2.23 -5,5 v 48 c 0,2.77 2.23,5 5,5 h 34 c 2.77,0 5,-2.23 5,-5 V 17 Z" fill="url(#bodyGrad)" />
  
  
  <path d="M 19,26 V 42 H 45 V 26 Z m 1,1 H 44 V 41 H 20 Z m 1,1 v 12 h 2 v -9.174 l 4,4 4,-4 V 40 h 2 V 28 H 31 L 27.002,31.998 23.004,28 h -0.002 z m 17,0 v 8 h -3 l 4,4 4,-4 h -3 v -8 z" opacity=".7" fill="#2A1508" />
  
  <path d="M 40,3 H 15 c -2.77,0 -5,2.23 -5,5 v 48 c 0,2.77 2.23,5 5,5 h 34 c 2.77,0 5,-2.23 5,-5 V 17 Z" fill="url(#b)" />
  
  
  <path d="M 40,3 H 15 C 12.23,3 10,5.23 10,8 V 9.014 A 5.005,5.005 0 0 1 11.46,5.474 4.989,4.989 0 0 1 15,4.015 H 40 V 4 Z" opacity=".6" fill="#FFD4B3" />
  
  
  <path d="M 54,54.86 A 5.004,5.004 0 0 1 52.54,58.398 4.989,4.989 0 0 1 49,59.86 H 15 A 5.005,5.005 0 0 1 11.46,58.4 4.989,4.989 0 0 1 10,54.86 V 56 c 0,2.77 2.23,5 5,5 h 34 c 2.77,0 5,-2.23 5,-5 z" opacity=".3" />
  
  
  <path d="M 40,3 V 14.535 A 2.456,2.456 0 0 0 42.465,17 H 54 Z" opacity=".9" fill="url(#foldGrad)" fill-rule="evenodd" />
  
  <path d="M 40.73,16.283 54,31 V 17 H 42.465 c -0.68,0 -1.29,-0.276 -1.735,-0.717 z" opacity=".3" fill="url(#c)" fill-rule="evenodd" />
</g></svg>