<?xml version="1.0" encoding="UTF-8"?>
<svg width="512" height="512" viewBox="0 0 64 64" xmlns="http://www.w3.org/2000/svg">
  <defs>
    <linearGradient id="cuerpoGradient" x1="0%" y1="0%" x2="0%" y2="100%">
      <stop offset="0%" stop-color="#a27ae4" />
      <stop offset="100%" stop-color="#7240c3"/>
    </linearGradient>
    <linearGradient id="solapaGradient" x1="0%" y1="0%" x2="0%" y2="100%">
      <stop offset="0%" stop-color="#7240c3" />
      <stop offset="100%" stop-color="#7155a0" />
    </linearGradient>
  </defs>

  <!-- Solapa bajada -->
  <path d="M 12 18 H 24 L 32 23 H 52 C 54 23 56 25 56 27 V 34 H 8 V 22 C 8 20 10 18 12 18 Z" fill="url(#solapaGradient)" />
  
  <path d="M 14 26 C 13 26 12 27 12 28 V 54 H 52 V 28 C 52 27 51 26 50 26 Z" fill="#dcdae8" />
  
  <path d="M 12 30 H 52 C 54 30 56 32 56 34 V 56 C 56 58 54 58 52 58 H 12 C 10 58 8 58 8 56 V 34 C 8 32 10 30 12 30 Z" fill="url(#cuerpoGradient)" />

  <!-- ================================================ -->
  <!-- EMBLEMA DE USER-HOME - MÁS IZQ, UN PELITO ARRIBA  -->
  <!-- Escala: 0.40  |  Posición: (22, 35)               -->
  <!-- ================================================ -->
  <g transform="translate(22, 35) scale(0.40)" fill="#2c1e44">
    <path d="M48 24L24 0L0 24L2.12132 26.1087L6 22.23L6 45L42 45L42 22.23L45.885 26.115L48 24L48 24ZM33 27L33 42L39 42L39 19.23L24 4.23L9 19.23L9 42L24 42L24 27L33 27L33 27ZM33.255 6L42 15L42 6L33.255 6L33.255 6Z" fill-rule="evenodd"/>
  </g>
</svg>