<svg xmlns="http://www.w3.org/2000/svg" width="512" height="512" viewBox="0 0 128 128" style="isolation:isolate">
    <defs id="defs29">
        <filter id="blur" x="0" y="0">
            <feGaussianBlur in="SourceGraphic" stdDeviation="3"/>
        </filter>
        <linearGradient id="debian_luminous_magenta" x1="0" y1="0" x2="0" y2="1" gradientUnits="objectBoundingBox">
            <stop offset="0%" style="stop-color:#FF4D8D;stop-opacity:1"/>
            <stop offset="100%" style="stop-color:#b3004c;stop-opacity:1"/>
        </linearGradient>
    </defs>

    <g transform="translate(20 8)">
        <rect width="88" height="112" rx="8" fill="#860039" id="bottom"/>
        <rect width="88" height="108" rx="8" fill="url(#debian_luminous_magenta)" id="bag"/>
    </g>

    <g id="holder" transform="translate(38 12)">
        <g fill="#1A1A1A" opacity="0.3">
            <circle r="4" transform="translate(48 4)"/>
            <circle r="4" transform="translate(4 4)"/>
        </g>
        <g fill="none" stroke-linecap="round" transform="translate(4 4)">
            <path id="shadow" filter="url(#blur)" d="M44 0C44 14.36 34.15 26 22 26C9.85 26 0 14.36 0 0" stroke-width="4" stroke="#1A1A1A" opacity="0.2"/>
            <path d="M44 0C44 12.15 34.15 22 22 22C9.85 22 0 12.15 0 0" stroke-width="4" stroke="#E4D1C1"/>
            <path d="M44 0C44 12.15 34.15 22 22 22C9.85 22 0 12.15 0 0" stroke-width="2" stroke="#F5F4F3"/>
        </g>
    </g>

    <path id="debian" d="M26.1278 54C17.87 51 12.9377 47.3628 7.57678 39.2822C6.23725 37.0337 3.82381 32 3.93121 25.5264C3.71642 19 6.987 11.5044 13.1525 7.54355C19.05 3.31562 26.7174 3.262 31.274 4.921C35.94 6.63326 37.868 9.5776 37.9226 9.41678C37.7615 9.47 40.4415 11.6652 41.621 16.5354C42.9077 21.1922 41.5682 28.952 35.1333 32.11C32.186 33.7151 28.3254 34 25.27 32.86C22.2664 31.6285 20.0687 28.9521 19.317 26.1686C17.7627 20 22.4266 16.59 24.5178 16.2674C32.882 13.43 37.17 26.6 27.36 27.7212C31.81 29.2192 36.4191 24.617 35.562 19.9067C35.4 15.251 29.7186 10.59 23.446 12.521C21.8378 12.95 19.317 14.127 17.3878 16.7C15.404 19.2644 14.492 23.278 15.565 27.1316C16.53 31.0924 19.64 34.84 23.8754 36.5C28.1663 38.1 33 37.6215 36.96 35.5874C45.3748 31.4131 47.09 21.244 45.43 15.6242C43.928 9.63 40.6573 6.9 40.8184 6.84671C40.7637 7 38.406 3.422 32.5616 1.22703C26.88 -0.807 18.032 -0.6462 10.9021 4.27856C3.66367 8.93531 -0.303112 18.09 0 25.4727C-0.09 32.9657 2.7 38.6926 4.2 41.2081C10.3642 50.5742 17.3878 53.5185 26.1277 54C26.1277 54 26.1278 54 26.1278 54Z" fill="#ffffff" transform="translate(41 54)"/>
</svg>
