<?xml version='1.0' encoding='UTF-8'?>
<svg xmlns="http://www.w3.org/2000/svg" width="512" height="512" viewBox="0 0 64 64" version="1.1">
  <defs id="defs3051">
  <linearGradient id="folderGradient" x1="0%" y1="0%" x2="0%" y2="100%">
    <stop offset="0%" style="stop-color:#a27ae4;stop-opacity:1" />
    <stop offset="100%" style="stop-color:#7240c3;stop-opacity:1" />
  </linearGradient>
    <style type="text/css" id="current-color-scheme">
      .ColorScheme-Text {
      color:#232629;
      }
      .ColorScheme-Accent {
      color:#a27ae4;
      }
    </style>
  </defs>
  <g transform="translate(32.0000 32.0000) scale(0.937931) translate(-32.0000 -32.0000)"><path style="fill:url(#folderGradient)" d="m 4.0006635,10 v 1 9 0 c -0.5203637,0.02153 -1.0229638,0.505476 -0.999899,1 h 0.00195 c -4.69e-5,0.004 -0.00195,0.008 -0.00195,0.01172 V 50 a 6,6 0 0 0 6,6 H 54.995109 a 6,6 0 0 0 6,-6 V 21.011719 21 17 c 0.05936,-0.589244 -0.407896,-1.006383 -0.999899,-1 v -4 c 0,-0.003 -0.002,0.004 -0.002,0 h 0.002 v 0 c -0.0061,-1.000671 -0.953819,-1.995969 -1.999798,-2 H 31.997836 L 27.99824,6 H 8.0002595 C 5.9630216,5.99492 4.0363539,7.9703236 4.0006635,10 Z" class="ColorScheme-Accent" id="path1" />
  <path style="fill-opacity:0.33" d="m 4.0302775,10 -0.029614,1 v 9 H 21.998846 l 3.999596,-4 h 33.996566 v -4 c 0,-0.003 -0.002,0.004 -0.002,0 h 0.002 C 59.988808,10.988725 58.990992,9.9943186 57.99521,10 H 31.997836 L 27.99824,6 H 8.0002595 C 5.9928069,6.00259 3.994256,8.0072001 4.0302775,10 Z" id="path2" />
  <path style="fill:#dbcbfa;fill-opacity:0.2" d="m 27.99824,6 2.999697,5 h 1.999798 24.997475 c 1.212814,-0.06389 2.005543,1.005906 1.999798,2 v -1 c 6e-4,-0.992592 -0.988601,-1.993446 -1.999798,-2 H 32.997735 31.997836 Z m -1.999798,10 -3.999596,4 H 3.0007645 v 1 H 22.998745 Z" id="path3" />
  <path style="fill-opacity:0.2" d="m 25.998442,16 -5.999394,3 H 4.0006635 v 1 H 21.998846 Z" class="ColorScheme-Text" id="path4" />
  <path id="path12-2" class="ColorScheme-Background" d="M 22,27 V 47 H 42 V 27 Z m 1,1 h 2 v 2 h -2 z m 16,0 h 2 v 2 h -2 z m -13,1 h 12 v 7 H 26 Z m -3,3 h 2 v 2 h -2 z m 16,0 h 2 v 2 h -2 z m -16,4 h 2 v 2 h -2 z m 16,0 h 2 v 2 h -2 z m -13,2 h 12 v 7 H 26 Z m -3,2 h 2 v 2 h -2 z m 16,0 h 2 v 2 h -2 z m -16,4 h 2 v 2 h -2 z m 16,0 h 2 v 2 h -2 z" style="color:#eff0f1;fill:#e5e5e5;fill-opacity:1;stroke:none" />
</g></svg>