<?xml version='1.0' encoding='UTF-8'?>
<svg xmlns="http://www.w3.org/2000/svg" height="512" width="512" viewBox="0 0 64 64" version="1.1">
  <defs>
    <linearGradient id="folderGradient" x1="0%" y1="0%" x2="0%" y2="100%">
      <stop offset="0%" style="stop-color:#a27ae4;stop-opacity:1" />
      <stop offset="100%" style="stop-color:#7240c3;stop-opacity:1" />
    </linearGradient>
  </defs>

  <g transform="translate(32.0000 32.0000) scale(1.088000) translate(-32.0000 -32.0000)"><path style="fill:url(#folderGradient);fill-opacity:1" d="m 13.083984,11 c -0.842518,0 -1.644779,0.169553 -2.373046,0.476562 C 9.982669,11.783573 9.32711,12.227578 8.777344,12.777344 8.227578,13.32711 7.783572,13.982668 7.476562,14.710938 7.169553,15.439206 7,16.241466 7,17.083984 v 37.832032 c 0,0.842518 0.169553,1.644778 0.476562,2.373046 0.307011,0.728269 0.751016,1.383828 1.300782,1.933594 0.549766,0.549766 1.205325,0.993772 1.933594,1.300782 C 11.439205,60.830447 12.241466,61 13.083984,61 h 37.832032 c 0.84251,0 1.644777,-0.169553 2.373046,-0.476562 0.72827,-0.30701 1.383824,-0.751016 1.933594,-1.300782 0.54976,-0.549766 0.993771,-1.205324 1.300782,-1.933594 C 56.830447,56.560795 57,55.758534 57,54.916016 V 17.083984 C 57,16.241466 56.830447,15.439205 56.523438,14.710938 56.216428,13.982669 55.772416,13.32711 55.222656,12.777344 54.672886,12.227578 54.017332,11.783573 53.289062,11.476562 52.560792,11.169553 51.758526,11 50.916016,11 Z" />

  <path style="fill:#dbcbfa;fill-opacity:1" d="m 30,12 0,2 2,0 0,-2 -2,0 z m 2,2 0,2 2,0 0,-2 -2,0 z m 0,2 -2,0 0,2 2,0 0,-2 z m 0,2 0,2 2,0 0,-2 -2,0 z m 0,2 -2,0 0,2 2,0 0,-2 z m 0,2 0,2 2,0 0,-2 -2,0 z m 0,2 -2,0 0,2 2,0 0,-2 z m -2,3 0,4 1,0 0,4 2,0 0,-4 1,0 0,-4 -4,0 z m 1,1 2,0 0,2 -2,0 0,-2 z" />
</g></svg>