<?xml version='1.0' encoding='UTF-8'?>
<svg xmlns="http://www.w3.org/2000/svg" shape-rendering="geometricPrecision" text-rendering="geometricPrecision" image-rendering="optimizeQuality" fill-rule="evenodd" clip-rule="evenodd" width="412" height="512" viewBox="0 0 412 512">

  
  <g transform="translate(206.0000 256.0000) scale(0.850000) translate(-206.0000 -256.0000)"><path fill="#A27AE4" d="M95.705.014h199.094L421 136.548v317.555c0 31.54-25.961 57.502-57.502 57.502H95.705c-31.55 0-57.502-25.873-57.502-57.502V57.515C38.203 25.886 64.076.014 95.705.014z" />

  
  <path fill="#7155A0" d="M341.028 133.408h-.019L421 188.771v-52.066h-54.357c-9.458-.15-17.998-1.274-25.615-3.297z" />

  
  <path fill="#CBB1F0" d="M294.8 0L421 136.533v.172h-54.357c-45.068-.718-69.33-23.397-71.843-61.384V0z" />


<path fill="none" stroke="#7155A0" stroke-width="15" stroke-linecap="round" opacity="0.95" d="       M110 135 L300 135       M110 175 L300 175       M110 215 L300 215       " />

  
  <path fill="#7155A0" fill-rule="nonzero" d="M0 431.901V253.404l.028-1.261c.668-16.446 14.333-29.706 30.936-29.706h7.238v50.589h342.975c12.862 0 23.373 10.51 23.373 23.371v135.504c0 12.83-10.543 23.373-23.373 23.373H23.373C10.541 455.274 0 444.75 0 431.901z" />

  
  <text x="210" y="392" font-family="Source Code Pro Bold, Arial Black, DejaVu Sans, sans-serif" font-size="90" font-weight="900" letter-spacing="2" text-anchor="middle" fill="#ffffff">TXT</text>
</g></svg>