<?xml version='1.0' encoding='UTF-8'?>
<svg xmlns="http://www.w3.org/2000/svg" width="512" height="512" viewBox="0 0 48 48" clip-rule="evenodd" fill-rule="evenodd" stroke-linejoin="round" stroke-miterlimit="2">
 <g transform="translate(24.0000 24.0000) scale(0.891803) translate(-24.0000 -24.0000)"><linearGradient id="a" x2="1" gradientTransform="matrix(44.841 -25 25 44.841 373.6 705.516)" gradientUnits="userSpaceOnUse">
  <stop stop-color="#585858" offset="0" />
  <stop stop-color="#7e7e7e" offset="1" />
 </linearGradient>
 <linearGradient id="b" x1="1.15849" x2="46.84149" y1="12" y2="12" gradientUnits="userSpaceOnUse">
  <stop stop-color="#a27ae4" offset="0" />
      <stop stop-color="#b897e6" offset="0.5" />
  <stop stop-color="#7155a0" offset="1" />
 </linearGradient>
 <path d="m46.841 11.368c0-2.174-1.756-3.936-3.921-3.936h-37.84c-2.165 0-3.922 1.762-3.922 3.936v25.387c0 2.174 1.757 3.936 3.922 3.936h37.84c2.165 0 3.921-1.762 3.921-3.936z" fill="url(#a)" />
 <path d="m46.841 14h-45.683v-2.632c0-2.174 1.757-3.936 3.922-3.936h37.84c2.165 0 3.921 1.762 3.921 3.936z" fill="url(#b)" />
 <path transform="translate(0 1)" d="m24.68 15.694c-.453-.032-.907-.032-1.36 0l-.531 2.207c-.503.081-.996.214-1.473.394l-1.563-1.645c-.408.199-.801.426-1.178.68l.644 2.176c-.395.322-.756.683-1.078 1.078l-2.177-.643c-.253.376-.481.77-.68 1.178l1.646 1.563c-.181.477-.313.969-.395 1.473l-2.206.53c-.032.453-.032.908 0 1.361l2.206.53c.082.504.214.997.395 1.473l-1.646 1.563c.199.408.427.802.68 1.179l2.177-.644c.322.395.683.755 1.078 1.078l-.644 2.176c.377.254.77.481 1.178.68l1.563-1.645c.477.181.97.313 1.473.395l.531 2.205c.453.033.907.033 1.36 0l.531-2.205c.503-.082.996-.214 1.472-.395l1.563 1.645c.409-.199.802-.426 1.179-.68l-.644-2.176c.395-.323.756-.683 1.078-1.078l2.177.644c.253-.377.481-.771.68-1.179l-1.646-1.563c.181-.476.313-.969.395-1.473l2.206-.53c.032-.453.032-.908 0-1.361l-2.206-.53c-.082-.504-.214-.996-.395-1.473l1.646-1.563c-.199-.408-.427-.802-.681-1.178l-2.176.643c-.322-.395-.683-.755-1.078-1.078l.644-2.176c-.377-.254-.771-.481-1.179-.68l-1.563 1.646c-.476-.181-.969-.314-1.472-.395l-.531-2.206zm-.68 4.088c3.081 0 5.583 2.501 5.583 5.583 0 3.081-2.502 5.582-5.583 5.582s-5.583-2.501-5.583-5.582c0-3.082 2.502-5.583 5.583-5.583z" fill="#dbcbfa" />
</g></svg>