<?xml version='1.0' encoding='UTF-8'?>
<svg xmlns="http://www.w3.org/2000/svg" width="512" height="512" viewBox="0 0 48 48" clip-rule="evenodd" fill-rule="evenodd" stroke-linejoin="round" stroke-miterlimit="2">
 <g transform="translate(24.0000 24.0000) scale(0.891803) translate(-24.0000 -24.0000)"><linearGradient id="a" x2="1" gradientTransform="matrix(44.841 -25 25 44.841 373.6 705.516)" gradientUnits="userSpaceOnUse">
  <stop stop-color="#585858" offset="0" />
  <stop stop-color="#7e7e7e" offset="1" />
 </linearGradient>
 <linearGradient id="b" x1="1.15849" x2="46.84149" y1="12" y2="12" gradientUnits="userSpaceOnUse">
  <stop stop-color="#a27ae4" offset="0" />
      <stop stop-color="#b897e6" offset="0.5" />
  <stop stop-color="#7155a0" offset="1" />
 </linearGradient>
 <path d="m46.841 11.368c0-2.174-1.756-3.936-3.921-3.936h-37.84c-2.165 0-3.922 1.762-3.922 3.936v25.387c0 2.174 1.757 3.936 3.922 3.936h37.84c2.165 0 3.921-1.762 3.921-3.936z" fill="url(#a)" />
 <path d="m46.841 14h-45.683v-2.632c0-2.174 1.757-3.936 3.922-3.936h37.84c2.165 0 3.921 1.762 3.921 3.936z" fill="url(#b)" />
 <path transform="matrix(1.28092 0 0 1.28092 -6.74233 -6.32286)" d="m24 29.37 4.725-5.961c.46-.58 1.306-.678 1.886-.218.581.461.679 1.306.218 1.887l-5.77 7.278c-.266.336-.661.51-1.059.508-.398.002-.793-.172-1.059-.508l-5.77-7.278c-.46-.58-.363-1.426.218-1.886.58-.46 1.426-.362 1.887.218zm0-6.7 2.395-3.021c.342-.431.97-.505 1.402-.162.432.342.505.971.162 1.403l-3.171 4.001c-.198.25-.492.379-.788.378-.296.001-.59-.128-.788-.378l-3.171-4.001c-.343-.432-.27-1.061.162-1.403.432-.343 1.06-.269 1.403.162z" fill="#dbcbfa" />
</g></svg>