<svg width="512" height="512" viewBox="0 0 48 48" clip-rule="evenodd" fill-rule="evenodd" stroke-linejoin="round" stroke-miterlimit="2"  xmlns="http://www.w3.org/2000/svg">
 <linearGradient id="a" x2="1" gradientTransform="matrix(44.841 -25 25 44.841 373.6 705.516)" gradientUnits="userSpaceOnUse">
  <stop stop-color="#585858" offset="0"/>
  <stop stop-color="#7e7e7e" offset="1"/>
 </linearGradient>
 <linearGradient id="b" x1="1.15849" x2="46.84149" y1="12" y2="12" gradientUnits="userSpaceOnUse">
  <stop stop-color="#a27ae4" offset="0"/>
  <stop stop-color="#7155a0" offset="1"/>
 </linearGradient>
 <path d="m46.841 11.368c0-2.174-1.756-3.936-3.921-3.936h-37.84c-2.165 0-3.922 1.762-3.922 3.936v25.387c0 2.174 1.757 3.936 3.922 3.936h37.84c2.165 0 3.921-1.762 3.921-3.936z" fill="url(#a)"/>
 <path d="m46.841 14h-45.683v-2.632c0-2.174 1.757-3.936 3.922-3.936h37.84c2.165 0 3.921 1.762 3.921 3.936z" fill="url(#b)"/>
 <path transform="translate(0 2)" d="m18.098 29.95v-.008s.305-.064.619-.131c.397-.084.681-.434.681-.84v-10.454c0-.408.287-.76.687-.842 1.835-.374 6.841-1.395 8.831-1.802.204-.041.415.011.577.143.161.131.255.328.256.536l.033 13.696c.006.399-.108.795-.328 1.136-.294.452-.756.769-1.283.881-.41.087-.842.179-1.251.266-.527.112-1.079.009-1.531-.285-.452-.293-.769-.755-.881-1.283-.017-.078-.034-.157-.05-.235-.113-.528-.01-1.079.284-1.531s.755-.77 1.283-.882c.41-.087.841-.179 1.25-.266.066-.013.131-.024.197-.031l.576-.116c.401-.081.689-.434.689-.843v-6.128c0-.175-.079-.34-.214-.451s-.313-.156-.485-.121c-1.568.314-5.353 1.074-6.913 1.387-.401.081-.69.433-.69.843v9.564c.011.408-.102.813-.327 1.16-.294.452-.756.769-1.284.881-.409.087-.84.179-1.25.266-.528.112-1.078.009-1.531-.284-.453-.294-.77-.756-.882-1.284-.016-.078-.033-.157-.05-.235-.112-.529-.01-1.079.284-1.531s.756-.77 1.284-.882c.409-.087.84-.179 1.25-.266.056-.012.113-.021.169-.028z" fill="#dbcbfa"/>
</svg>
