<?xml version='1.0' encoding='UTF-8'?>
<svg xmlns="http://www.w3.org/2000/svg" width="512" height="512" viewBox="0 0 48 48" clip-rule="evenodd" fill-rule="evenodd" stroke-linejoin="round" stroke-miterlimit="2">
 <g transform="translate(24.0000 24.0000) scale(0.891803) translate(-24.0000 -24.0000)"><linearGradient id="a" x2="1" gradientTransform="matrix(44.841 -25 25 44.841 559.4 1038.77)" gradientUnits="userSpaceOnUse">
  <stop stop-color="#585858" offset="0" />
  <stop stop-color="#7e7e7e" offset="1" />
 </linearGradient>
 <linearGradient id="b" x1="1.15849" x2="46.84149" y1="12" y2="12" gradientUnits="userSpaceOnUse">
  <stop stop-color="#a27ae4" offset="0" />
      <stop stop-color="#b897e6" offset="0.5" />
  <stop stop-color="#7155a0" offset="1" />
 </linearGradient>
 <path d="m46.841 11.368c0-2.174-1.756-3.936-3.921-3.936h-37.84c-2.165 0-3.922 1.762-3.922 3.936v25.387c0 2.174 1.757 3.936 3.922 3.936h37.84c2.165 0 3.921-1.762 3.921-3.936z" fill="url(#a)" />
 <path d="m46.841 14h-45.683v-2.632c0-2.174 1.757-3.936 3.922-3.936h37.84c2.165 0 3.921 1.762 3.921 3.936z" fill="url(#b)" />
 <path transform="matrix(.884807 0 0 .884807 -4.47034 -3.51611)" d="m34.114 25.523c1.366 0 2.676.543 3.642 1.509.966.965 1.508 2.275 1.508 3.641v10.805h-15.789c-1.365 0-2.675-.542-3.641-1.508s-1.509-2.276-1.509-3.642v-10.805zm13.883 1.68c0-.187-.1-.359-.26-.447-.161-.089-.355-.08-.507.023-1.72 1.168-5.831 3.959-7.101 4.821-.238.161-.379.435-.377.727.006.674.017 1.912.024 2.587.002.293.149.564.39.72 1.275.829 5.365 3.485 7.072 4.594.152.099.345.105.503.015.158-.089.256-.259.256-.444zm-14.463 1.292h-12.264v7.125c0 1.693 1.372 3.065 3.065 3.065h11.98v-7.408c0-1.536-1.245-2.782-2.781-2.782z" fill="#dbcbfa" />
</g></svg>