<?xml version='1.0' encoding='UTF-8'?>
<svg xmlns="http://www.w3.org/2000/svg" width="512" height="512" viewBox="0 0 48 48" clip-rule="evenodd" fill-rule="evenodd" stroke-linejoin="round" stroke-miterlimit="2">
 <g transform="translate(24.0000 24.0000) scale(0.891803) translate(-24.0000 -24.0000)"><linearGradient id="a" x2="1" gradientTransform="matrix(44.841 -25 25 44.841 373.6 705.516)" gradientUnits="userSpaceOnUse">
  <stop stop-color="#585858" offset="0" />
  <stop stop-color="#7e7e7e" offset="1" />
 </linearGradient>
 <linearGradient id="b" x1="1.15849" x2="46.84149" y1="12" y2="12" gradientUnits="userSpaceOnUse">
  <stop stop-color="#a27ae4" offset="0" />
      <stop stop-color="#b897e6" offset="0.5" />
  <stop stop-color="#7155a0" offset="1" />
 </linearGradient>
 <path d="m46.841 11.368c0-2.174-1.756-3.936-3.921-3.936h-37.84c-2.165 0-3.922 1.762-3.922 3.936v25.387c0 2.174 1.757 3.936 3.922 3.936h37.84c2.165 0 3.921-1.762 3.921-3.936z" fill="url(#a)" />
 <path d="m46.841 14h-45.683v-2.632c0-2.174 1.757-3.936 3.922-3.936h37.84c2.165 0 3.921 1.762 3.921 3.936z" fill="url(#b)" />
 <path transform="matrix(.75 0 0 .75 0 1)" d="m29.046 24.449c.379-.519.983-.827 1.626-.827h5.826c.621 0 1.208.287 1.589.778.323.416.722.928 1.053 1.353.415.534 1.054.845 1.73.842 1.046-.004 1.233-.011 2.414-.016.406-.001.797.159 1.085.446s.45.677.45 1.083v12.929c0 .405-.161.794-.448 1.081s-.676.448-1.081.448h-22.58c-.405 0-.794-.161-1.081-.448s-.448-.676-.448-1.081v-12.935c0-.406.161-.795.448-1.081.287-.287.676-.448 1.081-.448h5.677c.697 0 1.351-.333 1.762-.895.285-.391.617-.846.897-1.229zm9.491 3.59c-.701 0-1.269.568-1.269 1.269s.568 1.268 1.269 1.268c.7 0 1.268-.567 1.268-1.268s-.568-1.269-1.268-1.269zm-6.537.757c-3.031 0-5.492 2.461-5.492 5.492s2.461 5.492 5.492 5.492 5.492-2.461 5.492-5.492-2.461-5.492-5.492-5.492zm-5.867-4.33v.841c0 .232-.189.42-.42.42h-3.445c-.232 0-.42-.188-.42-.42v-.841c0-.233.188-.42.42-.42h3.445c.231 0 .42.187.42.42z" fill="#dbcbfa" />
</g></svg>