<svg width="512" height="512" viewBox="0 0 48 48" clip-rule="evenodd" fill-rule="evenodd" stroke-linejoin="round" stroke-miterlimit="2"  xmlns="http://www.w3.org/2000/svg">
 <linearGradient id="a" x2="1" gradientTransform="matrix(44.841 -25 25 44.841 373.6 705.516)" gradientUnits="userSpaceOnUse">
  <stop stop-color="#585858" offset="0"/>
  <stop stop-color="#7e7e7e" offset="1"/>
 </linearGradient>
 <linearGradient id="b" x1="1.15849" x2="46.84149" y1="12" y2="12" gradientUnits="userSpaceOnUse">
  <stop stop-color="#a27ae4" offset="0"/>
  <stop stop-color="#7155a0" offset="1"/>
 </linearGradient>
 <path d="m46.841 11.368c0-2.174-1.756-3.936-3.921-3.936h-37.84c-2.165 0-3.922 1.762-3.922 3.936v25.387c0 2.174 1.757 3.936 3.922 3.936h37.84c2.165 0 3.921-1.762 3.921-3.936z" fill="url(#a)"/>
 <path d="m46.841 14h-45.683v-2.632c0-2.174 1.757-3.936 3.922-3.936h37.84c2.165 0 3.921 1.762 3.921 3.936z" fill="url(#b)"/>
 <path transform="translate(1 2)" d="m18.259 15.17-1.233 1.233 2.008 2.008c-.169.35-.257.734-.258 1.124.001 1.103.702 2.092 1.743 2.46v7.276c-1.041.368-1.74 1.356-1.742 2.459 0 1.434 1.181 2.614 2.614 2.614 1.434 0 2.614-1.18 2.614-2.614-.002-1.103-.702-2.092-1.743-2.46v-7.276c.085-.031.17-.066.252-.105l3.491 3.49c-.168.351-.256.735-.258 1.124 0 1.434 1.18 2.614 2.614 2.614s2.613-1.18 2.613-2.614c0-1.433-1.18-2.613-2.613-2.613-.389.001-.773.089-1.123.258l-3.492-3.491c.169-.351.257-.735.259-1.123 0-1.434-1.18-2.615-2.614-2.615-.389.003-.773.09-1.124.259z" fill="#dbcbfa" fill-rule="nonzero"/>
</svg>
