<svg width="512" height="512" viewBox="0 0 48 48" clip-rule="evenodd" fill-rule="evenodd" stroke-linejoin="round" stroke-miterlimit="2"  xmlns="http://www.w3.org/2000/svg">
 <linearGradient id="a" x2="1" gradientTransform="matrix(44.841 -25 25 44.841 373.6 705.516)" gradientUnits="userSpaceOnUse">
  <stop stop-color="#585858" offset="0"/>
  <stop stop-color="#7e7e7e" offset="1"/>
 </linearGradient>
 <linearGradient id="b" x1="1.15849" x2="46.84149" y1="12" y2="12" gradientUnits="userSpaceOnUse">
  <stop stop-color="#a27ae4" offset="0"/>
  <stop stop-color="#7155a0" offset="1"/>
 </linearGradient>
 <path d="m46.841 11.368c0-2.174-1.756-3.936-3.921-3.936h-37.84c-2.165 0-3.922 1.762-3.922 3.936v25.387c0 2.174 1.757 3.936 3.922 3.936h37.84c2.165 0 3.921-1.762 3.921-3.936z" fill="url(#a)"/>
 <path d="m46.841 14h-45.683v-2.632c0-2.174 1.757-3.936 3.922-3.936h37.84c2.165 0 3.921 1.762 3.921 3.936z" fill="url(#b)"/>
 <path transform="translate(0 2)" d="m24.205 15.641c-.187-.162-.427-.252-.675-.252h-5.117c-.527 0-1.032.209-1.404.582-.373.372-.582.877-.582 1.404v14.982c0 .527.209 1.032.582 1.404.372.373.877.582 1.404.582 2.902 0 8.272-.001 11.175-.001 1.096 0 1.985-.889 1.985-1.985v-9.843c0-.298-.129-.582-.354-.777-1.304-1.133-5.822-5.059-7.014-6.096zm-5.368.793c-.326-.004-.639.123-.871.352-.232.228-.362.54-.362.866v14.434c0 .673.545 1.218 1.218 1.218h10.477c.673 0 1.218-.545 1.218-1.218v-8.768c0-.573-.464-1.037-1.036-1.037h-5.377v-4.757c0-.568-.457-1.03-1.023-1.037-1.15-.014-3.015-.038-4.244-.053z" fill="#dbcbfa"/>
</svg>
