<svg width="512" height="512" viewBox="0 0 48 48" clip-rule="evenodd" fill-rule="evenodd" stroke-linejoin="round" stroke-miterlimit="2"  xmlns="http://www.w3.org/2000/svg">
 <linearGradient id="a" x2="1" gradientTransform="matrix(44.841 -25 25 44.841 187.8 372.258)" gradientUnits="userSpaceOnUse">
  <stop stop-color="#585858" offset="0"/>
  <stop stop-color="#7e7e7e" offset="1"/>
 </linearGradient>
 <linearGradient id="b" x1="1.15849" x2="46.84149" y1="12" y2="12" gradientUnits="userSpaceOnUse">
  <stop stop-color="#a27ae4" offset="0"/>
  <stop stop-color="#7155a0" offset="1"/>
 </linearGradient>
 <path d="m46.841 11.368c0-2.174-1.756-3.936-3.921-3.936h-37.84c-2.165 0-3.922 1.762-3.922 3.936v25.387c0 2.174 1.757 3.936 3.922 3.936h37.84c2.165 0 3.921-1.762 3.921-3.936z" fill="url(#a)"/>
 <path d="m46.841 14h-45.683v-2.632c0-2.174 1.757-3.936 3.922-3.936h37.84c2.165 0 3.921 1.762 3.921 3.936z" fill="url(#b)"/>
 <path transform="translate(.000121 1)" d="m22.345 32.185c0 .913.742 1.655 1.655 1.655s1.654-.742 1.654-1.655c-.279-2.348-3.255-1.749-3.309 0zm1.655-5.351c-1.781 0-3.463.786-4.613 2.155-.357.425-.302 1.059.123 1.415.188.158.417.236.645.236.287 0 .572-.122.77-.358.768-.914 1.889-1.439 3.075-1.439s2.307.525 3.075 1.439c.199.237.484.358.77.358.228 0 .457-.077.645-.236.425-.357.48-.99.123-1.415-1.15-1.369-2.832-2.155-4.613-2.155zm0-4.419c-2.968 0-5.77 1.31-7.689 3.593-.357.424-.302 1.058.123 1.415.188.158.417.235.646.235.286 0 .571-.122.769-.358 1.536-1.828 3.778-2.876 6.151-2.876 2.372 0 4.614 1.048 6.151 2.876.199.237.483.358.769.358.229 0 .458-.077.646-.235.425-.357.48-.992.123-1.415-1.92-2.283-4.722-3.593-7.689-3.593zm10.764.775c.357.424.302 1.059-.122 1.415-.188.159-.417.236-.646.236-.286 0-.571-.122-.77-.359-2.304-2.74-5.667-4.312-9.226-4.312s-6.923 1.572-9.226 4.313c-.199.236-.484.358-.77.358-.229 0-.457-.077-.645-.236-.426-.356-.48-.99-.123-1.415 2.687-3.197 6.61-5.03 10.764-5.03s8.078 1.833 10.764 5.03z" fill="#dbcbfa" fill-opacity=".85" fill-rule="nonzero"/>
</svg>
