<?xml version='1.0' encoding='UTF-8'?>
<svg xmlns="http://www.w3.org/2000/svg" width="512" height="512" viewBox="0 0 64 64" clip-rule="evenodd" fill-rule="evenodd" stroke-linejoin="round" stroke-miterlimit="2">
 <g transform="translate(32.0000 32.0000) scale(0.895473) translate(-32.0000 -32.0000)"><linearGradient id="a" x2="1" gradientTransform="matrix(0 -49.619 49.619 0 177.88 51.088)" gradientUnits="userSpaceOnUse">
  <stop stop-color="#7155a0" offset="0" />
  <stop stop-color="#a27ae4" offset="1" />
 </linearGradient>
 <path d="m54 3.146c0-.926-.751-1.677-1.677-1.677h-34.705c-2.02 0-3.958.803-5.387 2.231-1.428 1.429-2.231 3.367-2.231 5.387v45.295c0 2.02.803 3.958 2.231 5.387 1.429 1.428 3.367 2.231 5.387 2.231h28.764c2.02 0 3.958-.803 5.387-2.231 1.428-1.429 2.231-3.367 2.231-5.387z" fill="url(#a)" />
 <g fill-rule="nonzero">
  <path transform="translate(-86.0011 .500004)" d="m107.998 25v1h16.5v-1zm0 3v1h6v-1zm0 3v1h14v-1z" fill="#333333" />
  <path d="m17.998 40.5v1h8v-1zm0-6v1h8v-1zm0-12v1h8v-1zm0-3v1h4v-1zm0-3v1h4v-1zm0-3v1h4v-1z" fill="#595959" />
  <path d="m36.001 37.5v1h6v-1zm-6.002-9v1h6v-1z" fill="#4c8a47" />
  <path d="m17.998 49.502v1h14v-1zm0-3v1h28.001v-1zm0-3.001v1h28.001v-1zm4.001-6.001v1h12v-1zm6-3v1h6v-1zm-3.999-15v1h8v-1zm0-3v1h22v-1zm0-3v1h12v-1z" fill="#676767" />
 </g>
</g></svg>