<?xml version='1.0' encoding='UTF-8'?>
<svg xmlns="http://www.w3.org/2000/svg" width="512" height="512" viewBox="0 0 64 64" version="1.1">
  <defs>
    <linearGradient id="linear0" gradientUnits="userSpaceOnUse" x1="0" y1="0" x2="0" y2="1" gradientTransform="matrix(21.010415,0,0,61.197917,0,1.406251)">
      <stop offset="0" style="stop-color:#5989b6;" />
      <stop offset="1" style="stop-color:#355878;" />
    </linearGradient>
    <linearGradient id="linear1" gradientUnits="userSpaceOnUse" x1="0" y1="0" x2="0" y2="1" gradientTransform="matrix(20.984375,0,0,61.197917,43.015625,1.395833)">
      <stop offset="0" style="stop-color:#5989b6;" />
      <stop offset="1" style="stop-color:#355878;" />
    </linearGradient>
    <filter id="filter645" x="-0.0375" y="-0.039208679" width="1.075" height="1.0784174" color-interpolation-filters="sRGB">
      <feGaussianBlur in="SourceGraphic" stdDeviation="1" result="blur" />
      <feDiffuseLighting diffuseConstant="1" surfaceScale="10" lighting-color="rgb(255,255,255)" result="diffuse">
        <feDistantLight elevation="8" azimuth="235" />
      </feDiffuseLighting>
      <feComposite in="diffuse" in2="diffuse" operator="arithmetic" k1="1" result="composite1" />
      <feComposite in="composite1" in2="SourceGraphic" k1="1" operator="arithmetic" k3="1" result="composite2" />
    </filter>
  </defs>
  <g transform="translate(32.0000 32.0000) scale(0.850000) translate(-32.0000 -32.0000)"><g style="filter:url(#filter645)">
    <path fill="url(#linear0)" d="M 13.5 51.082031 C 13.5 53.417969 14.128906 55.09375 15.371094 56.144531 C 16.667969 57.203125 18.542969 57.765625 21.003906 57.8125 L 21.003906 62.605469 C 16.871094 62.5625 13.667969 61.550781 11.417969 59.625 C 9.140625 57.675781 8.015625 54.941406 8.015625 51.425781 L 8.015625 41.050781 C 8.015625 38.675781 7.339844 36.988281 5.953125 35.980469 C 4.597656 34.953125 2.597656 34.433594 0 34.433594 L 0 29.59375 C 2.8125 29.546875 4.859375 29.015625 6.113281 27.957031 C 7.386719 26.90625 8.019531 25.292969 8.019531 23.09375 L 8.019531 12.609375 C 8.019531 9.066406 9.1875 6.316406 11.535156 4.34375 C 13.875 2.390625 17.046875 1.40625 21.011719 1.40625 L 21.011719 6.171875 C 15.996094 6.316406 13.5 8.578125 13.5 12.984375 L 13.5 23.09375 C 13.5 28.003906 11.066406 30.894531 6.214844 31.792969 L 6.214844 32.21875 C 11.0625 33.09375 13.5 36.003906 13.5 40.917969 L 13.5 51.089844" />
    <path fill="url(#linear1)" d="M 57.714844 31.78125 C 52.863281 30.886719 50.425781 27.996094 50.425781 23.082031 L 50.425781 12.972656 C 50.425781 8.5625 47.964844 6.300781 43.015625 6.160156 L 43.015625 1.394531 C 47.027344 1.394531 50.167969 2.375 52.464844 4.375 C 54.75 6.371094 55.910156 9.097656 55.910156 12.605469 L 55.910156 23.082031 C 55.910156 25.308594 56.542969 26.941406 57.828125 27.96875 C 59.125 29.003906 61.1875 29.542969 64 29.582031 L 64 34.421875 C 61.347656 34.421875 59.328125 34.941406 57.972656 35.96875 C 56.589844 36.980469 55.910156 38.667969 55.910156 41.042969 L 55.910156 51.417969 C 55.910156 54.90625 54.785156 57.625 52.5625 59.566406 C 50.328125 61.542969 47.171875 62.550781 43.015625 62.59375 L 43.015625 57.796875 C 45.425781 57.753906 47.285156 57.191406 48.550781 56.136719 C 49.792969 55.082031 50.425781 53.40625 50.425781 51.074219 L 50.425781 40.90625 C 50.425781 38.308594 51.035156 36.308594 52.230469 34.941406 C 53.425781 33.574219 55.253906 32.65625 57.714844 32.207031 L 57.714844 31.78125" />
  </g>
</g></svg>