<?xml version='1.0' encoding='UTF-8'?>
<svg xmlns="http://www.w3.org/2000/svg" width="512" height="512" viewBox="0 0 64 64" version="1.1">
  <defs>
    <linearGradient id="linear0" gradientUnits="userSpaceOnUse" x1="0" y1="0" x2="0" y2="1" gradientTransform="matrix(53.333333,0,0,64,5.333333,0)">
      <stop offset="0" style="stop-color:#5989b6;" />
      <stop offset="1" style="stop-color:#355878;" />
    </linearGradient>
    <filter id="filter567" x="-0.044997802" y="-0.0375" width="1.0899956" height="1.075" color-interpolation-filters="sRGB">
      <feGaussianBlur in="SourceGraphic" stdDeviation="1" result="blur" />
      <feDiffuseLighting diffuseConstant="1" surfaceScale="10" lighting-color="rgb(255,255,255)" result="diffuse">
        <feDistantLight elevation="8" azimuth="235" />
      </feDiffuseLighting>
      <feComposite in="diffuse" in2="diffuse" operator="arithmetic" k1="1" result="composite1" />
      <feComposite in="composite1" in2="SourceGraphic" k1="1" operator="arithmetic" k3="1" result="composite2" />
    </filter>
  </defs>
  <g transform="translate(32.0000 32.0000) scale(0.850000) translate(-32.0000 -32.0000)"><g style="filter:url(#filter567)">
    <path fill="url(#linear0)" d="M 52.46875 27.394531 C 52.542969 29.128906 51.941406 29.96875 51.417969 31.449219 L 50.464844 31.90625 C 49.671875 33.378906 50.53125 32.84375 49.964844 34.003906 C 48.75 35.058594 46.261719 37.292969 45.46875 37.488281 C 44.878906 37.480469 45.855469 36.832031 45.980469 36.578125 C 44.34375 37.660156 44.667969 38.203125 42.160156 38.863281 L 42.089844 38.707031 C 35.917969 41.511719 27.339844 35.957031 27.457031 28.386719 C 27.386719 28.871094 27.269531 28.738281 27.128906 28.941406 C 26.808594 25.035156 28.996094 21.125 32.675781 19.53125 C 36.285156 17.8125 40.515625 18.511719 43.09375 20.828125 C 41.683594 19.046875 38.859375 17.144531 35.511719 17.328125 C 32.230469 17.363281 29.167969 19.386719 28.136719 21.550781 C 26.457031 22.566406 26.269531 25.484375 25.535156 26.011719 C 24.546875 32.988281 27.386719 36.011719 32.1875 39.542969 C 32.941406 40.027344 32.394531 40.097656 32.503906 40.480469 C 30.90625 39.753906 29.4375 38.671875 28.246094 37.34375 C 28.878906 38.246094 29.5625 39.121094 30.453125 39.808594 C 28.953125 39.3125 26.9375 36.292969 26.355469 36.167969 C 28.949219 40.652344 36.863281 44.019531 41.019531 42.339844 C 39.097656 42.410156 36.65625 42.378906 34.503906 41.613281 C 33.589844 41.160156 32.363281 40.230469 32.582031 40.058594 C 38.234375 42.097656 44.09375 41.605469 48.988281 37.8125 C 50.222656 36.878906 51.59375 35.285156 51.988281 35.269531 C 51.375 36.128906 52.082031 35.675781 51.636719 36.441406 C 52.875 34.515625 51.097656 35.65625 52.917969 33.105469 L 53.59375 34 C 53.34375 32.390625 55.652344 30.453125 55.421875 27.910156 C 55.957031 27.136719 56.011719 28.753906 55.457031 30.535156 C 56.230469 28.558594 55.652344 28.246094 55.855469 26.597656 C 56.074219 27.160156 56.355469 27.734375 56.503906 28.316406 C 55.996094 26.40625 57.027344 25.09375 57.28125 23.988281 C 57.027344 23.875 56.488281 24.832031 56.375 22.578125 C 56.390625 21.589844 56.65625 22.074219 56.753906 21.824219 C 56.558594 21.707031 56.027344 20.984375 55.71875 19.53125 C 55.941406 19.199219 56.332031 20.417969 56.652344 20.46875 C 56.453125 19.324219 56.09375 18.449219 56.082031 17.5625 C 55.160156 15.71875 55.753906 17.847656 55.011719 16.777344 C 54.035156 13.828125 55.824219 16.09375 55.949219 14.75 C 57.425781 16.828125 58.277344 20.027344 58.667969 21.363281 C 58.375 19.746094 57.890625 18.171875 57.300781 16.652344 C 57.753906 16.839844 56.578125 13.355469 57.890625 15.652344 C 56.496094 10.675781 51.902344 6.042969 47.683594 3.871094 C 48.199219 4.324219 48.84375 4.902344 48.613281 4.984375 C 46.519531 3.792969 46.886719 3.691406 46.582031 3.183594 C 44.871094 2.511719 44.753906 3.234375 43.621094 3.183594 C 40.402344 1.53125 39.78125 1.707031 36.8125 0.65625 L 36.953125 1.269531 C 34.8125 0.589844 34.464844 1.53125 32.144531 1.269531 C 32.011719 1.167969 32.890625 0.878906 33.613281 0.777344 C 31.546875 1.050781 31.644531 0.390625 29.628906 0.847656 C 30.125 0.511719 30.644531 0.292969 31.183594 0 C 29.496094 0.105469 27.160156 0.953125 27.886719 0.175781 C 25.140625 1.363281 20.261719 3.019531 17.519531 5.496094 L 17.433594 4.9375 C 16.183594 6.386719 11.964844 9.269531 11.628906 11.160156 L 11.292969 11.234375 C 10.640625 12.292969 10.214844 13.5 9.699219 14.597656 C 8.847656 16.003906 8.449219 15.128906 8.5625 15.355469 C 6.886719 18.636719 6.058594 21.394531 5.332031 23.660156 C 5.847656 24.394531 5.34375 28.121094 5.546875 31.089844 C 4.691406 45.777344 16.234375 60.019531 28.832031 63.316406 C 30.6875 63.957031 33.425781 63.9375 35.765625 64 C 33.019531 63.234375 32.652344 63.59375 29.964844 62.6875 C 28.035156 61.8125 27.609375 60.8125 26.230469 59.65625 L 26.777344 60.578125 C 24.09375 59.667969 25.214844 59.449219 23.019531 58.777344 L 23.609375 58.050781 C 22.738281 57.988281 21.292969 56.636719 20.894531 55.875 L 19.941406 55.921875 C 18.796875 54.546875 18.183594 53.574219 18.230469 52.800781 L 17.921875 53.339844 C 17.574219 52.753906 13.703125 48.222656 15.71875 49.28125 C 15.339844 48.949219 14.847656 48.746094 14.296875 47.796875 L 14.707031 47.347656 C 13.746094 46.152344 12.9375 44.609375 12.996094 44.109375 C 13.515625 44.777344 13.871094 44.894531 14.222656 45.011719 C 11.78125 39.175781 11.644531 44.691406 9.800781 39.074219 L 10.1875 39.042969 C 9.894531 38.609375 9.714844 38.140625 9.464844 37.675781 L 9.640625 36.042969 C 7.878906 34.078125 9.144531 27.714844 9.402344 24.230469 C 9.578125 22.800781 10.863281 21.292969 11.84375 18.921875 L 11.246094 18.824219 C 12.390625 16.90625 17.769531 11.105469 20.246094 11.394531 C 21.453125 9.9375 20.003906 11.394531 19.777344 11.03125 C 22.417969 8.375 23.253906 9.152344 25.050781 8.683594 C 27.003906 7.578125 23.390625 9.109375 24.324219 8.261719 C 27.621094 7.441406 26.6875 6.394531 31.042969 5.972656 C 31.5 6.222656 29.96875 6.363281 29.589844 6.6875 C 32.371094 5.375 38.375 5.675781 42.285156 7.421875 C 46.828125 9.46875 51.917969 15.5 52.113281 21.183594 L 52.347656 21.238281 C 52.234375 23.515625 52.703125 26.113281 51.886719 28.503906 L 52.441406 27.375" />
  </g>
</g></svg>