<?xml version='1.0' encoding='UTF-8'?>
<svg xmlns="http://www.w3.org/2000/svg" width="512" height="512" viewBox="0 0 64 64" version="1.1">
  <defs>
    <linearGradient id="linear0" gradientUnits="userSpaceOnUse" x1="0" y1="0" x2="0" y2="1" gradientTransform="matrix(64,0,0,48,0,0)">
      <stop offset="0" style="stop-color:#5989b6;" />
      <stop offset="1" style="stop-color:#355878;" />
    </linearGradient>
    <linearGradient id="linear1" gradientUnits="userSpaceOnUse" x1="0" y1="0" x2="0" y2="1" gradientTransform="matrix(16,0,0,4,24,48)">
      <stop offset="0" style="stop-color:#5989b6;" />
      <stop offset="1" style="stop-color:#355878;" />
    </linearGradient>
    <linearGradient id="linear2" gradientUnits="userSpaceOnUse" x1="0" y1="0" x2="0" y2="1" gradientTransform="matrix(64,0,0,8,0,56)">
      <stop offset="0" style="stop-color:#5989b6;" />
      <stop offset="1" style="stop-color:#355878;" />
    </linearGradient>
    <filter id="filter846" x="-0.075" y="-0.075" width="1.15" height="1.15" color-interpolation-filters="sRGB">
      <feGaussianBlur in="SourceGraphic" stdDeviation="2" result="blur" />
      <feDiffuseLighting diffuseConstant="1" surfaceScale="10" lighting-color="rgb(255,255,255)" result="diffuse">
        <feDistantLight elevation="8" azimuth="235" />
      </feDiffuseLighting>
      <feComposite in="diffuse" in2="diffuse" operator="arithmetic" k1="1" result="composite1" />
      <feComposite in="composite1" in2="SourceGraphic" k1="1" operator="arithmetic" k3="1" result="composite2" />
    </filter>
  </defs>
  <g transform="translate(32.0000 32.0000) scale(0.850000) translate(-32.0000 -32.0000)"><g style="filter:url(#filter846)">
    <path fill="url(#linear0)" d="M 15.980469 0 C 10.941406 0.0585938 7.261719 -0.121094 4.25 1.542969 C 2.746094 2.371094 1.558594 3.777344 0.902344 5.53125 C 0.238281 7.285156 0 9.371094 0 12 L 0 36 C 0 38.628906 0.238281 40.714844 0.902344 42.46875 C 1.558594 44.222656 2.746094 45.628906 4.25 46.464844 C 7.261719 48.125 10.941406 47.941406 15.980469 48 L 48.027344 48 C 53.058594 47.941406 56.738281 48.125 59.75 46.464844 C 61.253906 45.628906 62.441406 44.222656 63.105469 42.46875 C 63.761719 40.714844 64 38.628906 64 36 L 64 12 C 64 9.371094 63.761719 7.285156 63.105469 5.53125 C 62.441406 3.777344 61.253906 2.371094 59.75 1.542969 C 56.738281 -0.121094 53.058594 0.0585938 48.027344 0 Z M 16 4 L 48 4 C 53.035156 4.058594 56.347656 4.238281 57.8125 5.046875 C 58.546875 5.453125 58.96875 5.894531 59.359375 6.9375 C 59.75 7.980469 60 9.628906 60 12 L 60 36 C 60 38.371094 59.75 40.019531 59.359375 41.0625 C 58.96875 42.105469 58.546875 42.546875 57.8125 42.953125 C 56.347656 43.761719 53.035156 43.941406 48 44 L 16 44 C 10.964844 43.941406 7.644531 43.761719 6.183594 42.953125 C 5.449219 42.546875 5.03125 42.105469 4.640625 41.0625 C 4.25 40.019531 4 38.371094 4 36 L 4 12 C 4 9.628906 4.25 7.980469 4.640625 6.9375 C 5.03125 5.894531 5.449219 5.453125 6.183594 5.046875 C 7.644531 4.238281 10.964844 4.058594 16 4 Z" />
    <path fill="url(#linear1)" d="M 24 48 L 40 48 L 40 52 L 24 52 Z" />
    <path fill="url(#linear2)" d="M 0 60 L 12 56 L 52 56 L 64 60 L 64 64 L 0 64 Z" />
  </g>
</g></svg>