<?xml version='1.0' encoding='UTF-8'?>
<svg xmlns="http://www.w3.org/2000/svg" width="512" height="512" viewBox="0 0 64 64" version="1.1">
  <defs>
    <linearGradient id="linear0" gradientUnits="userSpaceOnUse" x1="0" y1="0" x2="0" y2="1" gradientTransform="matrix(64,0,0,64,0,0)">
      <stop offset="0" style="stop-color:#5989b6;" />
      <stop offset="1" style="stop-color:#355878;" />
    </linearGradient>
    <filter id="filter738" x="-0.075" y="-0.075" width="1.15" height="1.15" color-interpolation-filters="sRGB">
      <feGaussianBlur in="SourceGraphic" stdDeviation="2" result="blur" />
      <feDiffuseLighting diffuseConstant="1" surfaceScale="10" lighting-color="rgb(255,255,255)" result="diffuse">
        <feDistantLight elevation="8" azimuth="235" />
      </feDiffuseLighting>
      <feComposite in="diffuse" in2="diffuse" operator="arithmetic" k1="1" result="composite1" />
      <feComposite in="composite1" in2="SourceGraphic" k1="1" operator="arithmetic" k3="1" result="composite2" />
    </filter>
  </defs>
  <g transform="translate(32.0000 32.0000) scale(0.850000) translate(-32.0000 -32.0000)"><g style="filter:url(#filter738)">
    <path fill="url(#linear0)" d="M 14.765625 0 C 10.691406 0 7.386719 3.308594 7.386719 7.386719 L 0 46.84375 C 2.066406 45.285156 4.605469 44.308594 7.386719 44.308594 L 56.613281 44.308594 C 59.394531 44.308594 61.933594 45.285156 64 46.84375 L 56.613281 7.386719 C 56.613281 3.308594 53.308594 0 49.234375 0 Z M 32 7.765625 C 42.628906 7.765625 51.234375 14.246094 51.234375 22.234375 C 51.234375 30.21875 42.628906 36.691406 32 36.691406 C 21.371094 36.691406 12.765625 30.21875 12.765625 22.234375 C 12.765625 14.238281 21.371094 7.765625 32 7.765625 Z M 32 17.464844 C 29.40625 17.464844 27.308594 19.066406 27.308594 21 C 27.308594 22.933594 29.40625 24.542969 32 24.542969 C 34.59375 24.542969 36.691406 22.9375 36.691406 21 C 36.691406 19.066406 34.59375 17.464844 32 17.464844 Z M 20.386719 18.691406 C 19.734375 19.734375 19.390625 20.925781 19.386719 22.152344 C 19.386719 27.089844 25.0625 30.234375 32 30.234375 C 28.910156 29.886719 19.625 25.90625 20.386719 18.691406 Z M 7.386719 46.765625 C 3.308594 46.765625 0 50.078125 0 54.152344 L 0 56.613281 C 0 60.691406 3.308594 64 7.386719 64 L 56.613281 64 C 60.691406 64 64 60.691406 64 56.613281 L 64 54.152344 C 64 50.078125 60.691406 46.765625 56.613281 46.765625 Z M 52.921875 51.691406 C 54.964844 51.691406 56.613281 53.34375 56.613281 55.386719 C 56.613281 57.421875 54.964844 59.078125 52.921875 59.078125 C 50.886719 59.078125 49.234375 57.421875 49.234375 55.386719 C 49.234375 53.34375 50.886719 51.691406 52.921875 51.691406 Z" />
  </g>
</g></svg>