<?xml version='1.0' encoding='UTF-8'?>
<svg xmlns="http://www.w3.org/2000/svg" xmlns:ns1="http://www.inkscape.org/namespaces/inkscape" width="512" height="512" viewBox="0 0 64 64" version="1.1" id="svg19" ns1:version="1.2.2 (b0a8486541, 2022-12-01)"><defs id="defs12"> <linearGradient id="linear0" gradientUnits="userSpaceOnUse" x1="0" y1="0" x2="0" y2="1" gradientTransform="matrix(24.59375,0,0,29.927083,19.552085,16.072915)"> <stop offset="0" style="stop-color:#5989b6;stop-opacity:1;" id="stop2" /> <stop offset="1" style="stop-color:#355878;stop-opacity:1;" id="stop4" /> </linearGradient> <filter style="color-interpolation-filters:sRGB;" ns1:label="Diffuse Light" id="filter1116" x="-0.085714286" y="-0.085714286"> <feGaussianBlur in="SourceGraphic" stdDeviation="2" result="blur" id="feGaussianBlur1106" /> <feDiffuseLighting diffuseConstant="1" surfaceScale="10" lighting-color="rgb(200,200,200)" result="diffuse" id="feDiffuseLighting1110"> <feDistantLight elevation="8" azimuth="235" id="feDistantLight1108" /> </feDiffuseLighting> <feComposite in="diffuse" in2="diffuse" operator="arithmetic" k1="1" result="composite1" id="feComposite1112" /> <feComposite in="composite1" in2="SourceGraphic" k1="1" operator="arithmetic" k3="1" result="composite2" id="feComposite1114" /> </filter> </defs> <g transform="translate(32.0000 32.0000) scale(0.850000) translate(-32.0000 -32.0000)"><g id="surface1" style="filter:url(#filter1116)">
<path style=" stroke:none;fill-rule:nonzero;fill:url(#linear0);" d="M 4 0 L 4 64 L 43 64 L 60 47 L 60 0 Z M 8 4 L 56 4 L 56 44 L 40 44 L 40 60 L 8 60 Z M 16 12 L 16 16 L 48 16 L 48 12 Z M 16 20 L 16 24 L 48 24 L 48 20 Z M 16 28 L 16 32 L 48 32 L 48 28 Z M 16 36 L 16 40 L 28 40 L 28 36 Z M 16 36 " />
</g>
</g></svg>