<?xml version='1.0' encoding='UTF-8'?>
<svg xmlns="http://www.w3.org/2000/svg" xmlns:ns1="http://www.inkscape.org/namespaces/inkscape" width="512" height="512" viewBox="0 0 64 64" version="1.1" id="svg19" ns1:version="1.2.2 (b0a8486541, 2022-12-01)"><defs id="defs12"> <linearGradient id="linear0" gradientUnits="userSpaceOnUse" x1="0" y1="0" x2="0" y2="1" gradientTransform="matrix(24.59375,0,0,29.927083,19.552085,16.072915)"> <stop offset="0" style="stop-color:#5989b6;stop-opacity:1;" id="stop2" /> <stop offset="1" style="stop-color:#355878;stop-opacity:1;" id="stop4" /> </linearGradient> <filter style="color-interpolation-filters:sRGB;" ns1:label="Diffuse Light" id="filter1116" x="-0.085714286" y="-0.085714286"> <feGaussianBlur in="SourceGraphic" stdDeviation="2" result="blur" id="feGaussianBlur1106" /> <feDiffuseLighting diffuseConstant="1" surfaceScale="10" lighting-color="rgb(200,200,200)" result="diffuse" id="feDiffuseLighting1110"> <feDistantLight elevation="8" azimuth="235" id="feDistantLight1108" /> </feDiffuseLighting> <feComposite in="diffuse" in2="diffuse" operator="arithmetic" k1="1" result="composite1" id="feComposite1112" /> <feComposite in="composite1" in2="SourceGraphic" k1="1" operator="arithmetic" k3="1" result="composite2" id="feComposite1114" /> </filter> </defs> <g transform="translate(32.0000 32.0000) scale(0.850000) translate(-32.0000 -32.0000)"><g id="surface1" style="filter:url(#filter1116)">
<path style=" stroke:none;fill-rule:nonzero;fill:url(#linear0);" d="M 54.988281 0 C 54.214844 -0.00390625 53.1875 0.113281 51.820312 0.308594 L 27.121094 3.824219 C 21.628906 4.949219 21.628906 5.296875 21.628906 9.757812 L 21.628906 51.566406 C 21.21875 51.296875 20.824219 51.019531 20.402344 50.753906 C 18.65625 49.628906 16.796875 48.828125 14.300781 48.828125 C 11.167969 48.828125 9.300781 49.980469 8.171875 51.496094 C 7.039062 53.011719 6.667969 54.925781 6.667969 56.402344 C 6.667969 58.183594 7.300781 60.089844 8.675781 61.535156 C 10.046875 62.984375 12.160156 64 15.195312 64 C 18.628906 64 21.039062 63.078125 22.402344 61.285156 C 23.476562 59.867188 24.070312 57.980469 24.28125 55.648438 L 24.28125 55.640625 C 24.3125 55.355469 24.332031 55.066406 24.351562 54.769531 C 24.378906 54.308594 24.375 53.445312 24.375 53.445312 L 24.375 20.46875 C 24.375 16.507812 24.371094 16.273438 29.871094 15.367188 L 49.078125 12.757812 C 54.5 12.074219 54.585938 12.546875 54.585938 15.394531 L 54.585938 46.289062 C 54.179688 46.015625 53.78125 45.742188 53.363281 45.472656 L 53.363281 45.476562 C 51.617188 44.351562 49.757812 43.550781 47.257812 43.550781 C 44.128906 43.550781 42.261719 44.703125 41.128906 46.21875 C 40 47.734375 39.625 49.648438 39.625 51.125 C 39.625 52.90625 40.261719 54.808594 41.632812 56.257812 C 43.007812 57.707031 45.121094 58.722656 48.15625 58.722656 C 51.585938 58.722656 53.996094 57.804688 55.359375 56.003906 C 56.4375 54.59375 57.027344 52.699219 57.238281 50.371094 L 57.238281 50.363281 C 57.269531 50.078125 57.292969 49.792969 57.3125 49.492188 C 57.339844 49.03125 57.332031 48.167969 57.332031 48.167969 L 57.332031 4.644531 C 57.332031 1.175781 57.308594 0.0234375 54.988281 0 Z M 54.988281 0 " />
</g>
</g></svg>