<?xml version='1.0' encoding='UTF-8'?>
<svg xmlns="http://www.w3.org/2000/svg" xmlns:ns1="http://www.inkscape.org/namespaces/inkscape" width="512" height="512" viewBox="0 0 64 64" version="1.1" id="svg19" ns1:version="1.2.2 (b0a8486541, 2022-12-01)"><defs id="defs12"> <linearGradient id="linear0" gradientUnits="userSpaceOnUse" x1="0" y1="0" x2="0" y2="1" gradientTransform="matrix(24.59375,0,0,29.927083,19.552085,16.072915)"> <stop offset="0" style="stop-color:#5989b6;stop-opacity:1;" id="stop2" /> <stop offset="1" style="stop-color:#355878;stop-opacity:1;" id="stop4" /> </linearGradient> <filter style="color-interpolation-filters:sRGB;" ns1:label="Diffuse Light" id="filter1116" x="-0.085714286" y="-0.085714286"> <feGaussianBlur in="SourceGraphic" stdDeviation="2" result="blur" id="feGaussianBlur1106" /> <feDiffuseLighting diffuseConstant="1" surfaceScale="10" lighting-color="rgb(200,200,200)" result="diffuse" id="feDiffuseLighting1110"> <feDistantLight elevation="8" azimuth="235" id="feDistantLight1108" /> </feDiffuseLighting> <feComposite in="diffuse" in2="diffuse" operator="arithmetic" k1="1" result="composite1" id="feComposite1112" /> <feComposite in="composite1" in2="SourceGraphic" k1="1" operator="arithmetic" k3="1" result="composite2" id="feComposite1114" /> </filter> </defs> <g transform="translate(32.0000 32.0000) scale(0.850000) translate(-32.0000 -32.0000)"><g id="surface1" style="filter:url(#filter1116)"><path style=" stroke:none;fill-rule:nonzero;fill:url(#linear0);" d="M 15.976562 4 C 10.945312 4.058594 7.261719 3.882812 4.246094 5.546875 C 2.6875 6.433594 1.496094 7.84375 0.886719 9.53125 C 0.230469 11.285156 0 13.371094 0 16 L 0 48 C 0 50.632812 0.230469 52.714844 0.890625 54.46875 C 1.546875 56.222656 2.742188 57.628906 4.253906 58.460938 C 7.261719 60.125 10.945312 59.941406 15.976562 60 L 48.023438 60 C 53.054688 59.941406 56.738281 60.121094 59.753906 58.460938 C 61.257812 57.632812 62.453125 56.21875 63.113281 54.46875 C 63.769531 52.714844 64 50.628906 64 48 L 64 24 C 64 21.367188 63.769531 19.285156 63.109375 17.53125 C 63.027344 17.3125 62.914062 17.117188 62.8125 16.914062 L 62.703125 16.6875 C 62.054688 15.367188 61.027344 14.273438 59.753906 13.539062 C 56.738281 11.875 53.054688 12.058594 48.023438 12 L 35.867188 12 L 27.78125 4 Z M 15.976562 4 " /></g></g></svg>