<?xml version='1.0' encoding='UTF-8'?>
<svg xmlns="http://www.w3.org/2000/svg" xmlns:ns1="http://www.inkscape.org/namespaces/inkscape" width="512" height="512" viewBox="0 0 64 64" version="1.1" id="svg19" ns1:version="1.2.2 (b0a8486541, 2022-12-01)"><defs id="defs12"> <linearGradient id="linear0" gradientUnits="userSpaceOnUse" x1="0" y1="0" x2="0" y2="1" gradientTransform="matrix(24.59375,0,0,29.927083,19.552085,16.072915)"> <stop offset="0" style="stop-color:#5989b6;stop-opacity:1;" id="stop2" /> <stop offset="1" style="stop-color:#355878;stop-opacity:1;" id="stop4" /> </linearGradient> <filter style="color-interpolation-filters:sRGB;" ns1:label="Diffuse Light" id="filter1116" x="-0.085714286" y="-0.085714286"> <feGaussianBlur in="SourceGraphic" stdDeviation="2" result="blur" id="feGaussianBlur1106" /> <feDiffuseLighting diffuseConstant="1" surfaceScale="10" lighting-color="rgb(200,200,200)" result="diffuse" id="feDiffuseLighting1110"> <feDistantLight elevation="8" azimuth="235" id="feDistantLight1108" /> </feDiffuseLighting> <feComposite in="diffuse" in2="diffuse" operator="arithmetic" k1="1" result="composite1" id="feComposite1112" /> <feComposite in="composite1" in2="SourceGraphic" k1="1" operator="arithmetic" k3="1" result="composite2" id="feComposite1114" /> </filter> </defs> <g transform="translate(32.0000 32.0000) scale(0.906667) translate(-32.0000 -32.0000)"><g id="surface1" style="filter:url(#filter1116)">
<path style=" stroke:none;fill-rule:nonzero;fill:url(#linear0);" d="M 4 8 L 4 60 L 8 60 L 8 56 L 12 56 L 12 60 L 56 60 L 56 56 L 60 56 L 60 60 L 64 60 L 64 8 L 60 8 L 60 12 L 56 12 L 56 8 L 12 8 L 12 12 L 8 12 L 8 8 Z M 16 12 L 52 12 L 52 32 L 16 32 Z M 8 16 L 12 16 L 12 20 L 8 20 Z M 56 16 L 60 16 L 60 20 L 56 20 Z M 8 24 L 12 24 L 12 28 L 8 28 Z M 56 24 L 60 24 L 60 28 L 56 28 Z M 8 32 L 12 32 L 12 36 L 8 36 Z M 56 32 L 60 32 L 60 36 L 56 36 Z M 16 36 L 52 36 L 52 56 L 16 56 Z M 8 40 L 12 40 L 12 44 L 8 44 Z M 56 40 L 60 40 L 60 44 L 56 44 Z M 8 48 L 12 48 L 12 52 L 8 52 Z M 56 48 L 60 48 L 60 52 L 56 52 Z M 56 48 " />
</g>
</g></svg>