<?xml version='1.0' encoding='UTF-8'?>
<svg xmlns="http://www.w3.org/2000/svg" xmlns:ns1="http://www.inkscape.org/namespaces/inkscape" width="512" height="512" viewBox="0 0 64 64" version="1.1" id="svg19" ns1:version="1.2.2 (b0a8486541, 2022-12-01)"><defs id="defs12"> <linearGradient id="linear0" gradientUnits="userSpaceOnUse" x1="0" y1="0" x2="0" y2="1" gradientTransform="matrix(24.59375,0,0,29.927083,19.552085,16.072915)"> <stop offset="0" style="stop-color:#5989b6;stop-opacity:1;" id="stop2" /> <stop offset="1" style="stop-color:#355878;stop-opacity:1;" id="stop4" /> </linearGradient> <filter style="color-interpolation-filters:sRGB;" ns1:label="Diffuse Light" id="filter1116" x="-0.085714286" y="-0.085714286"> <feGaussianBlur in="SourceGraphic" stdDeviation="2" result="blur" id="feGaussianBlur1106" /> <feDiffuseLighting diffuseConstant="1" surfaceScale="10" lighting-color="rgb(200,200,200)" result="diffuse" id="feDiffuseLighting1110"> <feDistantLight elevation="8" azimuth="235" id="feDistantLight1108" /> </feDiffuseLighting> <feComposite in="diffuse" in2="diffuse" operator="arithmetic" k1="1" result="composite1" id="feComposite1112" /> <feComposite in="composite1" in2="SourceGraphic" k1="1" operator="arithmetic" k3="1" result="composite2" id="feComposite1114" /> </filter> </defs> <g transform="translate(32.0000 32.0000) scale(0.850000) translate(-32.0000 -32.0000)"><g id="surface1" style="filter:url(#filter1116)">
<path style=" stroke:none;fill-rule:nonzero;fill:url(#linear0);" d="M 15.976562 4 C 10.945312 4.058594 7.261719 3.882812 4.246094 5.546875 C 2.6875 6.433594 1.496094 7.84375 0.886719 9.53125 C 0.230469 11.285156 0 13.371094 0 16 L 0 48 C 0 50.632812 0.230469 52.714844 0.890625 54.46875 C 1.546875 56.222656 2.742188 57.628906 4.253906 58.460938 C 6.355469 59.621094 9.003906 59.828125 12 59.898438 L 16 60 L 16 56 L 12 55.839844 C 9.335938 55.714844 7.183594 55.503906 6.1875 54.953125 C 5.453125 54.550781 5.027344 54.105469 4.640625 53.0625 C 4.253906 52.023438 4 50.367188 4 48 L 4 16 C 4 13.632812 4.253906 11.976562 4.640625 10.9375 C 5.03125 9.894531 5.453125 9.453125 6.1875 9.046875 C 7.65625 8.234375 10.96875 8.058594 16.023438 8 L 26.144531 8 L 34.222656 16 L 47.96875 16 C 53.023438 16.058594 56.335938 16.238281 57.808594 17.046875 C 58.539062 17.449219 58.960938 17.894531 59.351562 18.9375 C 59.742188 19.976562 60 21.632812 60 24 L 60 48 L 64 48 L 64 24 C 64 21.367188 63.761719 19.285156 63.101562 17.53125 C 62.496094 15.84375 61.308594 14.429688 59.753906 13.539062 C 56.738281 11.875 53.054688 12.058594 48.023438 12 L 35.867188 12 L 27.78125 4 Z M 15.976562 4 " />
<path style=" stroke:none;fill-rule:nonzero;fill:url(#linear0);" d="M 36 20 C 24.980469 20 16 28.980469 16 40 C 16 51.019531 24.980469 60 36 60 C 47.019531 60 56 51.019531 56 40 C 56 28.980469 47.019531 20 36 20 Z M 36 24.160156 C 40.203125 24.152344 44.234375 25.820312 47.207031 28.792969 C 50.179688 31.765625 51.847656 35.796875 51.839844 40 C 51.847656 44.203125 50.179688 48.234375 47.207031 51.207031 C 44.234375 54.179688 40.203125 55.847656 36 55.839844 C 31.796875 55.847656 27.765625 54.179688 24.792969 51.207031 C 21.820312 48.234375 20.152344 44.203125 20.160156 40 C 20.152344 35.796875 21.820312 31.765625 24.792969 28.792969 C 27.765625 25.820312 31.796875 24.152344 36 24.160156 Z M 36 24.160156 " />
<path style=" stroke:none;fill-rule:evenodd;fill:url(#linear0);fill-opacity:1;" d="M 49.414062 50.585938 L 46.585938 53.414062 L 56.585938 63.414062 L 59.414062 60.585938 Z M 49.414062 50.585938 " />
</g>
</g></svg>