<?xml version='1.0' encoding='UTF-8'?>
<svg xmlns="http://www.w3.org/2000/svg" xmlns:ns1="http://www.inkscape.org/namespaces/inkscape" width="512" height="512" viewBox="0 0 64 64" version="1.1" id="svg19" ns1:version="1.2.2 (b0a8486541, 2022-12-01)"><defs id="defs12"> <linearGradient id="linear0" gradientUnits="userSpaceOnUse" x1="0" y1="0" x2="0" y2="1" gradientTransform="matrix(24.59375,0,0,29.927083,19.552085,16.072915)"> <stop offset="0" style="stop-color:#5989b6;stop-opacity:1;" id="stop2" /> <stop offset="1" style="stop-color:#355878;stop-opacity:1;" id="stop4" /> </linearGradient> <filter style="color-interpolation-filters:sRGB;" ns1:label="Diffuse Light" id="filter1116" x="-0.085714286" y="-0.085714286"> <feGaussianBlur in="SourceGraphic" stdDeviation="2" result="blur" id="feGaussianBlur1106" /> <feDiffuseLighting diffuseConstant="1" surfaceScale="10" lighting-color="rgb(200,200,200)" result="diffuse" id="feDiffuseLighting1110"> <feDistantLight elevation="8" azimuth="235" id="feDistantLight1108" /> </feDiffuseLighting> <feComposite in="diffuse" in2="diffuse" operator="arithmetic" k1="1" result="composite1" id="feComposite1112" /> <feComposite in="composite1" in2="SourceGraphic" k1="1" operator="arithmetic" k3="1" result="composite2" id="feComposite1114" /> </filter> </defs> <g transform="translate(32.0000 32.0000) scale(0.906667) translate(-32.0000 -32.0000)"><g id="surface1" style="filter:url(#filter1116)">
<path style=" stroke:none;fill-rule:nonzero;fill:url(#linear0);" d="M 30 4 C 22.089844 4 14.921875 7.074219 9.558594 12.070312 L 5.460938 7.96875 C 4.519531 10.585938 3.65625 13.230469 2.875 15.898438 C 2.101562 18.582031 1.390625 21.28125 0.753906 24 C 3.429688 23.398438 6.132812 22.699219 8.871094 21.90625 C 11.632812 21.097656 14.269531 20.222656 16.773438 19.289062 L 12.398438 14.90625 C 17.183594 10.464844 23.472656 8 30 8 C 44.375 8 56 19.625 56 34 C 56 48.375 44.375 60 30 60 C 16.417969 60.007812 5.125 49.542969 4.101562 36 L 0.101562 36 C 1.128906 51.753906 14.210938 64.007812 30 64 C 46.589844 64 60 50.589844 60 34 C 60 17.410156 46.589844 4 30 4 Z M 28 16 L 28 36.828125 L 37.585938 46.414062 L 40.414062 43.585938 L 32 35.171875 L 32 16 Z M 52.398438 59.878906 L 52.507812 60.023438 L 52.453125 59.9375 L 52.398438 59.882812 Z M 3.558594 59.898438 C 3.546875 59.921875 3.519531 59.9375 3.507812 59.953125 L 3.453125 60.039062 Z M 3.558594 59.898438 " />
</g>
</g></svg>