<?xml version='1.0' encoding='UTF-8'?>
<svg xmlns="http://www.w3.org/2000/svg" xmlns:ns1="http://www.inkscape.org/namespaces/inkscape" width="512" height="512" viewBox="0 0 64 64" version="1.1" id="svg19" ns1:version="1.2.2 (b0a8486541, 2022-12-01)"><defs id="defs12"> <linearGradient id="linear0" gradientUnits="userSpaceOnUse" x1="0" y1="0" x2="0" y2="1" gradientTransform="matrix(24.59375,0,0,29.927083,19.552085,16.072915)"> <stop offset="0" style="stop-color:#5989b6;stop-opacity:1;" id="stop2" /> <stop offset="1" style="stop-color:#355878;stop-opacity:1;" id="stop4" /> </linearGradient> <filter style="color-interpolation-filters:sRGB;" ns1:label="Diffuse Light" id="filter1116" x="-0.085714286" y="-0.085714286"> <feGaussianBlur in="SourceGraphic" stdDeviation="2" result="blur" id="feGaussianBlur1106" /> <feDiffuseLighting diffuseConstant="1" surfaceScale="10" lighting-color="rgb(200,200,200)" result="diffuse" id="feDiffuseLighting1110"> <feDistantLight elevation="8" azimuth="235" id="feDistantLight1108" /> </feDiffuseLighting> <feComposite in="diffuse" in2="diffuse" operator="arithmetic" k1="1" result="composite1" id="feComposite1112" /> <feComposite in="composite1" in2="SourceGraphic" k1="1" operator="arithmetic" k3="1" result="composite2" id="feComposite1114" /> </filter> </defs> <g transform="translate(32.0000 32.0000) scale(0.863492) translate(-32.0000 -32.0000)"><g id="surface1" style="filter:url(#filter1116)">
<path style=" stroke:none;fill-rule:nonzero;fill:url(#linear0);" d="M 56 20 L 56 12 L 47.992188 12 Z M 56 20 " />
<path style=" stroke:none;fill-rule:nonzero;fill:url(#linear0);" d="M 8 28 L 8 60 L 44 60 L 44 56 L 12 56 L 12 25.332031 Z M 52.007812 24 L 52 60 L 56 60 L 56 28 Z M 52.007812 24 " />
<path style=" stroke:none;fill-rule:nonzero;fill:url(#linear0);" d="M 32 35.945312 C 32.804688 35.75 33.613281 35.589844 34.429688 35.457031 C 35.441406 35.285156 36.601562 35.199219 37.914062 35.199219 C 39.097656 35.199219 40.074219 35.371094 40.855469 35.714844 C 41.636719 36.035156 42.257812 36.503906 42.714844 37.117188 C 43.191406 37.703125 43.523438 38.421875 43.714844 39.257812 C 43.902344 40.097656 44 41.015625 44 42.027344 L 44 56.800781 L 32 56.800781 Z M 32 35.945312 " />
<path style=" stroke:none;fill-rule:evenodd;fill:url(#linear0);fill-opacity:1;" d="M 32 1.171875 L 0.585938 32.585938 L 3.414062 35.414062 L 32 6.828125 L 60.585938 35.414062 L 63.414062 32.585938 Z M 32 1.171875 " />
</g>
</g></svg>