<?xml version='1.0' encoding='UTF-8'?>
<svg xmlns="http://www.w3.org/2000/svg" xmlns:ns0="http://www.inkscape.org/namespaces/inkscape" width="512" height="512" viewBox="0 0 64 64" version="1.1"><defs><linearGradient id="linear0" gradientUnits="userSpaceOnUse" x1="0" y1="0" x2="0" y2="1" gradientTransform="matrix(60.811045,0,0,61.063688,1.828787,1.733712)"><stop offset="0" style="stop-color:#5989b6;stop-opacity:1;" id="stop2" /><stop offset="1" style="stop-color:#355878;stop-opacity:1;" id="stop4" />stop-opacity:1;"/&gt;<stop offset="1" style="stop-color:#5989b6;stop-opacity:1;" id="stop2" /><stop offset="1" style="stop-color:#355878;stop-opacity:1;" id="stop4" />stop-opacity:1;"/&gt;</linearGradient><filter style="color-interpolation-filters:sRGB;" ns0:label="Diffuse Light" id="filter184" x="-0.0375" y="-0.0375"><feGaussianBlur in="SourceGraphic" stdDeviation="1" result="blur" id="feGaussianBlur174" /><feDiffuseLighting diffuseConstant="1" surfaceScale="10" lighting-color="rgb(255,255,255)" result="diffuse" id="feDiffuseLighting178"><feDistantLight elevation="8" azimuth="235" id="feDistantLight176" /></feDiffuseLighting><feComposite in="diffuse" in2="diffuse" operator="arithmetic" k1="1" result="composite1" id="feComposite180" /><feComposite in="composite1" in2="SourceGraphic" k1="1" operator="arithmetic" k3="1" result="composite2" id="feComposite182" /></filter></defs><g transform="translate(32.0000 32.0000) scale(0.884553) translate(-32.0000 -32.0000)"><g id="surface1" style="filter:url(#filter184)"><path style=" stroke:none;fill-rule:nonzero;fill:url(#linear0);" d="M 8.34375 1.734375 C 4.773438 1.734375 1.828125 5.183594 1.828125 9.367188 L 1.828125 55.164062 C 1.828125 59.355469 4.773438 62.796875 8.34375 62.796875 L 56.125 62.796875 C 59.695312 62.796875 62.640625 59.355469 62.640625 55.164062 L 62.640625 9.367188 C 62.640625 5.183594 59.695312 1.734375 56.125 1.734375 Z M 8.34375 6.824219 L 23.546875 6.824219 L 23.546875 32.085938 L 27.890625 26.996094 L 32.234375 32.085938 L 36.578125 28.269531 L 40.921875 32.085938 L 40.921875 6.824219 L 56.125 6.824219 C 57.367188 6.824219 58.296875 7.914062 58.296875 9.367188 L 58.296875 55.164062 C 58.296875 56.621094 57.367188 57.707031 56.125 57.707031 L 8.34375 57.707031 C 7.761719 57.722656 7.203125 57.460938 6.792969 56.984375 C 6.378906 56.5 6.160156 55.84375 6.171875 55.164062 L 6.171875 9.367188 C 6.171875 7.914062 7.101562 6.824219 8.34375 6.824219 Z M 27.890625 6.824219 L 36.578125 6.824219 L 36.578125 21.910156 L 32.640625 25.367188 L 27.890625 19.800781 Z M 27.890625 6.824219 " /></g></g></svg>