<?xml version='1.0' encoding='UTF-8'?>
<svg xmlns="http://www.w3.org/2000/svg" xmlns:ns0="http://www.inkscape.org/namespaces/inkscape" width="512" height="512" viewBox="0 0 64 64" version="1.1"><defs><linearGradient id="linear0" gradientUnits="userSpaceOnUse" x1="0" y1="0" x2="0" y2="1" gradientTransform="matrix(46.34375,0,0,46.34375,0,0)"><stop offset="0" style="stop-color:#5989b6;stop-opacity:1;" /><stop offset="1" style="stop-color:#355878;stop-opacity:1;" /></linearGradient><linearGradient id="linear1" gradientUnits="userSpaceOnUse" x1="0" y1="0" x2="0" y2="1" gradientTransform="matrix(46.34375,0,0,46.34375,17.65625,17.65625)"><stop offset="0" style="stop-color:#5989b6;stop-opacity:1;" /><stop offset="1" style="stop-color:#355878;stop-opacity:1;" /></linearGradient><filter style="color-interpolation-filters:sRGB;" ns0:label="Diffuse Light" id="filter184" x="-0.0375" y="-0.0375"><feGaussianBlur in="SourceGraphic" stdDeviation="1" result="blur" id="feGaussianBlur174" /><feDiffuseLighting diffuseConstant="1" surfaceScale="10" lighting-color="rgb(255,255,255)" result="diffuse" id="feDiffuseLighting178"><feDistantLight elevation="8" azimuth="235" id="feDistantLight176" /></feDiffuseLighting><feComposite in="diffuse" in2="diffuse" operator="arithmetic" k1="1" result="composite1" id="feComposite180" /><feComposite in="composite1" in2="SourceGraphic" k1="1" operator="arithmetic" k3="1" result="composite2" id="feComposite182" /></filter></defs><g transform="translate(32.0000 32.0000) scale(0.850000) translate(-32.0000 -32.0000)"><g id="surface1" style="filter:url(#filter184)"><path style=" stroke:none;fill-rule:nonzero;fill:url(#linear0);" d="M 30.898438 0 C 23.5625 0 17.65625 2.953125 17.65625 6.621094 L 17.65625 15.449219 L 30.898438 15.449219 L 30.898438 17.65625 L 6.621094 17.65625 C 2.953125 17.65625 0 23.5625 0 30.898438 L 0 33.101562 C 0 40.4375 2.953125 46.34375 6.621094 46.34375 L 15.449219 46.34375 L 15.449219 39.722656 C 15.449219 39.722656 15.449219 30.898438 24.277344 30.898438 L 41.929688 30.898438 C 41.929688 30.898438 46.34375 30.898438 46.34375 26.484375 L 46.34375 6.621094 C 46.34375 2.953125 40.4375 0 33.101562 0 Z M 24.277344 4.414062 C 25.496094 4.414062 26.484375 5.402344 26.484375 6.621094 C 26.484375 7.839844 25.496094 8.828125 24.277344 8.828125 C 23.058594 8.828125 22.070312 7.839844 22.070312 6.621094 C 22.070312 5.402344 23.058594 4.414062 24.277344 4.414062 Z M 24.277344 4.414062 " /><path style=" stroke:none;fill-rule:nonzero;fill:url(#linear1);" d="M 33.101562 64 C 40.4375 64 46.34375 61.046875 46.34375 57.378906 L 46.34375 48.550781 L 33.101562 48.550781 L 33.101562 46.34375 L 57.378906 46.34375 C 61.046875 46.34375 64 40.4375 64 33.101562 L 64 30.898438 C 64 23.5625 61.046875 17.65625 57.378906 17.65625 L 48.550781 17.65625 L 48.550781 26.484375 C 48.550781 33.101562 41.929688 33.101562 41.929688 33.101562 L 24.277344 33.101562 C 17.65625 33.101562 17.65625 39.722656 17.65625 39.722656 L 17.65625 57.378906 C 17.65625 61.046875 23.5625 64 30.898438 64 Z M 39.722656 57.378906 C 38.503906 57.378906 37.515625 56.390625 37.515625 55.171875 C 37.515625 53.953125 38.503906 52.964844 39.722656 52.964844 C 40.941406 52.964844 41.929688 53.953125 41.929688 55.171875 C 41.929688 56.390625 40.941406 57.378906 39.722656 57.378906 Z M 39.722656 57.378906 " /></g></g></svg>