<?xml version='1.0' encoding='UTF-8'?>
<svg xmlns="http://www.w3.org/2000/svg" width="512" height="512" viewBox="0 0 64 64" version="1.1">
  <defs>
    <linearGradient id="linear0" gradientUnits="userSpaceOnUse" x1="0" y1="0" x2="0" y2="1" gradientTransform="matrix(64,0,0,53.020833,0,5.489584)">
      <stop offset="0" style="stop-color:#5989b6;stop-opacity:1;" id="stop65" />
      <stop offset="1" style="stop-color:#355878;stop-opacity:1;" id="stop67" />
    </linearGradient>
    <filter id="filter1919" x="-0.0375" y="-0.045263002" width="1.075" height="1.090526" color-interpolation-filters="sRGB">
      <feGaussianBlur in="SourceGraphic" stdDeviation="1" result="blur" />
      <feDiffuseLighting diffuseConstant="1" surfaceScale="10" lighting-color="rgb(255,255,255)" result="diffuse">
        <feDistantLight elevation="8" azimuth="235" />
      </feDiffuseLighting>
      <feComposite in="diffuse" in2="diffuse" operator="arithmetic" k1="1" result="composite1" />
      <feComposite in="composite1" in2="SourceGraphic" k1="1" operator="arithmetic" k3="1" result="composite2" />
    </filter>
  </defs>
  <g transform="translate(32.0000 32.0000) scale(0.850000) translate(-32.0000 -32.0000)"><g style="filter:url(#filter1919)">
    <path fill="url(#linear0)" fill-rule="evenodd" d="M 13.472656 57.628906 L 6.003906 57.628906 L 8.058594 44.230469 L 0 44.230469 L 1.097656 36.980469 L 9.152344 36.980469 L 10.839844 25.777344 L 2.78125 25.777344 L 3.878906 18.527344 L 12.011719 18.527344 L 13.839844 6.371094 L 21.234375 6.371094 L 19.40625 18.527344 L 28.925781 18.527344 L 30.828125 6.371094 L 38.222656 6.371094 L 36.324219 18.527344 L 44.375 18.527344 L 43.347656 25.777344 L 35.222656 25.777344 L 33.535156 36.980469 L 41.59375 36.980469 L 40.496094 44.230469 L 32.4375 44.230469 L 30.390625 57.628906 L 22.996094 57.628906 L 25.042969 44.230469 L 15.527344 44.230469 Z M 18.308594 25.777344 L 16.625 36.980469 L 26.140625 36.980469 L 27.828125 25.777344 Z M 60.191406 43.496094 L 55.796875 43.496094 L 53.675781 21.894531 L 53.675781 5.488281 L 62.246094 5.488281 L 62.246094 21.894531 Z M 57.996094 58.511719 C 56.285156 58.511719 54.871094 57.949219 53.75 56.824219 C 52.625 55.703125 52.0625 54.332031 52.0625 52.722656 C 52.0625 51.113281 52.625 49.734375 53.75 48.582031 C 54.871094 47.4375 56.285156 46.863281 57.996094 46.863281 C 59.65625 46.863281 61.074219 47.4375 62.246094 48.582031 C 63.417969 49.734375 64 51.113281 64 52.722656 C 64 54.285156 63.417969 55.640625 62.246094 56.785156 C 61.074219 57.933594 59.65625 58.511719 57.996094 58.511719 Z" />
  </g>
</g></svg>