<?xml version='1.0' encoding='UTF-8'?>
<svg xmlns="http://www.w3.org/2000/svg" xmlns:ns1="http://www.inkscape.org/namespaces/inkscape" width="512" height="512" viewBox="0 0 64 64" version="1.1" id="svg19" ns1:version="1.2.2 (b0a8486541, 2022-12-01)"><defs id="defs12"> <linearGradient id="linear0" gradientUnits="userSpaceOnUse" x1="0" y1="0" x2="0" y2="1" gradientTransform="matrix(24.59375,0,0,29.927083,19.552085,16.072915)"> <stop offset="0" style="stop-color:#5989b6;stop-opacity:1;" id="stop2" /> <stop offset="1" style="stop-color:#355878;stop-opacity:1;" id="stop4" /> </linearGradient> <filter style="color-interpolation-filters:sRGB;" ns1:label="Diffuse Light" id="filter1116" x="-0.085714286" y="-0.085714286"> <feGaussianBlur in="SourceGraphic" stdDeviation="2" result="blur" id="feGaussianBlur1106" /> <feDiffuseLighting diffuseConstant="1" surfaceScale="10" lighting-color="rgb(200,200,200)" result="diffuse" id="feDiffuseLighting1110"> <feDistantLight elevation="8" azimuth="235" id="feDistantLight1108" /> </feDiffuseLighting> <feComposite in="diffuse" in2="diffuse" operator="arithmetic" k1="1" result="composite1" id="feComposite1112" /> <feComposite in="composite1" in2="SourceGraphic" k1="1" operator="arithmetic" k3="1" result="composite2" id="feComposite1114" /> </filter> </defs> <g transform="translate(32.0000 32.0000) scale(0.850000) translate(-32.0000 -32.0000)"><g id="surface1" style="filter:url(#filter1116)">
<path style=" stroke:none;fill-rule:nonzero;fill:url(#linear0);" d="M 30 0 C 25.601562 0 21.421875 1.28125 21.421875 1.28125 L 20 1.710938 L 20 8.445312 C 15.882812 9.175781 11.859375 10.367188 8.007812 12 L 8 16 L 4 16 L 4 20 L 8 20 L 8.015625 56 C 8.015625 57.757812 8.175781 59.152344 8.617188 60.328125 C 9.058594 61.503906 9.859375 62.441406 10.867188 63 C 12.878906 64.121094 15.347656 64 18.679688 64 L 41.335938 64 C 44.667969 64 47.136719 64.121094 49.148438 63 C 50.15625 62.441406 50.949219 61.503906 51.386719 60.328125 C 51.828125 59.152344 52 57.757812 52 56 L 51.992188 24 L 47.992188 24 L 48 56 C 48 57.503906 47.839844 58.410156 47.648438 58.914062 C 47.511719 59.277344 47.335938 59.433594 47.207031 59.5 C 46.515625 59.886719 44.765625 60 41.335938 60 L 18.679688 60 C 15.253906 60 13.5 59.886719 12.804688 59.5 C 12.589844 59.367188 12.429688 59.160156 12.351562 58.914062 L 12.351562 58.90625 C 12.167969 58.421875 12.015625 57.515625 12.015625 56 L 12.015625 55.992188 L 12 20 L 56 20 L 56 16 L 51.992188 16 L 52 12 C 48.148438 10.367188 44.121094 9.171875 40 8.445312 L 40 1.800781 L 38.679688 1.324219 C 38.679688 1.324219 35.027344 0.00390625 30 0.00390625 Z M 30 4 C 33.558594 4 35.160156 4.621094 36 4.878906 L 36 7.835938 C 34.011719 7.617188 32.011719 7.503906 30.007812 7.5 C 28 7.5 25.996094 7.628906 24 7.84375 L 24 4.90625 C 25.0625 4.628906 27.089844 4 30 4 Z M 20 24 L 20 48 L 24 48 L 24 24 Z M 28 24 L 28 48 L 32 48 L 32 24 Z M 36 24 L 36 48 L 40 48 L 40 24 Z M 36 24 " />
</g>
</g></svg>