<?xml version='1.0' encoding='UTF-8'?>
<svg xmlns="http://www.w3.org/2000/svg" xmlns:ns1="http://www.inkscape.org/namespaces/inkscape" width="512" height="512" viewBox="0 0 64 64" version="1.1" id="svg19" ns1:version="1.2.2 (b0a8486541, 2022-12-01)"><defs id="defs12"> <linearGradient id="linear0" gradientUnits="userSpaceOnUse" x1="0" y1="0" x2="0" y2="1" gradientTransform="matrix(24.59375,0,0,29.927083,19.552085,16.072915)"> <stop offset="0" style="stop-color:#5989b6;stop-opacity:1;" id="stop2" /> <stop offset="1" style="stop-color:#355878;stop-opacity:1;" id="stop4" /> </linearGradient> <filter style="color-interpolation-filters:sRGB;" ns1:label="Diffuse Light" id="filter1116" x="-0.085714286" y="-0.085714286"> <feGaussianBlur in="SourceGraphic" stdDeviation="2" result="blur" id="feGaussianBlur1106" /> <feDiffuseLighting diffuseConstant="1" surfaceScale="10" lighting-color="rgb(200,200,200)" result="diffuse" id="feDiffuseLighting1110"> <feDistantLight elevation="8" azimuth="235" id="feDistantLight1108" /> </feDiffuseLighting> <feComposite in="diffuse" in2="diffuse" operator="arithmetic" k1="1" result="composite1" id="feComposite1112" /> <feComposite in="composite1" in2="SourceGraphic" k1="1" operator="arithmetic" k3="1" result="composite2" id="feComposite1114" /> </filter> </defs> <g transform="translate(32.0000 32.0000) scale(0.866932) translate(-32.0000 -32.0000)"><g id="surface1" style="filter:url(#filter1116)"><path style=" stroke:none;fill-rule:nonzero;fill:url(#linear0);" d="M 1.125 47.871094 C 1.195312 52.789062 0.980469 56.390625 2.957031 59.332031 C 3.945312 60.800781 5.617188 61.96875 7.703125 62.617188 C 9.789062 63.261719 12.269531 63.484375 15.398438 63.484375 L 48.695312 63.484375 C 51.820312 63.484375 54.300781 63.261719 56.386719 62.617188 C 58.472656 61.96875 60.144531 60.800781 61.136719 59.332031 C 63.109375 56.390625 62.894531 52.789062 62.964844 47.871094 L 62.964844 16.554688 C 62.894531 11.632812 63.109375 8.039062 61.136719 5.09375 C 60.144531 3.621094 58.472656 2.460938 56.386719 1.820312 C 54.300781 1.175781 51.820312 0.941406 48.695312 0.941406 L 15.398438 0.941406 C 12.269531 0.941406 9.789062 1.171875 7.703125 1.820312 C 5.617188 2.464844 3.945312 3.625 2.957031 5.09375 C 0.980469 8.039062 1.195312 11.636719 1.125 16.554688 Z M 5.882812 47.851562 L 5.882812 16.578125 C 5.953125 11.652344 6.15625 8.417969 7.117188 6.988281 C 7.601562 6.269531 8.140625 5.859375 9.375 5.476562 C 10.613281 5.09375 12.578125 4.851562 15.398438 4.851562 L 48.695312 4.851562 C 51.515625 4.851562 53.480469 5.09375 54.714844 5.476562 C 55.949219 5.859375 56.488281 6.269531 56.972656 6.988281 C 57.933594 8.417969 58.140625 11.652344 58.207031 16.578125 L 58.207031 47.851562 Z M 5.882812 56.316406 L 5.882812 55.019531 C 5.882812 52.410156 6.835938 51.757812 10.640625 51.757812 C 14.445312 51.757812 15.398438 52.410156 15.398438 55.019531 L 15.398438 56.316406 C 15.398438 58.925781 14.445312 59.578125 10.640625 59.578125 C 6.835938 59.578125 5.882812 58.925781 5.882812 56.316406 Z M 20.152344 56.316406 L 20.152344 55.019531 C 20.152344 52.410156 21.105469 51.757812 24.910156 51.757812 C 28.714844 51.757812 29.667969 52.410156 29.667969 55.019531 L 29.667969 56.316406 C 29.667969 58.925781 28.714844 59.578125 24.910156 59.578125 C 21.105469 59.578125 20.152344 58.925781 20.152344 56.316406 Z M 34.425781 56.316406 L 34.425781 55.019531 C 34.425781 52.410156 35.375 51.757812 39.179688 51.757812 C 42.984375 51.757812 43.9375 52.410156 43.9375 55.019531 L 43.9375 56.316406 C 43.9375 58.925781 42.984375 59.578125 39.179688 59.578125 C 35.375 59.578125 34.425781 58.925781 34.425781 56.316406 Z M 48.695312 56.316406 L 48.695312 55.019531 C 48.695312 52.410156 49.648438 51.757812 53.453125 51.757812 C 57.257812 51.757812 58.207031 52.410156 58.207031 55.019531 L 58.207031 56.316406 C 58.207031 58.925781 57.257812 59.578125 53.453125 59.578125 C 49.648438 59.578125 48.695312 58.925781 48.695312 56.316406 Z M 48.695312 56.316406 " /><path style=" stroke:none;fill-rule:nonzero;fill:url(#linear0);" d="M 28.652344 23.660156 C 28.652344 25.265625 27.257812 26.574219 25.539062 26.574219 L 16.511719 26.574219 C 14.320312 26.574219 12.535156 24.90625 12.535156 22.851562 C 12.535156 20.800781 14.320312 19.128906 16.511719 19.128906 C 16.625 19.128906 16.738281 19.132812 16.851562 19.144531 C 17.78125 17.867188 19.339844 17.070312 21.042969 17.070312 C 23.457031 17.070312 25.480469 18.65625 25.992188 20.773438 C 27.496094 20.980469 28.652344 22.195312 28.652344 23.660156 Z M 46.980469 23.117188 C 46.324219 22.382812 45.34375 21.9375 44.28125 21.9375 C 42.746094 21.9375 41.4375 22.863281 40.957031 24.152344 C 40.003906 24.449219 39.3125 25.289062 39.3125 26.28125 C 39.3125 27.519531 40.386719 28.527344 41.707031 28.527344 L 46.875 28.527344 C 48.464844 28.527344 49.761719 27.3125 49.761719 25.820312 C 49.761719 24.363281 48.523438 23.171875 46.980469 23.117188 Z M 52.878906 43.96875 C 52.878906 44.710938 52.238281 45.3125 51.445312 45.3125 L 13.015625 45.3125 C 12.222656 45.3125 11.582031 44.710938 11.582031 43.96875 C 11.582031 43.226562 12.222656 42.625 13.015625 42.625 L 15.613281 42.625 L 23.8125 33.816406 C 24.46875 33.109375 25.421875 32.703125 26.421875 32.703125 C 27.347656 32.703125 28.214844 33.039062 28.867188 33.652344 L 30.605469 35.28125 L 34.671875 30.363281 C 35.34375 29.574219 36.328125 29.128906 37.386719 29.128906 C 38.609375 29.128906 39.710938 29.707031 40.339844 30.679688 L 48.957031 42.625 L 51.445312 42.625 C 52.238281 42.625 52.878906 43.226562 52.878906 43.96875 Z M 19.417969 42.625 L 24.515625 42.625 L 28.765625 37.351562 L 26.839844 35.550781 C 26.691406 35.410156 26.515625 35.386719 26.421875 35.386719 C 26.324219 35.386719 26.132812 35.414062 25.980469 35.578125 Z M 42.519531 13.445312 L 40.886719 13.445312 C 40.847656 13.351562 40.804688 13.257812 40.761719 13.164062 L 41.917969 12.082031 C 42.476562 11.558594 42.476562 10.707031 41.917969 10.183594 C 41.355469 9.65625 40.449219 9.65625 39.886719 10.183594 L 38.734375 11.265625 C 38.632812 11.222656 38.53125 11.183594 38.429688 11.148438 L 38.429688 9.617188 C 38.429688 8.875 37.789062 8.273438 36.996094 8.273438 C 36.203125 8.273438 35.5625 8.875 35.5625 9.617188 L 35.5625 11.148438 C 35.460938 11.183594 35.359375 11.222656 35.261719 11.265625 L 34.105469 10.183594 C 33.542969 9.65625 32.636719 9.65625 32.078125 10.183594 C 31.515625 10.707031 31.515625 11.558594 32.078125 12.082031 L 33.230469 13.164062 C 33.1875 13.257812 33.144531 13.351562 33.105469 13.445312 L 31.472656 13.445312 C 30.679688 13.445312 30.039062 14.046875 30.039062 14.789062 C 30.039062 15.535156 30.679688 16.132812 31.472656 16.132812 L 33.105469 16.132812 C 33.144531 16.230469 33.1875 16.324219 33.230469 16.417969 L 32.078125 17.5 C 31.515625 18.023438 31.515625 18.875 32.078125 19.398438 C 32.355469 19.660156 32.726562 19.792969 33.089844 19.792969 C 33.457031 19.792969 33.824219 19.660156 34.105469 19.398438 L 35.261719 18.316406 C 35.359375 18.359375 35.460938 18.398438 35.5625 18.433594 L 35.5625 19.964844 C 35.5625 20.707031 36.207031 21.308594 36.996094 21.308594 C 37.789062 21.308594 38.429688 20.707031 38.429688 19.964844 L 38.429688 18.433594 C 38.535156 18.398438 38.632812 18.359375 38.734375 18.316406 L 39.886719 19.398438 C 40.167969 19.660156 40.535156 19.792969 40.902344 19.792969 C 41.269531 19.792969 41.636719 19.660156 41.917969 19.398438 C 42.476562 18.875 42.476562 18.023438 41.917969 17.5 L 40.761719 16.417969 C 40.808594 16.324219 40.847656 16.230469 40.890625 16.132812 L 42.519531 16.132812 C 43.3125 16.132812 43.953125 15.535156 43.953125 14.789062 C 43.953125 14.046875 43.3125 13.445312 42.519531 13.445312 Z M 42.519531 13.445312 " /></g></g></svg>