<?xml version='1.0' encoding='UTF-8'?>
<svg xmlns="http://www.w3.org/2000/svg" xmlns:ns0="http://www.inkscape.org/namespaces/inkscape" width="512" height="512" viewBox="0 0 64 64" version="1.1"><defs><linearGradient id="linear0" gradientUnits="userSpaceOnUse" x1="0" y1="0" x2="0" y2="1" gradientTransform="matrix(80.712339,0,0,79.671896,3.363599,3.872603)"><stop offset="0" style="stop-color:#5989b6;stop-opacity:1;" id="stop2" /><stop offset="1" style="stop-color:#355878;stop-opacity:1;" id="stop4" /><stop offset="1" style="stop-color:#5989b6;stop-opacity:1;" id="stop2" /><stop offset="1" style="stop-color:#355878;stop-opacity:1;" id="stop4" /></linearGradient><filter style="color-interpolation-filters:sRGB;" ns0:label="Diffuse Light" id="filter184" x="-0.0375" y="-0.0375"><feGaussianBlur in="SourceGraphic" stdDeviation="1" result="blur" id="feGaussianBlur174" /><feDiffuseLighting diffuseConstant="1" surfaceScale="10" lighting-color="rgb(255,255,255)" result="diffuse" id="feDiffuseLighting178"><feDistantLight elevation="8" azimuth="235" id="feDistantLight176" /></feDiffuseLighting><feComposite in="diffuse" in2="diffuse" operator="arithmetic" k1="1" result="composite1" id="feComposite180" /><feComposite in="composite1" in2="SourceGraphic" k1="1" operator="arithmetic" k3="1" result="composite2" id="feComposite182" /></filter></defs><g transform="translate(32.0000 32.0000) scale(0.873896) translate(-32.0000 -32.0000)"><g id="surface1" style="filter:url(#filter184)"><path style=" stroke:none;fill-rule:nonzero;fill:url(#linear0);" d="M 13.371094 1.375 C 11.777344 1.375 10.484375 2.648438 10.484375 4.222656 L 10.484375 10.933594 C 10.484375 12.503906 11.777344 13.777344 13.371094 13.777344 C 14.960938 13.777344 16.253906 12.503906 16.253906 10.933594 L 16.253906 4.222656 C 16.253906 2.648438 14.960938 1.375 13.371094 1.375 Z M 32.585938 2.378906 C 30.539062 2.378906 28.503906 3.082031 26.890625 4.503906 C 26.878906 4.515625 26.863281 4.53125 26.851562 4.542969 L 2.320312 27.082031 C 1.214844 28.101562 1.152344 29.808594 2.183594 30.90625 C 3.214844 31.996094 4.949219 32.054688 6.054688 31.039062 L 30.535156 8.539062 L 30.546875 8.535156 C 31.980469 7.273438 33.207031 7.261719 34.742188 8.570312 L 56.050781 27.871094 C 54.773438 28.164062 53.550781 28.644531 52.53125 29.484375 C 51.035156 30.707031 49.851562 32.601562 49.851562 34.847656 L 49.851562 57.875 L 41.367188 57.875 L 41.367188 43.960938 C 41.367188 38.304688 36.824219 34.640625 32.378906 34.605469 C 30.15625 34.589844 27.890625 35.355469 26.15625 36.988281 C 24.425781 38.617188 23.347656 41.097656 23.347656 43.960938 L 23.347656 57.875 L 14.597656 57.875 L 14.597656 34.847656 C 14.597656 33.355469 13.375 32.148438 11.863281 32.148438 C 10.351562 32.148438 9.125 33.355469 9.125 34.847656 L 9.125 58.589844 C 9.125 60.847656 11.011719 63.277344 13.640625 63.277344 L 24.3125 63.277344 C 25.316406 63.277344 26.449219 63 27.378906 62.195312 C 28.308594 61.390625 28.828125 60.089844 28.828125 58.910156 L 28.828125 43.960938 C 28.828125 42.34375 29.320312 41.484375 29.9375 40.902344 C 30.558594 40.320312 31.421875 40.003906 32.335938 40.011719 C 34.164062 40.023438 35.890625 40.847656 35.890625 43.960938 L 35.890625 58.910156 C 35.890625 61.195312 38.0625 63.277344 40.375 63.277344 L 50.816406 63.277344 C 51.8125 63.292969 52.941406 63.046875 53.875 62.265625 C 54.8125 61.488281 55.328125 60.195312 55.328125 59.074219 L 55.328125 34.847656 C 55.328125 34.457031 55.519531 34.0625 56.027344 33.648438 C 56.53125 33.230469 57.3125 32.964844 57.820312 32.964844 C 59.796875 32.972656 61.964844 32.085938 62.703125 30.019531 C 63.40625 28.054688 62.355469 26.082031 60.878906 24.90625 L 38.382812 4.53125 C 38.363281 4.507812 38.339844 4.492188 38.320312 4.476562 C 36.679688 3.078125 34.628906 2.375 32.585938 2.378906 Z M 32.519531 15.28125 C 29.425781 15.28125 26.917969 17.8125 26.921875 20.933594 C 26.921875 24.058594 29.425781 26.585938 32.519531 26.585938 C 35.613281 26.585938 38.121094 24.058594 38.121094 20.933594 C 38.121094 17.8125 35.613281 15.28125 32.519531 15.28125 Z M 32.519531 15.28125 " /></g></g></svg>