<?xml version='1.0' encoding='UTF-8'?>
<svg xmlns="http://www.w3.org/2000/svg" style="isolation:isolate" viewBox="0 0 48 48" width="512" height="512">
  <defs>
    
    <linearGradient id="excel_moderno_base" x1="0" y1="0.5" x2="1" y2="0.5" gradientTransform="matrix(42.555,0,0,48,2.723,0)" gradientUnits="userSpaceOnUse">
      <stop offset="0%" style="stop-color:#4ADE80;stop-opacity:1" />
      <stop offset="50%" style="stop-color:#16A34A;stop-opacity:1" />
      <stop offset="97.91666666666666%" style="stop-color:#14532D;stop-opacity:1" />
    </linearGradient>

    
    <linearGradient id="excel_moderno_detalles" x1="0.03118" y1="0.10866" x2="0.95838" y2="0.97519" gradientTransform="matrix(24.645,0,0,24.645,11.677,11.677)" gradientUnits="userSpaceOnUse">
      <stop offset="0%" style="stop-color:#4ADE80;stop-opacity:1" />
      <stop offset="100%" style="stop-color:#14532D;stop-opacity:1" />
    </linearGradient>
  </defs>

  
  <g transform="translate(24.0000 24.0000) scale(0.850000) translate(-24.0000 -24.0000)"><path d="M 34.639 0.077 C 34.479 0.025 34.308 0 34.132 0 L 34.132 0 L 8.103 0 C 5.133 0 2.723 2.411 2.723 5.38 L 2.723 27.429 L 2.723 27.429 C 2.723 28.69 3.631 29.714 4.749 29.714 L 4.749 29.714 C 5.867 29.714 6.775 28.69 6.775 27.429 L 6.775 27.429 L 6.775 27.429 L 6.775 27.429 L 6.775 7.8 C 6.775 6.018 8.222 4.571 10.004 4.571 L 34.132 4.571 L 34.132 4.571 C 34.308 4.571 34.479 4.546 34.639 4.495 C 34.799 4.546 34.969 4.571 35.145 4.571 L 35.145 4.571 L 37.996 4.571 C 39.778 4.571 41.225 6.018 41.225 7.8 L 41.225 11.429 L 41.225 11.429 C 41.225 12.69 42.133 13.714 43.251 13.714 L 43.251 13.714 C 44.369 13.714 45.277 12.69 45.277 11.429 L 45.277 11.429 L 45.277 5.38 C 45.277 2.411 42.867 0 39.897 0 L 35.145 0 L 35.145 0 C 34.969 0 34.799 0.025 34.639 0.077 Z M 12.855 43.429 L 12.855 43.429 C 13.973 43.429 14.881 44.453 14.881 45.714 L 14.881 45.714 C 14.881 46.976 13.973 48 12.855 48 L 12.855 48 L 8.103 48 C 5.133 48 2.723 45.589 2.723 42.62 L 2.723 36.571 L 2.723 36.571 C 2.723 35.31 3.631 34.286 4.749 34.286 L 4.749 34.286 C 5.867 34.286 6.775 35.31 6.775 36.571 L 6.775 36.571 L 6.775 40.2 C 6.775 41.982 8.222 43.429 10.004 43.429 L 12.855 43.429 L 12.855 43.429 L 12.855 43.429 Z M 41.225 21.714 L 41.225 21.714 C 41.225 20.453 42.133 19.429 43.251 19.429 L 43.251 19.429 C 44.369 19.429 45.277 20.453 45.277 21.714 L 45.277 21.714 L 45.277 42.62 C 45.277 45.589 42.867 48 39.897 48 L 21.974 48 L 21.974 48 C 20.855 48 19.947 46.976 19.947 45.714 L 19.947 45.714 C 19.947 44.453 20.855 43.429 21.974 43.429 L 21.974 43.429 L 37.996 43.429 C 39.778 43.429 41.225 41.982 41.225 40.2 L 41.225 21.714 L 41.225 21.714 Z" fill-rule="evenodd" fill="url(#excel_moderno_base)" />

  
  <g opacity="0.9">
    <path d="M 11.677 11.677 L 11.677 36.323 L 36.323 36.323 L 36.323 11.677 L 13.731 11.677 L 11.677 11.677 Z M 13.731 13.731 L 34.269 13.731 L 34.269 17.839 L 13.731 17.839 L 13.731 13.731 Z M 13.731 19.892 L 17.839 19.892 L 17.839 26.054 L 13.731 26.054 L 13.731 19.892 Z M 19.892 19.892 L 28.108 19.892 L 28.108 26.054 L 19.892 26.054 L 19.892 19.892 Z M 30.161 19.892 L 34.269 19.892 L 34.269 26.054 L 30.161 26.054 L 30.161 19.892 Z M 13.731 28.108 L 17.839 28.108 L 17.839 34.269 L 13.731 34.269 L 13.731 28.108 Z M 19.892 28.108 L 28.108 28.108 L 28.108 34.269 L 19.892 34.269 L 19.892 28.108 Z M 30.161 28.108 L 34.269 28.108 L 34.269 34.269 L 30.161 34.269 L 30.161 28.108 Z" fill="url(#excel_moderno_detalles)" />
  </g>
</g></svg>