<svg style="isolation:isolate" viewBox="0 0 512 512" width="512" height="512" version="1.1" xmlns="http://www.w3.org/2000/svg"><defs><linearGradient id="dyn_grad" x1="0" y1="0.5" x2="1" y2="0.5"><stop offset="0%" style="stop-color:#a27ae4;stop-opacity:1"/><stop offset="100%" style="stop-color:#7155a0;stop-opacity:1"/></linearGradient></defs><path fill="url(#dyn_grad)" fill-rule="evenodd" d="M 224,373.333 V 448 H 288 V 373.333 Z M 181.333,373.333 V 448 H 117.333 C 105.557,448 96,457.557 96,469.333 V 469.333 C 96,481.11 105.557,490.667 117.333,490.667 H 394.667 C 406.443,490.667 416,481.11 416,469.333 V 469.333 C 416,457.557 406.443,448 394.667,448 H 330.667 V 373.333 H 437.333 C 466.773,373.333 490.667,349.44 490.667,320 V 202.667 202.667 C 490.667,190.89 481.11,181.333 469.333,181.333 V 181.333 C 457.557,181.333 448,190.89 448,202.667 V 202.667 320 C 448,325.893 443.227,330.667 437.333,330.667 H 74.667 C 68.773,330.667 64,325.893 64,320 V 74.667 C 64,68.773 68.773,64 74.667,64 H 437.333 C 443.227,64 448,68.773 448,74.667 V 106.667 106.667 C 448,118.443 457.557,128 469.333,128 V 128 C 481.11,128 490.667,118.443 490.667,106.667 V 106.667 74.667 C 490.667,45.227 466.773,21.333 437.333,21.333 H 74.667 C 45.227,21.333 21.333,45.227 21.333,74.667 V 320 C 21.333,349.44 45.227,373.333 74.667,373.333 Z"/></svg>