<?xml version='1.0' encoding='UTF-8'?>
<svg xmlns="http://www.w3.org/2000/svg" xmlns:ns1="http://www.inkscape.org/namespaces/inkscape" xmlns:ns2="http://www.w3.org/1999/xlink" width="512" height="512" style="isolation:isolate" version="1.1" viewBox="0 0 48 48" id="svg3">
  <defs id="defs3">
    
    <linearGradient id="linearGradient10" ns1:collect="always">
      <stop style="stop-color:#a27ae4;stop-opacity:1;" offset="0" id="stop11" />
      <stop style="stop-color:#7155a0;stop-opacity:1;" offset="1" id="stop12" />
    </linearGradient>
    <linearGradient ns1:collect="always" ns2:href="#linearGradient10" id="linearGradient4" x1="1.222" y1="12.142" x2="46.229" y2="46.208" gradientUnits="userSpaceOnUse" />
  </defs>

  <g transform="translate(24.0000 24.0000) scale(0.902905) translate(-24.0000 -24.0000)"><g id="g1">
    
    <path d=" M 42 16.792 L 1.222 23.792 L 1.222 16 C 1.222 13.24 3.462 11 6.222 11 L 13.585 11 C 14.688 11 16.315 11.519 17.214 12.159 L 20.039 14.169 C 20.938 14.809 22.556 15.454 23.649 15.609 L 32 16.792 L 42 16.792 Z " fill="#7155a0" id="path1" style="fill:#7155a0;fill-opacity:1" />

    
    <path d=" M 5 15.772 C 3.003 15.503 2.392 14.323 3.075 12.142 Q 2.915 12.203 2.866 12.31 C 2.169 12.898 1.123 14.595 1.229 15.792 L 1.229 41.208 C 1.229 43.968 3.469 46.208 6.229 46.208 L 41.229 46.208 C 43.989 46.208 46.229 43.968 46.229 41.208 L 46.229 20.772 C 46.229 18.012 43.989 15.772 41.229 15.772 L 5 15.772 Z " fill="url(#linearGradient4)" id="path2" />
  </g>

  
  <path d=" M 30.671 40.724 C 30.863 40.724 31.048 40.791 31.185 40.912 C 31.319 41.03 31.395 41.193 31.395 41.362 C 31.395 41.531 31.319 41.694 31.185 41.812 C 31.048 41.933 30.863 42 30.671 42 L 27.377 42 C 26.065 42 25 40.935 25 39.623 L 25 29.388 C 25 28.076 26.065 27.011 27.377 27.011 L 39.623 27.011 C 40.935 27.011 42 28.076 42 29.388 L 42 39.623 C 42 40.935 40.935 42 39.623 42 L 36.329 42 C 36.137 42 35.952 41.933 35.815 41.812 C 35.681 41.694 35.605 41.531 35.605 41.362 C 35.605 41.193 35.681 41.03 35.815 40.912 C 35.952 40.791 36.137 40.724 36.329 40.724 L 38.855 40.724 C 39.792 40.724 40.553 39.963 40.553 39.026 L 40.553 29.985 C 40.553 29.047 39.792 28.286 38.855 28.286 L 28.145 28.286 C 27.208 28.286 26.447 29.047 26.447 29.985 L 26.447 39.026 C 26.447 39.963 27.208 40.724 28.145 40.724 L 30.671 40.724 Z  M 34.162 35.361 L 33.47 35.727 C 32.579 36.199 31.855 35.763 31.855 34.754 L 31.855 34.257 C 31.855 33.248 32.579 32.812 33.47 33.284 L 34.162 33.65 C 35.054 34.122 35.054 34.889 34.162 35.361 L 34.162 35.361 Z  M 36.638 35.703 L 32.008 38.154 C 31.116 38.626 30.392 38.19 30.392 37.182 L 30.392 31.829 C 30.392 30.82 31.116 30.385 32.008 30.857 L 36.638 33.308 C 37.886 33.969 37.886 35.042 36.638 35.703 L 36.638 35.703 Z " fill-rule="evenodd" fill="#ffffff" id="path3" style="fill:#ffffff;fill-opacity:1" />
</g></svg>