<?xml version='1.0' encoding='UTF-8'?>
<svg xmlns="http://www.w3.org/2000/svg" style="isolation:isolate" viewBox="0 0 16 16" width="512" height="512" version="1.1"><defs><linearGradient id="dyn_grad" x1="0" y1="0.5" x2="1" y2="0.5"><stop offset="0%" style="stop-color:#a27ae4;stop-opacity:1" /><stop offset="100%" style="stop-color:#7155a0;stop-opacity:1" /></linearGradient></defs><g transform="translate(8.0000 8.0000) scale(1.133333) translate(-8.0000 -8.0000)"><path fill="url(#dyn_grad)" fill-rule="evenodd" d="M 8,2 L 7.2929688,2.6992188 L 7.296875,2.703125 L 2,7.9980469 V 8 V 9 H 3.0078125 V 13 H 3 V 14 H 13 V 13 V 9 H 14 V 8 V 7.9980469 L 12.857422,6.8554688 L 12.15625,7.5566406 L 12.599609,8 H 12 V 13 H 9 V 10 H 7 V 13 H 4 V 9 V 8 H 3.4003906 L 7.9980469,3.4042969 L 8,3.40625 L 8.0019531,3.4042969 L 9.4433594,4.84375 L 10.144531,4.1425781 L 8.703125,2.703125 L 8.7070312,2.6992188 L 8,2 Z M 11,3 V 6 H 12.007812 V 3 Z" /></g></svg>