<?xml version='1.0' encoding='UTF-8'?>
<svg xmlns="http://www.w3.org/2000/svg" viewBox="0 0 48 48" width="512" height="512" style="isolation:isolate">
  <defs>
    <linearGradient id="purple_generic_gradient" x1="0" y1="0" x2="1" y2="0">
      <stop offset="0%" stop-color="#a27ae4" stop-opacity="1" />
      <stop offset="100%" stop-color="#7155a0" stop-opacity="1" />
    </linearGradient>
  </defs>
  <g transform="translate(24.0000 24.0000) scale(0.922034) translate(-24.0000 -24.0000)"><path fill="url(#purple_generic_gradient)" fill-rule="evenodd" d="m 43,22 v 0 0 0 M 42.94696,41.159588 C 42.944089,43.901178 40.755675,46 38.244,46 H 9.756 C 7.131,46 5,43.869 5,41.244 V 22 22 c 0,-1.104 0.811,-2 1.81,-2 v 0 c 0.998,0 1.809,0.896 1.809,2 v 0 17.146 c 0,1.575 1.279,2.854 2.854,2.854 h 25.054 c 1.575,0 2.854,-1.279 2.854,-2.854 V 23 23 23 22 8.854 C 39.381,7.279 38.102,6 36.527,6 H 11.473 C 9.898,6 8.619,7.279 8.619,8.854 V 14 14 c 0,1.104 -0.811,2 -1.809,2 v 0 C 5.811,16 5,15.104 5,14 V 14 6.756 C 5,4.131 7.131,2 9.756,2 h 28.488 c 2.511675,0 4.741663,2.1354107 4.73891,4.7685028 z M 12.932,10 h 22.366 c 0.797,0 1.444,0.647 1.444,1.444 v 1.112 C 36.742,13.353 36.095,14 35.298,14 H 12.932 c -0.797,0 -1.444,-0.647 -1.444,-1.444 V 11.444 C 11.488,10.647 12.135,10 12.932,10 Z m 0,16 h 15.06722 c 0.797,0 1.444,0.647 1.444,1.444 v 1.112 c 0,0.797 -0.647,1.444 -1.444,1.444 H 12.932 c -0.797,0 -1.444,-0.647 -1.444,-1.444 V 27.444 C 11.488,26.647 12.135,26 12.932,26 Z m 0,8 h 22.366 c 0.797,0 1.444,0.647 1.444,1.444 v 1.112 C 36.742,37.353 36.095,38 35.298,38 H 12.932 c -0.797,0 -1.444,-0.647 -1.444,-1.444 V 35.444 C 11.488,34.647 12.135,34 12.932,34 Z m 0,-16 h 18.626723 c 0.797,0 1.444,0.647 1.444,1.444 v 1.112 c 0,0.797 -0.647,1.444 -1.444,1.444 L 12.932,22 c -0.797,0 -1.444,-0.647 -1.444,-1.444 V 19.444 C 11.488,18.647 12.135,18 12.932,18 Z" />
</g></svg>